Mallanna-oct-p01.ufo
<glyph name="dollar" format="1">
  <advance width="508"/>
  <unicode hex="0024"/>
  <outline>
    <contour>
      <point x="248" y="45" type="curve" smooth="yes"/>
      <point x="182.894" y="45"/>
      <point x="143" y="84.8261"/>
      <point x="143" y="152" type="curve"/>
      <point x="81" y="152" type="line"/>
      <point x="81" y="139" type="line" smooth="yes"/>
      <point x="81" y="103"/>
      <point x="94" y="71"/>
      <point x="119" y="42" type="curve" smooth="yes"/>
      <point x="145" y="13"/>
      <point x="177" y="-3"/>
      <point x="214" y="-8" type="curve"/>
      <point x="214" y="-84" type="line"/>
      <point x="276" y="-84" type="line" name="hr00"/>
      <point x="276" y="-8" type="line"/>
      <point x="317" y="-3"/>
      <point x="349" y="15"/>
      <point x="375" y="48" type="curve" smooth="yes"/>
      <point x="397" y="76"/>
      <point x="410" y="109"/>
      <point x="410" y="146" type="curve" smooth="yes"/>
      <point x="410" y="229"/>
      <point x="362" y="280"/>
      <point x="259" y="308" type="curve" smooth="yes"/>
      <point x="200.982" y="324.318"/>
      <point x="160" y="336.763"/>
      <point x="160" y="399" type="curve" smooth="yes"/>
      <point x="160" y="453.049"/>
      <point x="191.854" y="489"/>
      <point x="247" y="489" type="curve" smooth="yes"/>
      <point x="300.266" y="489"/>
      <point x="342" y="454.482"/>
      <point x="342" y="399" type="curve" smooth="yes"/>
      <point x="342" y="394" type="line"/>
      <point x="404" y="394" type="line"/>
      <point x="404" y="477.884"/>
      <point x="349.208" y="532.86"/>
      <point x="276" y="544" type="curve"/>
      <point x="276" y="607" type="line"/>
      <point x="214" y="607" type="line"/>
      <point x="214" y="541" type="line"/>
      <point x="146" y="528"/>
      <point x="97" y="471"/>
      <point x="97" y="399" type="curve" smooth="yes"/>
      <point x="97" y="350"/>
      <point x="114" y="312"/>
      <point x="152" y="286" type="curve" smooth="yes"/>
      <point x="172" y="272"/>
      <point x="202" y="262"/>
      <point x="240" y="253" type="curve" smooth="yes"/>
      <point x="271" y="245"/>
      <point x="293" y="236"/>
      <point x="307" y="225" type="curve"/>
      <point x="334" y="208"/>
      <point x="347" y="181"/>
      <point x="347" y="146" type="curve" smooth="yes"/>
      <point x="347" y="85"/>
      <point x="309" y="45"/>
    </contour>
  </outline>
</glyph>
<glyph name="asterisk" format="1">
  <advance width="673"/>
  <unicode hex="002A"/>
  <outline>
    <contour>
      <point x="245" y="179" type="line" name="hr00"/>
      <point x="176" y="-11" type="line"/>
      <point x="353" y="109" type="line"/>
      <point x="530" y="-8" type="line"/>
      <point x="460" y="179" type="line"/>
      <point x="638" y="307" type="line"/>
      <point x="422" y="307" type="line"/>
      <point x="353" y="490" type="line"/>
      <point x="287" y="307" type="line"/>
      <point x="62" y="307" type="line"/>
    </contour>
  </outline>
</glyph>
<glyph name="plus" format="1">
  <advance width="525"/>
  <unicode hex="002B"/>
  <outline>
    <contour>
      <point x="468" y="266" type="line" name="hr00"/>
      <point x="296" y="266" type="line"/>
      <point x="296" y="444" type="line"/>
      <point x="233" y="444" type="line"/>
      <point x="233" y="266" type="line"/>
      <point x="62" y="266" type="line"/>
      <point x="62" y="199" type="line"/>
      <point x="233" y="199" type="line"/>
      <point x="233" y="15" type="line"/>
      <point x="296" y="15" type="line"/>
      <point x="296" y="199" type="line"/>
      <point x="468" y="199" type="line"/>
    </contour>
  </outline>
</glyph>
<glyph name="hyphen" format="1">
  <advance width="419"/>
  <unicode hex="002D"/>
  <outline>
    <contour>
      <point x="55" y="243" type="line" name="hr00" smooth="yes"/>
      <point x="36" y="243"/>
      <point x="27" y="234"/>
      <point x="27" y="215" type="curve" smooth="yes"/>
      <point x="27" y="200"/>
      <point x="35" y="193"/>
      <point x="50" y="193" type="curve" smooth="yes"/>
      <point x="348" y="193" type="line" smooth="yes"/>
      <point x="361" y="193"/>
      <point x="367" y="201"/>
      <point x="367" y="217" type="curve" smooth="yes"/>
      <point x="367" y="234"/>
      <point x="362" y="243"/>
      <point x="351" y="243" type="curve" smooth="yes"/>
    </contour>
  </outline>
</glyph>
<glyph name="three" format="1">
  <advance width="513"/>
  <unicode hex="0033"/>
  <outline>
    <contour>
      <point x="389" y="434" type="curve" smooth="yes"/>
      <point x="389" y="377.254"/>
      <point x="324.9" y="334"/>
      <point x="266" y="334" type="curve" smooth="yes"/>
      <point x="201" y="334" type="line" smooth="yes"/>
      <point x="182" y="334"/>
      <point x="172" y="324"/>
      <point x="172" y="305" type="curve" smooth="yes"/>
      <point x="172" y="288"/>
      <point x="179" y="279"/>
      <point x="194" y="279" type="curve" smooth="yes"/>
      <point x="290" y="279" type="line" smooth="yes"/>
      <point x="366" y="279"/>
      <point x="404" y="243"/>
      <point x="404" y="171" type="curve" smooth="yes"/>
      <point x="404" y="84"/>
      <point x="348" y="41"/>
      <point x="235" y="41" type="curve" smooth="yes"/>
      <point x="135" y="41"/>
      <point x="82" y="91"/>
      <point x="82" y="190" type="curve"/>
      <point x="80" y="204"/>
      <point x="72" y="211"/>
      <point x="57" y="211" type="curve" smooth="yes"/>
      <point x="37" y="211"/>
      <point x="27" y="201"/>
      <point x="27" y="180" type="curve" smooth="yes"/>
      <point x="27" y="131"/>
      <point x="45" y="89"/>
      <point x="78" y="52" type="curve" smooth="yes"/>
      <point x="116" y="10"/>
      <point x="167" y="-13"/>
      <point x="232" y="-13" type="curve" smooth="yes"/>
      <point x="379" y="-13"/>
      <point x="461" y="59"/>
      <point x="461" y="171" type="curve" name="hr00" smooth="yes"/>
      <point x="461" y="246"/>
      <point x="432" y="294"/>
      <point x="374" y="316" type="curve"/>
      <point x="421" y="347"/>
      <point x="444" y="389"/>
      <point x="444" y="440" type="curve" smooth="yes"/>
      <point x="444" y="537"/>
      <point x="367" y="585"/>
      <point x="252" y="585" type="curve" smooth="yes"/>
      <point x="217" y="585"/>
      <point x="185" y="582"/>
      <point x="158" y="576" type="curve"/>
      <point x="99.6042" y="556.535"/>
      <point x="38" y="490.98"/>
      <point x="38" y="415" type="curve" smooth="yes"/>
      <point x="38" y="392"/>
      <point x="47" y="380"/>
      <point x="66" y="380" type="curve" smooth="yes"/>
      <point x="81" y="380"/>
      <point x="90" y="388"/>
      <point x="93" y="403" type="curve" smooth="yes"/>
      <point x="103" y="449" type="line"/>
      <point x="124" y="508"/>
      <point x="174" y="537"/>
      <point x="255" y="537" type="curve" smooth="yes"/>
      <point x="336" y="537"/>
      <point x="389" y="501"/>
    </contour>
  </outline>
</glyph>
<glyph name="six" format="1">
  <advance width="517"/>
  <unicode hex="0036"/>
  <outline>
    <contour>
      <point x="411" y="184" type="curve" name="hr00" smooth="yes"/>
      <point x="411" y="91"/>
      <point x="350" y="36"/>
      <point x="250" y="36" type="curve" smooth="yes"/>
      <point x="146" y="36"/>
      <point x="94" y="84"/>
      <point x="94" y="180" type="curve" smooth="yes"/>
      <point x="94" y="221"/>
      <point x="100" y="250"/>
      <point x="113" y="268" type="curve" smooth="yes"/>
      <point x="143" y="311"/>
      <point x="193" y="333"/>
      <point x="264" y="333" type="curve" smooth="yes"/>
      <point x="312" y="333"/>
      <point x="348" y="318"/>
      <point x="373" y="289" type="curve" smooth="yes"/>
      <point x="398" y="260"/>
      <point x="411" y="225"/>
    </contour>
    <contour>
      <point x="464" y="183" type="curve" smooth="yes"/>
      <point x="464" y="299.556"/>
      <point x="388.543" y="385"/>
      <point x="274" y="385" type="curve" smooth="yes"/>
      <point x="177" y="385"/>
      <point x="112" y="357"/>
      <point x="79" y="300" type="curve"/>
      <point x="79" y="453"/>
      <point x="139" y="529"/>
      <point x="258" y="529" type="curve" smooth="yes"/>
      <point x="305" y="529"/>
      <point x="340" y="519"/>
      <point x="361" y="500" type="curve" smooth="yes"/>
      <point x="370" y="491"/>
      <point x="379" y="471"/>
      <point x="389" y="440" type="curve"/>
      <point x="398" y="419"/>
      <point x="409" y="408"/>
      <point x="422" y="408" type="curve" smooth="yes"/>
      <point x="437" y="409"/>
      <point x="445" y="417"/>
      <point x="445" y="432" type="curve" smooth="yes"/>
      <point x="445" y="467"/>
      <point x="431" y="499"/>
      <point x="402" y="528" type="curve" smooth="yes"/>
      <point x="367" y="561"/>
      <point x="321" y="578"/>
      <point x="264" y="578" type="curve" smooth="yes"/>
      <point x="184" y="578"/>
      <point x="126" y="555"/>
      <point x="89" y="509" type="curve" smooth="yes"/>
      <point x="48" y="457"/>
      <point x="27" y="382"/>
      <point x="27" y="285" type="curve" smooth="yes"/>
      <point x="27" y="86"/>
      <point x="96" y="-13"/>
      <point x="235" y="-13" type="curve" smooth="yes"/>
      <point x="388" y="-13"/>
      <point x="464" y="52"/>
    </contour>
  </outline>
</glyph>
<glyph name="nine" format="1">
  <advance width="524"/>
  <unicode hex="0039"/>
  <outline>
    <contour>
      <point x="79" y="386" type="curve" smooth="yes"/>
      <point x="79" y="478.37"/>
      <point x="141.159" y="537"/>
      <point x="237" y="537" type="curve" smooth="yes"/>
      <point x="348" y="537"/>
      <point x="404" y="483"/>
      <point x="404" y="376" type="curve" name="hr00" smooth="yes"/>
      <point x="404" y="288"/>
      <point x="339" y="234"/>
      <point x="232" y="234" type="curve" smooth="yes"/>
      <point x="130" y="234"/>
      <point x="79" y="285"/>
    </contour>
    <contour>
      <point x="416" y="268" type="curve"/>
      <point x="416" y="139.997"/>
      <point x="360.492" y="36"/>
      <point x="241" y="36" type="curve" smooth="yes"/>
      <point x="159" y="36"/>
      <point x="111" y="66"/>
      <point x="97" y="126" type="curve" smooth="yes"/>
      <point x="92" y="149"/>
      <point x="82" y="160"/>
      <point x="65" y="160" type="curve" smooth="yes"/>
      <point x="50" y="160"/>
      <point x="42" y="151"/>
      <point x="42" y="132" type="curve" smooth="yes"/>
      <point x="42" y="103"/>
      <point x="56" y="76"/>
      <point x="82" y="47" type="curve" smooth="yes"/>
      <point x="118" y="8"/>
      <point x="166" y="-13"/>
      <point x="229" y="-13" type="curve" smooth="yes"/>
      <point x="308" y="-13"/>
      <point x="366" y="9"/>
      <point x="404" y="54" type="curve" smooth="yes"/>
      <point x="448" y="106"/>
      <point x="470" y="190"/>
      <point x="470" y="307" type="curve" smooth="yes"/>
      <point x="470" y="492"/>
      <point x="394" y="585"/>
      <point x="241" y="585" type="curve" smooth="yes"/>
      <point x="100" y="585"/>
      <point x="27" y="500"/>
      <point x="27" y="379" type="curve" smooth="yes"/>
      <point x="27" y="332"/>
      <point x="39" y="290"/>
      <point x="66" y="254" type="curve" smooth="yes"/>
      <point x="102" y="206"/>
      <point x="154" y="184"/>
      <point x="220" y="184" type="curve" smooth="yes"/>
      <point x="322" y="184"/>
      <point x="387" y="212"/>
    </contour>
  </outline>
</glyph>
<glyph name="equal" format="1">
  <advance width="450"/>
  <unicode hex="003D"/>
  <outline>
    <contour>
      <point x="55" y="151" type="line" name="hr00" smooth="yes"/>
      <point x="36" y="151"/>
      <point x="27" y="141"/>
      <point x="27" y="122" type="curve" smooth="yes"/>
      <point x="27" y="108"/>
      <point x="35" y="101"/>
      <point x="50" y="101" type="curve" smooth="yes"/>
      <point x="374" y="101" type="line" smooth="yes"/>
      <point x="387" y="101"/>
      <point x="394" y="109"/>
      <point x="394" y="125" type="curve" smooth="yes"/>
      <point x="394" y="142"/>
      <point x="389" y="151"/>
      <point x="379" y="151" type="curve" smooth="yes"/>
    </contour>
    <contour>
      <point x="55" y="333" type="line" smooth="yes"/>
      <point x="36" y="333"/>
      <point x="27" y="324"/>
      <point x="27" y="307" type="curve" smooth="yes"/>
      <point x="27" y="293"/>
      <point x="35" y="286"/>
      <point x="50" y="286" type="curve" smooth="yes"/>
      <point x="374" y="286" type="line" smooth="yes"/>
      <point x="387" y="286"/>
      <point x="394" y="294"/>
      <point x="394" y="310" type="curve" smooth="yes"/>
      <point x="394" y="325"/>
      <point x="389" y="333"/>
      <point x="379" y="333" type="curve" smooth="yes"/>
    </contour>
  </outline>
</glyph>
<glyph name="at" format="1">
  <advance width="642"/>
  <unicode hex="0040"/>
  <outline>
    <contour>
      <point x="222" y="237" type="curve" smooth="yes"/>
      <point x="222" y="303.912"/>
      <point x="265.157" y="367"/>
      <point x="330" y="367" type="curve" smooth="yes"/>
      <point x="375" y="367"/>
      <point x="406" y="333"/>
      <point x="406" y="280" type="curve" name="hr00" smooth="yes"/>
      <point x="406" y="211.017"/>
      <point x="369.682" y="140"/>
      <point x="305" y="140" type="curve" smooth="yes"/>
      <point x="256" y="140"/>
      <point x="222" y="176"/>
    </contour>
    <contour>
      <point x="562" y="305" type="curve" smooth="yes"/>
      <point x="562" y="237.717"/>
      <point x="531.341" y="140"/>
      <point x="471" y="140" type="curve" smooth="yes"/>
      <point x="455" y="140"/>
      <point x="446" y="152"/>
      <point x="446" y="169" type="curve" smooth="yes"/>
      <point x="446" y="175" type="line" smooth="yes"/>
      <point x="446" y="179"/>
      <point x="452" y="209"/>
      <point x="453" y="216" type="curve" smooth="yes"/>
      <point x="487" y="405" type="line"/>
      <point x="435" y="405" type="line"/>
      <point x="425" y="353" type="line"/>
      <point x="412.694" y="389.919"/>
      <point x="375.603" y="416"/>
      <point x="327" y="416" type="curve" smooth="yes"/>
      <point x="281" y="416"/>
      <point x="244" y="398"/>
      <point x="215" y="361" type="curve" smooth="yes"/>
      <point x="186" y="325"/>
      <point x="172" y="283"/>
      <point x="172" y="236" type="curve" smooth="yes"/>
      <point x="172" y="147"/>
      <point x="223" y="91"/>
      <point x="296" y="91" type="curve" smooth="yes"/>
      <point x="347" y="91"/>
      <point x="382" y="117"/>
      <point x="405" y="149" type="curve"/>
      <point x="405" y="115.606"/>
      <point x="431.834" y="91"/>
      <point x="471" y="91" type="curve" smooth="yes"/>
      <point x="510" y="91"/>
      <point x="543" y="112"/>
      <point x="571" y="154" type="curve" smooth="yes"/>
      <point x="600" y="196"/>
      <point x="614" y="246"/>
      <point x="614" y="305" type="curve" smooth="yes"/>
      <point x="614" y="464.324"/>
      <point x="496.329" y="567"/>
      <point x="335" y="567" type="curve" smooth="yes"/>
      <point x="247" y="567"/>
      <point x="174" y="539"/>
      <point x="115" y="482" type="curve" smooth="yes"/>
      <point x="57" y="425"/>
      <point x="28" y="352"/>
      <point x="28" y="262" type="curve" smooth="yes"/>
      <point x="28" y="180"/>
      <point x="52" y="111"/>
      <point x="99" y="56" type="curve" smooth="yes"/>
      <point x="156" y="-9"/>
      <point x="238" y="-41"/>
      <point x="344" y="-41" type="curve" smooth="yes"/>
      <point x="415" y="-41"/>
      <point x="482" y="-27"/>
      <point x="545" y="2" type="curve"/>
      <point x="534" y="47" type="line"/>
      <point x="479.339" y="22.9492"/>
      <point x="417.983" y="6"/>
      <point x="344" y="6" type="curve" smooth="yes"/>
      <point x="253" y="6"/>
      <point x="184" y="35"/>
      <point x="137" y="92" type="curve" smooth="yes"/>
      <point x="99" y="137"/>
      <point x="80" y="194"/>
      <point x="80" y="261" type="curve" smooth="yes"/>
      <point x="80" y="334"/>
      <point x="104" y="395"/>
      <point x="153" y="444" type="curve" smooth="yes"/>
      <point x="202" y="493"/>
      <point x="262" y="517"/>
      <point x="335" y="517" type="curve" smooth="yes"/>
      <point x="467.63" y="517"/>
      <point x="562" y="436.736"/>
    </contour>
  </outline>
</glyph>
<glyph name="C" format="1">
  <advance width="602"/>
  <unicode hex="0043"/>
  <outline>
    <contour>
      <point x="316" y="506" type="curve" smooth="yes"/>
      <point x="404.063" y="506"/>
      <point x="469.489" y="461.824"/>
      <point x="507" y="407" type="curve"/>
      <point x="567" y="407" type="line"/>
      <point x="554" y="440"/>
      <point x="527" y="471"/>
      <point x="486" y="500" type="curve" smooth="yes"/>
      <point x="436" y="537"/>
      <point x="380" y="555"/>
      <point x="317" y="555" type="curve" smooth="yes"/>
      <point x="238" y="555"/>
      <point x="170" y="528"/>
      <point x="114" y="473" type="curve" smooth="yes"/>
      <point x="59" y="419"/>
      <point x="31" y="352"/>
      <point x="31" y="271" type="curve" smooth="yes"/>
      <point x="31" y="192"/>
      <point x="59" y="125"/>
      <point x="116" y="71" type="curve" smooth="yes"/>
      <point x="173" y="17"/>
      <point x="240" y="-10"/>
      <point x="317" y="-10" type="curve" smooth="yes"/>
      <point x="437.384" y="-10"/>
      <point x="523.95" y="59.2433"/>
      <point x="569" y="141" type="curve"/>
      <point x="509" y="141" type="line" name="hr00"/>
      <point x="460" y="76"/>
      <point x="390" y="37"/>
      <point x="317" y="37" type="curve" smooth="yes"/>
      <point x="256" y="37"/>
      <point x="202" y="60"/>
      <point x="155" y="106" type="curve" smooth="yes"/>
      <point x="108" y="153"/>
      <point x="85" y="208"/>
      <point x="85" y="271" type="curve" smooth="yes"/>
      <point x="85" y="333"/>
      <point x="108" y="388"/>
      <point x="153" y="435" type="curve" smooth="yes"/>
      <point x="198" y="482"/>
      <point x="253" y="506"/>
    </contour>
  </outline>
</glyph>
<glyph name="E" format="1">
  <advance width="397"/>
  <unicode hex="0045"/>
  <outline>
    <contour>
      <point x="350" y="-1" type="line" name="hr00"/>
      <point x="350" y="47" type="line"/>
      <point x="105" y="47" type="line"/>
      <point x="105" y="251" type="line"/>
      <point x="342" y="251" type="line"/>
      <point x="342" y="299" type="line"/>
      <point x="105" y="299" type="line"/>
      <point x="105" y="498" type="line"/>
      <point x="350" y="498" type="line"/>
      <point x="350" y="546" type="line"/>
      <point x="51" y="546" type="line"/>
      <point x="51" y="-1" type="line"/>
    </contour>
  </outline>
</glyph>
<glyph name="H" format="1">
  <advance width="504"/>
  <unicode hex="0048"/>
  <outline>
    <contour>
      <point x="110" y="-1" type="line" name="hr00"/>
      <point x="110" y="255" type="line"/>
      <point x="395" y="255" type="line"/>
      <point x="395" y="-1" type="line"/>
      <point x="449" y="-1" type="line"/>
      <point x="449" y="546" type="line"/>
      <point x="395" y="546" type="line"/>
      <point x="395" y="305" type="line"/>
      <point x="110" y="305" type="line"/>
      <point x="110" y="546" type="line"/>
      <point x="56" y="546" type="line"/>
      <point x="56" y="-1" type="line"/>
    </contour>
  </outline>
</glyph>
<glyph name="I" format="1">
  <advance width="166"/>
  <unicode hex="0049"/>
  <outline>
    <contour>
      <point x="110" y="-1" type="line" name="hr00"/>
      <point x="110" y="546" type="line"/>
      <point x="56" y="546" type="line"/>
      <point x="56" y="-1" type="line"/>
    </contour>
  </outline>
</glyph>
<glyph name="K" format="1">
  <advance width="437"/>
  <unicode hex="004B"/>
  <outline>
    <contour>
      <point x="113" y="-1" type="line" name="hr00"/>
      <point x="113" y="148" type="line"/>
      <point x="184" y="237" type="line"/>
      <point x="368" y="-1" type="line"/>
      <point x="436" y="-1" type="line"/>
      <point x="219" y="278" type="line"/>
      <point x="435" y="546" type="line"/>
      <point x="366" y="546" type="line"/>
      <point x="113" y="230" type="line"/>
      <point x="113" y="546" type="line"/>
      <point x="59" y="546" type="line"/>
      <point x="59" y="-1" type="line"/>
    </contour>
  </outline>
</glyph>
<glyph name="L" format="1">
  <advance width="342"/>
  <unicode hex="004C"/>
  <outline>
    <contour>
      <point x="339" y="-1" type="line" name="hr00"/>
      <point x="339" y="47" type="line"/>
      <point x="113" y="47" type="line"/>
      <point x="113" y="546" type="line"/>
      <point x="59" y="546" type="line"/>
      <point x="59" y="-1" type="line"/>
    </contour>
  </outline>
</glyph>
<glyph name="M" format="1">
  <advance width="680"/>
  <unicode hex="004D"/>
  <outline>
    <contour>
      <point x="110" y="-1" type="line" name="hr00"/>
      <point x="111" y="490" type="line"/>
      <point x="316" y="-1" type="line"/>
      <point x="362" y="-1" type="line"/>
      <point x="570" y="489" type="line"/>
      <point x="570" y="-1" type="line"/>
      <point x="624" y="-1" type="line"/>
      <point x="624" y="546" type="line"/>
      <point x="540" y="546" type="line"/>
      <point x="340" y="78" type="line"/>
      <point x="140" y="546" type="line"/>
      <point x="56" y="546" type="line"/>
      <point x="56" y="-1" type="line"/>
    </contour>
  </outline>
</glyph>
<glyph name="Q" format="1">
  <advance width="645"/>
  <unicode hex="0051"/>
  <outline>
    <contour>
      <point x="92" y="205" type="curve" name="hr00"/>
      <point x="88" y="225"/>
      <point x="83" y="241"/>
      <point x="83" y="268" type="curve" smooth="yes"/>
      <point x="83" y="337"/>
      <point x="107" y="397"/>
      <point x="159" y="444" type="curve" smooth="yes"/>
      <point x="205" y="487"/>
      <point x="261" y="507"/>
      <point x="326" y="507" type="curve" smooth="yes"/>
      <point x="391" y="507"/>
      <point x="447" y="484"/>
      <point x="494" y="438" type="curve" smooth="yes"/>
      <point x="541" y="393"/>
      <point x="565" y="336"/>
      <point x="565" y="269" type="curve" smooth="yes"/>
      <point x="565" y="212"/>
      <point x="541" y="152"/>
      <point x="489" y="103" type="curve"/>
      <point x="458" y="130"/>
      <point x="433" y="150"/>
      <point x="416" y="161" type="curve" smooth="yes"/>
      <point x="360.249" y="199.449"/>
      <point x="297.099" y="223"/>
      <point x="208" y="223" type="curve" smooth="yes"/>
      <point x="182" y="223"/>
      <point x="159" y="221"/>
      <point x="138" y="216" type="curve"/>
      <point x="127" y="215"/>
      <point x="112" y="211"/>
    </contour>
    <contour>
      <point x="115" y="157" type="curve"/>
      <point x="143" y="170"/>
      <point x="159" y="174"/>
      <point x="200" y="174" type="curve" smooth="yes"/>
      <point x="260" y="174"/>
      <point x="324" y="159"/>
      <point x="372" y="130" type="curve" smooth="yes"/>
      <point x="389.264" y="117.669"/>
      <point x="420.677" y="92.0973"/>
      <point x="447" y="74" type="curve"/>
      <point x="411" y="49"/>
      <point x="374" y="37"/>
      <point x="326" y="37" type="curve" smooth="yes"/>
      <point x="230.158" y="37"/>
      <point x="148.411" y="91.9372"/>
    </contour>
    <contour>
      <point x="609" y="37" type="line"/>
      <point x="568.237" y="37"/>
      <point x="552.36" y="46.8881"/>
      <point x="528" y="68" type="curve"/>
      <point x="589" y="124"/>
      <point x="620" y="195"/>
      <point x="620" y="268" type="curve" smooth="yes"/>
      <point x="620" y="349"/>
      <point x="592" y="418"/>
      <point x="535" y="473" type="curve" smooth="yes"/>
      <point x="479" y="528"/>
      <point x="409" y="556"/>
      <point x="324" y="556" type="curve" smooth="yes"/>
      <point x="236" y="556"/>
      <point x="164" y="526"/>
      <point x="108" y="467" type="curve" smooth="yes"/>
      <point x="55" y="412"/>
      <point x="29" y="346"/>
      <point x="29" y="270" type="curve" smooth="yes"/>
      <point x="29" y="192"/>
      <point x="58" y="126"/>
      <point x="115" y="71" type="curve" smooth="yes"/>
      <point x="172" y="17"/>
      <point x="242" y="-10"/>
      <point x="323" y="-10" type="curve" smooth="yes"/>
      <point x="382" y="-10"/>
      <point x="440" y="3"/>
      <point x="488" y="36" type="curve"/>
      <point x="527.4" y="2.51028"/>
      <point x="544.84" y="-10"/>
      <point x="609" y="-10" type="curve"/>
    </contour>
  </outline>
</glyph>
<glyph name="bracketleft" format="1">
  <advance width="190"/>
  <unicode hex="005B"/>
  <outline>
    <contour>
      <point x="45" y="-87" type="line" name="hr00"/>
      <point x="174" y="-87" type="line"/>
      <point x="174" y="-54" type="line"/>
      <point x="92" y="-54" type="line"/>
      <point x="92" y="564" type="line"/>
      <point x="174" y="564" type="line"/>
      <point x="174" y="595" type="line"/>
      <point x="45" y="595" type="line"/>
    </contour>
  </outline>
</glyph>
<glyph name="backslash" format="1">
  <advance width="190"/>
  <unicode hex="005C"/>
  <outline>
    <contour>
      <point x="188" y="-38" type="line" name="hr00"/>
      <point x="52" y="595" type="line"/>
      <point x="8" y="595" type="line"/>
      <point x="145" y="-38" type="line"/>
    </contour>
  </outline>
</glyph>
<glyph name="underscore" format="1">
  <advance width="431"/>
  <unicode hex="005F"/>
  <outline>
    <contour>
      <point x="436" y="-217" type="line" name="hr00"/>
      <point x="436" y="-169" type="line"/>
      <point x="0" y="-169" type="line"/>
      <point x="0" y="-217" type="line"/>
    </contour>
  </outline>
</glyph>
<glyph name="grave" format="1">
  <advance width="350"/>
  <unicode hex="0060"/>
  <outline>
    <contour>
      <point x="208" y="462" type="line" name="hr00"/>
      <point x="155" y="593" type="line"/>
      <point x="94" y="593" type="line"/>
      <point x="162" y="462" type="line"/>
    </contour>
  </outline>
</glyph>
<glyph name="b" format="1">
  <advance width="504"/>
  <unicode hex="0062"/>
  <outline>
    <contour>
      <point x="98" y="210" type="curve" smooth="yes"/>
      <point x="98" y="300.37"/>
      <point x="169.238" y="377"/>
      <point x="260" y="377" type="curve" smooth="yes"/>
      <point x="306" y="377"/>
      <point x="345" y="361"/>
      <point x="378" y="330" type="curve" smooth="yes"/>
      <point x="411" y="299"/>
      <point x="427" y="259"/>
      <point x="427" y="209" type="curve" name="hr00" smooth="yes"/>
      <point x="427" y="114.532"/>
      <point x="355.991" y="44"/>
      <point x="260" y="44" type="curve" smooth="yes"/>
      <point x="216" y="44"/>
      <point x="178" y="60"/>
      <point x="146" y="91" type="curve" smooth="yes"/>
      <point x="114" y="123"/>
      <point x="98" y="163"/>
    </contour>
    <contour>
      <point x="103" y="80" type="line"/>
      <point x="135.28" y="32.3491"/>
      <point x="186.611" y="-1"/>
      <point x="260" y="-1" type="curve" smooth="yes"/>
      <point x="324" y="-1"/>
      <point x="376" y="19"/>
      <point x="417" y="60" type="curve" smooth="yes"/>
      <point x="458" y="101"/>
      <point x="479" y="152"/>
      <point x="479" y="211" type="curve" smooth="yes"/>
      <point x="479" y="268"/>
      <point x="458" y="316"/>
      <point x="419" y="357" type="curve" smooth="yes"/>
      <point x="377" y="400"/>
      <point x="325" y="423"/>
      <point x="260" y="423" type="curve" smooth="yes"/>
      <point x="234" y="423"/>
      <point x="208" y="417"/>
      <point x="182" y="406" type="curve" smooth="yes"/>
      <point x="150" y="393"/>
      <point x="123" y="371"/>
      <point x="101" y="340" type="curve"/>
      <point x="101" y="556" type="line"/>
      <point x="50" y="556" type="line"/>
      <point x="50" y="8" type="line"/>
      <point x="101" y="8" type="line"/>
    </contour>
  </outline>
</glyph>
<glyph name="f" format="1">
  <advance width="231"/>
  <unicode hex="0066"/>
  <outline>
    <contour>
      <point x="126" y="406" type="line" smooth="yes"/>
      <point x="126" y="478.235"/>
      <point x="157.528" y="508"/>
      <point x="229" y="508" type="curve"/>
      <point x="229" y="555" type="line"/>
      <point x="165" y="555"/>
      <point x="121" y="536"/>
      <point x="96" y="499" type="curve" smooth="yes"/>
      <point x="82" y="478"/>
      <point x="75" y="445"/>
      <point x="75" y="402" type="curve"/>
      <point x="12" y="402" type="line"/>
      <point x="12" y="356" type="line"/>
      <point x="75" y="356" type="line"/>
      <point x="75" y="-2" type="line"/>
      <point x="126" y="-2" type="line" name="hr00"/>
      <point x="126" y="356" type="line"/>
      <point x="229" y="356" type="line"/>
      <point x="229" y="402" type="line"/>
      <point x="126" y="402" type="line"/>
    </contour>
  </outline>
</glyph>
<glyph name="g" format="1">
  <advance width="498"/>
  <unicode hex="0067"/>
  <outline>
    <contour>
      <point x="237" y="378" type="curve" smooth="yes"/>
      <point x="325.901" y="378"/>
      <point x="398" y="299.737"/>
      <point x="398" y="211" type="curve" smooth="yes"/>
      <point x="398" y="171"/>
      <point x="385" y="134"/>
      <point x="358" y="101" type="curve" smooth="yes"/>
      <point x="327" y="64"/>
      <point x="287" y="45"/>
      <point x="237" y="45" type="curve" smooth="yes"/>
      <point x="192" y="45"/>
      <point x="154" y="61"/>
      <point x="123" y="94" type="curve" smooth="yes"/>
      <point x="92" y="127"/>
      <point x="77" y="166"/>
      <point x="77" y="211" type="curve" name="hr00" smooth="yes"/>
      <point x="77" y="300.289"/>
      <point x="147.748" y="378"/>
    </contour>
    <contour>
      <point x="42" y="-2" type="line"/>
      <point x="66.9905" y="-87.9049"/>
      <point x="139.504" y="-151"/>
      <point x="250" y="-151" type="curve" smooth="yes"/>
      <point x="311" y="-151"/>
      <point x="377" y="-122"/>
      <point x="410" y="-77" type="curve" smooth="yes"/>
      <point x="427" y="-54"/>
      <point x="437" y="-28"/>
      <point x="442" y="1" type="curve" smooth="yes"/>
      <point x="445" y="16"/>
      <point x="447" y="40"/>
      <point x="447" y="71" type="curve" smooth="yes"/>
      <point x="447" y="414" type="line"/>
      <point x="396" y="414" type="line"/>
      <point x="394" y="339" type="line"/>
      <point x="361.903" y="390.966"/>
      <point x="313.483" y="424"/>
      <point x="237" y="424" type="curve" smooth="yes"/>
      <point x="182" y="424"/>
      <point x="135" y="403"/>
      <point x="93" y="363" type="curve" smooth="yes"/>
      <point x="49" y="321"/>
      <point x="26" y="270"/>
      <point x="26" y="209" type="curve" smooth="yes"/>
      <point x="26" y="147"/>
      <point x="48" y="96"/>
      <point x="93" y="56" type="curve" smooth="yes"/>
      <point x="134" y="19"/>
      <point x="182" y="0"/>
      <point x="237" y="0" type="curve" smooth="yes"/>
      <point x="316.423" y="0"/>
      <point x="365.19" y="32.4413"/>
      <point x="396" y="85" type="curve"/>
      <point x="396" y="47" type="line" smooth="yes"/>
      <point x="396" y="-44.0484"/>
      <point x="338.991" y="-105"/>
      <point x="249" y="-105" type="curve" smooth="yes"/>
      <point x="205" y="-105"/>
      <point x="169" y="-92"/>
      <point x="140" y="-67" type="curve" smooth="yes"/>
      <point x="121" y="-50"/>
      <point x="107" y="-28"/>
      <point x="96" y="-2" type="curve"/>
    </contour>
  </outline>
</glyph>
<glyph name="h" format="1">
  <advance width="452"/>
  <unicode hex="0068"/>
  <outline>
    <contour>
      <point x="401" y="221" type="line" smooth="yes"/>
      <point x="401" y="337.861"/>
      <point x="330.546" y="413"/>
      <point x="222" y="413" type="curve" smooth="yes"/>
      <point x="191" y="413"/>
      <point x="164" y="406"/>
      <point x="139" y="391" type="curve" smooth="yes"/>
      <point x="122" y="380"/>
      <point x="108" y="365"/>
      <point x="96" y="348" type="curve"/>
      <point x="96" y="546" type="line"/>
      <point x="45" y="546" type="line"/>
      <point x="45" y="-2" type="line"/>
      <point x="96" y="-2" type="line" name="hr00"/>
      <point x="96" y="224" type="line" smooth="yes"/>
      <point x="96" y="272"/>
      <point x="111" y="309"/>
      <point x="134" y="332" type="curve" smooth="yes"/>
      <point x="161" y="357"/>
      <point x="193" y="367"/>
      <point x="222" y="367" type="curve" smooth="yes"/>
      <point x="250" y="367"/>
      <point x="287" y="355"/>
      <point x="311" y="331" type="curve" smooth="yes"/>
      <point x="335" y="308"/>
      <point x="350" y="273"/>
      <point x="350" y="221" type="curve" smooth="yes"/>
      <point x="350" y="-2" type="line"/>
      <point x="401" y="-2" type="line"/>
    </contour>
  </outline>
</glyph>
<glyph name="j" format="1">
  <advance width="150"/>
  <unicode hex="006A"/>
  <outline>
    <contour>
      <point x="102" y="453" type="line" name="hr00"/>
      <point x="102" y="546" type="line"/>
      <point x="51" y="546" type="line"/>
      <point x="51" y="453" type="line"/>
    </contour>
    <contour>
      <point x="51" y="26" type="line" smooth="yes"/>
      <point x="51" y="-46.1136"/>
      <point x="34.5246" y="-94"/>
      <point x="-31" y="-94" type="curve"/>
      <point x="-31" y="-144" type="line"/>
      <point x="11.6291" y="-144"/>
      <point x="33.2846" y="-134.42"/>
      <point x="58" y="-113" type="curve" smooth="yes"/>
      <point x="96.8265" y="-77.8713"/>
      <point x="102" y="-47.4264"/>
      <point x="102" y="26" type="curve" smooth="yes"/>
      <point x="102" y="403" type="line"/>
      <point x="51" y="403" type="line"/>
    </contour>
  </outline>
</glyph>
<glyph name="l" format="1">
  <advance width="148"/>
  <unicode hex="006C"/>
  <outline>
    <contour>
      <point x="98" y="-1" type="line" name="hr00"/>
      <point x="98" y="546" type="line"/>
      <point x="47" y="546" type="line"/>
      <point x="47" y="-1" type="line"/>
    </contour>
  </outline>
</glyph>
<glyph name="n" format="1">
  <advance width="451"/>
  <unicode hex="006E"/>
  <outline>
    <contour>
      <point x="224" y="414" type="curve" smooth="yes"/>
      <point x="167.152" y="414"/>
      <point x="123.042" y="386.564"/>
      <point x="98" y="349" type="curve"/>
      <point x="98" y="403" type="line"/>
      <point x="47" y="403" type="line"/>
      <point x="47" y="-1" type="line"/>
      <point x="98" y="-1" type="line" name="hr00"/>
      <point x="98" y="225" type="line" smooth="yes"/>
      <point x="98" y="273"/>
      <point x="113" y="310"/>
      <point x="136" y="333" type="curve" smooth="yes"/>
      <point x="163" y="358"/>
      <point x="195" y="368"/>
      <point x="224" y="368" type="curve" smooth="yes"/>
      <point x="286" y="368"/>
      <point x="352" y="323"/>
      <point x="352" y="222" type="curve" smooth="yes"/>
      <point x="352" y="-1" type="line"/>
      <point x="403" y="-1" type="line"/>
      <point x="403" y="222" type="line" smooth="yes"/>
      <point x="403" y="338.193"/>
      <point x="331.518" y="414"/>
    </contour>
  </outline>
</glyph>
<glyph name="q" format="1">
  <advance width="504"/>
  <unicode hex="0071"/>
  <outline>
    <contour>
      <point x="244" y="44" type="curve" smooth="yes"/>
      <point x="147.158" y="44"/>
      <point x="77" y="113.471"/>
      <point x="77" y="209" type="curve" name="hr00" smooth="yes"/>
      <point x="77" y="259"/>
      <point x="93" y="299"/>
      <point x="125" y="330" type="curve" smooth="yes"/>
      <point x="158" y="361"/>
      <point x="197" y="377"/>
      <point x="244" y="377" type="curve" smooth="yes"/>
      <point x="333.405" y="377"/>
      <point x="406" y="299.281"/>
      <point x="406" y="210" type="curve" smooth="yes"/>
      <point x="406" y="118.762"/>
      <point x="335.459" y="44"/>
    </contour>
    <contour>
      <point x="244" y="-1" type="curve" smooth="yes"/>
      <point x="317.551" y="-1"/>
      <point x="370.453" y="31.9544"/>
      <point x="403" y="80" type="curve"/>
      <point x="403" y="-134" type="line"/>
      <point x="455" y="-134" type="line"/>
      <point x="455" y="413" type="line"/>
      <point x="403" y="413" type="line"/>
      <point x="402" y="340" type="line"/>
      <point x="370.088" y="389.463"/>
      <point x="319.103" y="423"/>
      <point x="244" y="423" type="curve" smooth="yes"/>
      <point x="179" y="423"/>
      <point x="128" y="400"/>
      <point x="86" y="357" type="curve" smooth="yes"/>
      <point x="47" y="316"/>
      <point x="26" y="268"/>
      <point x="26" y="211" type="curve" smooth="yes"/>
      <point x="26" y="152"/>
      <point x="46" y="102"/>
      <point x="87" y="61" type="curve" smooth="yes"/>
      <point x="128" y="20"/>
      <point x="181" y="-1"/>
    </contour>
  </outline>
</glyph>
<glyph name="r" format="1">
  <advance width="222"/>
  <unicode hex="0072"/>
  <outline>
    <contour>
      <point x="214" y="414" type="line"/>
      <point x="151.567" y="414"/>
      <point x="118.618" y="389.391"/>
      <point x="98" y="343" type="curve"/>
      <point x="98" y="403" type="line"/>
      <point x="47" y="403" type="line"/>
      <point x="47" y="-1" type="line"/>
      <point x="98" y="-1" type="line" name="hr00"/>
      <point x="98" y="236" type="line" smooth="yes"/>
      <point x="98" y="302.728"/>
      <point x="144.806" y="360"/>
      <point x="214" y="360" type="curve"/>
    </contour>
  </outline>
</glyph>
<glyph name="u" format="1">
  <advance width="450"/>
  <unicode hex="0075"/>
  <outline>
    <contour>
      <point x="348" y="413" type="line" name="hr00"/>
      <point x="348" y="199" type="line" smooth="yes"/>
      <point x="348" y="166"/>
      <point x="344" y="139"/>
      <point x="335" y="120" type="curve" smooth="yes"/>
      <point x="312" y="70"/>
      <point x="268" y="39"/>
      <point x="220" y="44" type="curve"/>
      <point x="175.975" y="44"/>
      <point x="148.499" y="59.251"/>
      <point x="124" y="82" type="curve"/>
      <point x="104" y="107"/>
      <point x="96" y="141"/>
      <point x="96" y="190" type="curve" smooth="yes"/>
      <point x="96" y="413" type="line"/>
      <point x="45" y="413" type="line"/>
      <point x="45" y="190" type="line" smooth="yes"/>
      <point x="45" y="112"/>
      <point x="70" y="48"/>
      <point x="127" y="20" type="curve" smooth="yes"/>
      <point x="154" y="7"/>
      <point x="185" y="-1"/>
      <point x="220" y="-1" type="curve" smooth="yes"/>
      <point x="253" y="-1"/>
      <point x="282" y="7"/>
      <point x="307" y="23" type="curve" smooth="yes"/>
      <point x="326" y="36"/>
      <point x="340" y="53"/>
      <point x="351" y="72" type="curve"/>
      <point x="351" y="8" type="line"/>
      <point x="399" y="8" type="line"/>
      <point x="399" y="413" type="line"/>
    </contour>
  </outline>
</glyph>
<glyph name="v" format="1">
  <advance width="410"/>
  <unicode hex="0076"/>
  <outline>
    <contour>
      <point x="230" y="-1" type="line" name="hr00"/>
      <point x="402" y="403" type="line"/>
      <point x="348" y="403" type="line"/>
      <point x="203" y="61" type="line"/>
      <point x="58" y="403" type="line"/>
      <point x="4" y="403" type="line"/>
      <point x="175" y="-1" type="line"/>
    </contour>
  </outline>
</glyph>
<glyph name="w" format="1">
  <advance width="614"/>
  <unicode hex="0077"/>
  <outline>
    <contour>
      <point x="219" y="-2" type="line" name="hr00"/>
      <point x="307" y="268" type="line"/>
      <point x="393" y="-2" type="line"/>
      <point x="452" y="-2" type="line"/>
      <point x="607" y="402" type="line"/>
      <point x="555" y="402" type="line"/>
      <point x="423" y="62" type="line"/>
      <point x="329" y="354" type="line"/>
      <point x="284" y="354" type="line"/>
      <point x="191" y="62" type="line"/>
      <point x="62" y="402" type="line"/>
      <point x="9" y="402" type="line"/>
      <point x="164" y="-2" type="line"/>
    </contour>
  </outline>
</glyph>
<glyph name="z" format="1">
  <advance width="313"/>
  <unicode hex="007A"/>
  <outline>
    <contour>
      <point x="304" y="-1" type="line" name="hr00"/>
      <point x="304" y="44" type="line"/>
      <point x="68" y="44" type="line"/>
      <point x="291" y="356" type="line"/>
      <point x="291" y="403" type="line"/>
      <point x="13" y="403" type="line"/>
      <point x="13" y="357" type="line"/>
      <point x="229" y="357" type="line"/>
      <point x="5" y="44" type="line"/>
      <point x="5" y="-1" type="line"/>
    </contour>
  </outline>
</glyph>
<glyph name="braceleft" format="1">
  <advance width="382"/>
  <unicode hex="007B"/>
  <outline>
    <contour>
      <point x="301" y="659" type="line"/>
      <point x="195.937" y="659"/>
      <point x="168" y="626.585"/>
      <point x="168" y="520" type="curve" smooth="yes"/>
      <point x="168" y="408" type="line" smooth="yes"/>
      <point x="168" y="308"/>
      <point x="147" y="271"/>
      <point x="83" y="255" type="curve"/>
      <point x="83" y="201" type="line"/>
      <point x="147" y="186"/>
      <point x="168" y="148"/>
      <point x="168" y="48" type="curve" smooth="yes"/>
      <point x="168" y="-63" type="line" smooth="yes"/>
      <point x="168" y="-170.7"/>
      <point x="194.965" y="-202"/>
      <point x="301" y="-202" type="curve"/>
      <point x="301" y="-166" type="line" name="hr00"/>
      <point x="229" y="-171"/>
      <point x="207" y="-144"/>
      <point x="207" y="-63" type="curve" smooth="yes"/>
      <point x="207" y="48" type="line" smooth="yes"/>
      <point x="207" y="158.1"/>
      <point x="190.662" y="200.324"/>
      <point x="120" y="232" type="curve"/>
      <point x="120" y="225" type="line"/>
      <point x="190.805" y="256.74"/>
      <point x="207" y="298.176"/>
      <point x="207" y="408" type="curve" smooth="yes"/>
      <point x="207" y="520" type="line" smooth="yes"/>
      <point x="207" y="600"/>
      <point x="229" y="627"/>
      <point x="301" y="622" type="curve"/>
    </contour>
  </outline>
</glyph>
<glyph name="bar" format="1">
  <advance width="431"/>
  <unicode hex="007C"/>
  <outline>
    <contour>
      <point x="241" y="-217" type="line" name="hr00"/>
      <point x="241" y="649" type="line"/>
      <point x="193" y="649" type="line"/>
      <point x="193" y="-217" type="line"/>
    </contour>
  </outline>
</glyph>
<glyph name="copyright" format="1">
  <advance width="717"/>
  <unicode hex="00A9"/>
  <outline>
    <contour>
      <point x="365" y="618" type="curve" name="hr00" smooth="yes"/>
      <point x="281" y="618"/>
      <point x="204" y="586"/>
      <point x="145" y="526" type="curve" smooth="yes"/>
      <point x="85" y="465"/>
      <point x="51" y="387"/>
      <point x="51" y="303" type="curve" smooth="yes"/>
      <point x="51" y="220"/>
      <point x="83" y="144"/>
      <point x="144" y="83" type="curve" smooth="yes"/>
      <point x="205" y="22"/>
      <point x="282" y="-11"/>
      <point x="365" y="-11" type="curve" smooth="yes"/>
      <point x="448" y="-11"/>
      <point x="526" y="22"/>
      <point x="588" y="84" type="curve" smooth="yes"/>
      <point x="648" y="144"/>
      <point x="680" y="218"/>
      <point x="680" y="303" type="curve" smooth="yes"/>
      <point x="680" y="388"/>
      <point x="648" y="466"/>
      <point x="588" y="525" type="curve" smooth="yes"/>
      <point x="527" y="585"/>
      <point x="449" y="618"/>
    </contour>
    <contour>
      <point x="635" y="303" type="curve" smooth="yes"/>
      <point x="635" y="230"/>
      <point x="608" y="164"/>
      <point x="558" y="114" type="curve" smooth="yes"/>
      <point x="506" y="62"/>
      <point x="437" y="33"/>
      <point x="365" y="33" type="curve" smooth="yes"/>
      <point x="293" y="33"/>
      <point x="226" y="61"/>
      <point x="174" y="113" type="curve" smooth="yes"/>
      <point x="122" y="165"/>
      <point x="95" y="231"/>
      <point x="95" y="303" type="curve" smooth="yes"/>
      <point x="95" y="375"/>
      <point x="122" y="444"/>
      <point x="175" y="497" type="curve" smooth="yes"/>
      <point x="224" y="547"/>
      <point x="292" y="574"/>
      <point x="365" y="574" type="curve" smooth="yes"/>
      <point x="438" y="574"/>
      <point x="507" y="547"/>
      <point x="558" y="495" type="curve" smooth="yes"/>
      <point x="608" y="444"/>
      <point x="635" y="378"/>
    </contour>
    <contour>
      <point x="368" y="502" type="curve" smooth="yes"/>
      <point x="260.46" y="502"/>
      <point x="197" y="416.821"/>
      <point x="197" y="306" type="curve" smooth="yes"/>
      <point x="197" y="183"/>
      <point x="261" y="106"/>
      <point x="364" y="106" type="curve" smooth="yes"/>
      <point x="447" y="106"/>
      <point x="510" y="154"/>
      <point x="517" y="237" type="curve"/>
      <point x="460" y="237" type="line"/>
      <point x="449" y="184"/>
      <point x="414" y="156"/>
      <point x="366" y="156" type="curve" smooth="yes"/>
      <point x="302" y="156"/>
      <point x="260" y="211"/>
      <point x="260" y="302" type="curve" smooth="yes"/>
      <point x="260" y="398"/>
      <point x="301" y="452"/>
      <point x="366" y="452" type="curve" smooth="yes"/>
      <point x="411" y="452"/>
      <point x="443" y="430"/>
      <point x="456" y="379" type="curve"/>
      <point x="513" y="379" type="line"/>
      <point x="504" y="458"/>
      <point x="447" y="502"/>
    </contour>
  </outline>
</glyph>
<glyph name="divide" format="1">
  <advance width="583"/>
  <unicode hex="00F7"/>
  <outline>
    <contour>
      <point x="292" y="416" type="curve" smooth="yes"/>
      <point x="259.782" y="416"/>
      <point x="232" y="388.755"/>
      <point x="232" y="355" type="curve" name="hr00" smooth="yes"/>
      <point x="232" y="324.328"/>
      <point x="260.874" y="300"/>
      <point x="292" y="300" type="curve" smooth="yes"/>
      <point x="309" y="300"/>
      <point x="323" y="307"/>
      <point x="334" y="320" type="curve"/>
      <point x="347" y="331"/>
      <point x="354" y="344"/>
      <point x="354" y="361" type="curve" smooth="yes"/>
      <point x="354" y="391.796"/>
      <point x="324.982" y="416"/>
    </contour>
    <contour>
      <point x="70" y="172" type="curve"/>
      <point x="518" y="172" type="line"/>
      <point x="518" y="243" type="line"/>
      <point x="70" y="243" type="line"/>
      <point x="70" y="219.333"/>
      <point x="70" y="195.667"/>
    </contour>
    <contour>
      <point x="292" y="114" type="curve" smooth="yes"/>
      <point x="259.241" y="114"/>
      <point x="232" y="86.7453"/>
      <point x="232" y="54" type="curve" smooth="yes"/>
      <point x="232" y="22.8126"/>
      <point x="260.314" y="-2"/>
      <point x="292" y="-2" type="curve" smooth="yes"/>
      <point x="324.917" y="-2"/>
      <point x="354" y="26.7754"/>
      <point x="354" y="59" type="curve" smooth="yes"/>
      <point x="354" y="89.7962"/>
      <point x="324.982" y="114"/>
    </contour>
  </outline>
</glyph>
<glyph name="anudattadeva" format="1">
  <advance width="0"/>
  <unicode hex="0952"/>
  <outline>
    <contour>
      <point x="-47" y="-336" type="line" name="hr00"/>
      <point x="-606" y="-336" type="line"/>
      <point x="-606" y="-392" type="line"/>
      <point x="-47" y="-392" type="line"/>
    </contour>
  </outline>
</glyph>
<glyph name="dbldanda-deva" format="1">
  <advance width="424"/>
  <unicode hex="0965"/>
  <outline>
    <contour>
      <point x="338" y="456" type="line" name="hr00"/>
      <point x="258" y="456" type="line"/>
      <point x="258" y="-23" type="line"/>
      <point x="338" y="-23" type="line"/>
    </contour>
    <contour>
      <point x="159" y="460" type="line"/>
      <point x="79" y="460" type="line"/>
      <point x="79" y="-21" type="line"/>
      <point x="159" y="-21" type="line"/>
    </contour>
  </outline>
</glyph>
<glyph name="uni0C02" format="1">
  <advance width="535"/>
  <unicode hex="0C02"/>
  <outline>
    <contour>
      <point x="73" y="215" type="curve" smooth="yes"/>
      <point x="73" y="310.925"/>
      <point x="151.272" y="386"/>
      <point x="247" y="386" type="curve" smooth="yes"/>
      <point x="355" y="386"/>
      <point x="431" y="317"/>
      <point x="431" y="208" type="curve" name="hr00" smooth="yes"/>
      <point x="431" y="107.569"/>
      <point x="354.9" y="37"/>
      <point x="252" y="37" type="curve" smooth="yes"/>
      <point x="203" y="37"/>
      <point x="160" y="55"/>
      <point x="125" y="90" type="curve" smooth="yes"/>
      <point x="90" y="126"/>
      <point x="73" y="168"/>
    </contour>
    <contour>
      <point x="481" y="207" type="curve" smooth="yes"/>
      <point x="481" y="337.4"/>
      <point x="378.474" y="436"/>
      <point x="246" y="436" type="curve" smooth="yes"/>
      <point x="185" y="436"/>
      <point x="132" y="415"/>
      <point x="88" y="373" type="curve" smooth="yes"/>
      <point x="44" y="331"/>
      <point x="22" y="278"/>
      <point x="22" y="215" type="curve" smooth="yes"/>
      <point x="22" y="152"/>
      <point x="44" y="99"/>
      <point x="88" y="54" type="curve" smooth="yes"/>
      <point x="133" y="9"/>
      <point x="187" y="-13"/>
      <point x="250" y="-13" type="curve" smooth="yes"/>
      <point x="318" y="-13"/>
      <point x="373" y="8"/>
      <point x="416" y="50" type="curve" smooth="yes"/>
      <point x="459" y="92"/>
      <point x="481" y="144"/>
    </contour>
  </outline>
</glyph>
<glyph name="uni0C1C" format="1">
  <advance width="608"/>
  <unicode hex="0C1C"/>
  <outline>
    <contour>
      <point x="5" y="110" type="curve" smooth="yes"/>
      <point x="5" y="38.5625"/>
      <point x="66.9803" y="-13"/>
      <point x="142" y="-13" type="curve" smooth="yes"/>
      <point x="184" y="-13"/>
      <point x="216" y="-7"/>
      <point x="238" y="6" type="curve"/>
      <point x="253" y="17"/>
      <point x="268" y="32"/>
      <point x="283" y="51" type="curve"/>
      <point x="295" y="16"/>
      <point x="345" y="-13"/>
      <point x="406" y="-13" type="curve" smooth="yes"/>
      <point x="497" y="-13"/>
      <point x="554" y="35"/>
      <point x="554" y="124" type="curve" name="hr00" smooth="yes"/>
      <point x="554" y="165"/>
      <point x="544" y="185"/>
      <point x="525" y="185" type="curve" smooth="yes"/>
      <point x="508" y="185"/>
      <point x="499" y="177"/>
      <point x="500" y="161" type="curve" smooth="yes"/>
      <point x="503" y="124" type="line" smooth="yes"/>
      <point x="508" y="65"/>
      <point x="471" y="36"/>
      <point x="408" y="36" type="curve" smooth="yes"/>
      <point x="347" y="36"/>
      <point x="311" y="60"/>
      <point x="311" y="124" type="curve" smooth="yes"/>
      <point x="311" y="149"/>
      <point x="302" y="161"/>
      <point x="283" y="161" type="curve" smooth="yes"/>
      <point x="265" y="161"/>
      <point x="256" y="150"/>
      <point x="256" y="129" type="curve" smooth="yes"/>
      <point x="256" y="72"/>
      <point x="219" y="32"/>
      <point x="152" y="32" type="curve" smooth="yes"/>
      <point x="100" y="32"/>
      <point x="59" y="62"/>
      <point x="59" y="113" type="curve" smooth="yes"/>
      <point x="59" y="164.274"/>
      <point x="73.5942" y="174.868"/>
      <point x="110" y="192" type="curve"/>
      <point x="214" y="221" type="line"/>
      <point x="235" y="230"/>
      <point x="259" y="247"/>
      <point x="268" y="263" type="curve"/>
      <point x="289" y="227"/>
      <point x="344" y="195"/>
      <point x="405" y="195" type="curve" smooth="yes"/>
      <point x="497" y="195"/>
      <point x="550" y="243"/>
      <point x="550" y="314" type="curve" smooth="yes"/>
      <point x="550" y="387"/>
      <point x="503" y="443"/>
      <point x="410" y="443" type="curve" smooth="yes"/>
      <point x="366" y="443"/>
      <point x="349" y="430"/>
      <point x="349" y="410" type="curve" smooth="yes"/>
      <point x="349" y="397"/>
      <point x="353" y="391"/>
      <point x="384" y="391" type="curve" smooth="yes"/>
      <point x="433" y="391" type="line" smooth="yes"/>
      <point x="474" y="391"/>
      <point x="503" y="364"/>
      <point x="503" y="321" type="curve" smooth="yes"/>
      <point x="503" y="270"/>
      <point x="474" y="243"/>
      <point x="406" y="243" type="curve" smooth="yes"/>
      <point x="339" y="243"/>
      <point x="312" y="265"/>
      <point x="281" y="345" type="curve" smooth="yes"/>
      <point x="258" y="406"/>
      <point x="222" y="432"/>
      <point x="150" y="432" type="curve" smooth="yes"/>
      <point x="59" y="432"/>
      <point x="6" y="378"/>
      <point x="6" y="294" type="curve" smooth="yes"/>
      <point x="6" y="277"/>
      <point x="16" y="268"/>
      <point x="37" y="268" type="curve" smooth="yes"/>
      <point x="52" y="268"/>
      <point x="59" y="280"/>
      <point x="59" y="305" type="curve" smooth="yes"/>
      <point x="59" y="356"/>
      <point x="82" y="390"/>
      <point x="149" y="390" type="curve" smooth="yes"/>
      <point x="197" y="390"/>
      <point x="237" y="365"/>
      <point x="237" y="314" type="curve" smooth="yes"/>
      <point x="237" y="288"/>
      <point x="215" y="268"/>
      <point x="171" y="256" type="curve" smooth="yes"/>
      <point x="106" y="238"/>
      <point x="71" y="229"/>
      <point x="65" y="225" type="curve" smooth="yes"/>
      <point x="25" y="200"/>
      <point x="5" y="161"/>
    </contour>
  </outline>
</glyph>
<glyph name="uni0C1F" format="1">
  <advance width="647"/>
  <unicode hex="0C1F"/>
  <outline>
    <contour>
      <point x="248" y="340" type="curve" name="hr00" smooth="yes"/>
      <point x="248" y="313"/>
      <point x="231" y="291"/>
      <point x="196" y="291" type="curve" smooth="yes"/>
      <point x="167" y="291"/>
      <point x="144" y="316"/>
      <point x="144" y="343" type="curve" smooth="yes"/>
      <point x="144" y="375"/>
      <point x="167" y="397"/>
      <point x="198" y="397" type="curve" smooth="yes"/>
      <point x="226" y="397"/>
      <point x="248" y="372"/>
    </contour>
    <contour>
      <point x="5" y="208" type="curve" smooth="yes"/>
      <point x="5" y="87.5237"/>
      <point x="62.0001" y="-11"/>
      <point x="179" y="-11" type="curve" smooth="yes"/>
      <point x="234" y="-11"/>
      <point x="264" y="3"/>
      <point x="300" y="47" type="curve"/>
      <point x="317" y="8"/>
      <point x="364" y="-13"/>
      <point x="416" y="-13" type="curve" smooth="yes"/>
      <point x="528" y="-13"/>
      <point x="594" y="66"/>
      <point x="594" y="213" type="curve" smooth="yes"/>
      <point x="594" y="292"/>
      <point x="571" y="352"/>
      <point x="527" y="394" type="curve" smooth="yes"/>
      <point x="495" y="424"/>
      <point x="460" y="440"/>
      <point x="420" y="440" type="curve" smooth="yes"/>
      <point x="395" y="440"/>
      <point x="382" y="430"/>
      <point x="382" y="411" type="curve" smooth="yes"/>
      <point x="382" y="399"/>
      <point x="393" y="384"/>
      <point x="408" y="384" type="curve" smooth="yes"/>
      <point x="495" y="384"/>
      <point x="542" y="327"/>
      <point x="542" y="224" type="curve" smooth="yes"/>
      <point x="542" y="99"/>
      <point x="500" y="37"/>
      <point x="416" y="37" type="curve" smooth="yes"/>
      <point x="361" y="37"/>
      <point x="325" y="80"/>
      <point x="325" y="128" type="curve" smooth="yes"/>
      <point x="325" y="148" type="line" smooth="yes"/>
      <point x="325" y="166"/>
      <point x="317" y="175"/>
      <point x="302" y="175" type="curve" smooth="yes"/>
      <point x="274" y="175"/>
      <point x="269" y="165"/>
      <point x="269" y="144" type="curve" smooth="yes"/>
      <point x="269" y="122" type="line" smooth="yes"/>
      <point x="269" y="79"/>
      <point x="234" y="40"/>
      <point x="182" y="40" type="curve" smooth="yes"/>
      <point x="101" y="40"/>
      <point x="56" y="119"/>
      <point x="56" y="223" type="curve" smooth="yes"/>
      <point x="56" y="276"/>
      <point x="80" y="324"/>
      <point x="100" y="353" type="curve"/>
      <point x="99" y="343"/>
      <point x="98" y="335"/>
      <point x="98" y="328" type="curve" smooth="yes"/>
      <point x="98" y="273"/>
      <point x="131" y="243"/>
      <point x="191" y="243" type="curve" smooth="yes"/>
      <point x="258" y="243"/>
      <point x="297" y="277"/>
      <point x="297" y="340" type="curve" smooth="yes"/>
      <point x="297" y="409"/>
      <point x="260" y="443"/>
      <point x="187" y="443" type="curve" smooth="yes"/>
      <point x="66.78" y="443"/>
      <point x="5" y="333.484"/>
    </contour>
    <contour>
      <point x="137" y="552" type="curve" smooth="yes"/>
      <point x="137" y="524.066"/>
      <point x="167.496" y="465.642"/>
      <point x="181" y="446" type="curve"/>
      <point x="190" y="446" type="line"/>
      <point x="220" y="501" type="line"/>
      <point x="230" y="526"/>
      <point x="235" y="542"/>
      <point x="235" y="549" type="curve" smooth="yes"/>
      <point x="235" y="573"/>
      <point x="214" y="599"/>
      <point x="189" y="599" type="curve" smooth="yes"/>
      <point x="157" y="599"/>
      <point x="137" y="577"/>
    </contour>
  </outline>
</glyph>
<glyph name="uni0C23" format="1">
  <advance width="664"/>
  <unicode hex="0C23"/>
  <outline>
    <contour>
      <point x="480" y="105" type="curve" name="hr00" smooth="yes"/>
      <point x="480" y="60"/>
      <point x="447" y="36"/>
      <point x="410" y="36" type="curve" smooth="yes"/>
      <point x="371" y="36"/>
      <point x="343" y="60"/>
      <point x="343" y="107" type="curve" smooth="yes"/>
      <point x="343" y="146"/>
      <point x="371" y="174"/>
      <point x="410" y="174" type="curve" smooth="yes"/>
      <point x="451" y="174"/>
      <point x="480" y="150"/>
    </contour>
    <contour>
      <point x="425" y="-15" type="curve" smooth="yes"/>
      <point x="542.996" y="-15"/>
      <point x="611" y="83.3622"/>
      <point x="611" y="206" type="curve" smooth="yes"/>
      <point x="611" y="354"/>
      <point x="537" y="436"/>
      <point x="430" y="436" type="curve" smooth="yes"/>
      <point x="367" y="436"/>
      <point x="320" y="406"/>
      <point x="297" y="359" type="curve"/>
      <point x="280" y="404"/>
      <point x="230" y="436"/>
      <point x="157" y="436" type="curve" smooth="yes"/>
      <point x="68" y="436"/>
      <point x="6" y="385"/>
      <point x="6" y="309" type="curve" smooth="yes"/>
      <point x="6" y="267"/>
      <point x="25" y="236"/>
      <point x="64" y="216" type="curve"/>
      <point x="24" y="184"/>
      <point x="5" y="161"/>
      <point x="5" y="110" type="curve" smooth="yes"/>
      <point x="5" y="35"/>
      <point x="56" y="-10"/>
      <point x="137" y="-10" type="curve" smooth="yes"/>
      <point x="168" y="-10"/>
      <point x="196" y="-2"/>
      <point x="221" y="14" type="curve" smooth="yes"/>
      <point x="247" y="30"/>
      <point x="260" y="44"/>
      <point x="260" y="55" type="curve" smooth="yes"/>
      <point x="260" y="76"/>
      <point x="250" y="87"/>
      <point x="231" y="87" type="curve"/>
      <point x="190" y="52" type="line"/>
      <point x="174" y="42"/>
      <point x="158" y="37"/>
      <point x="142" y="37" type="curve" smooth="yes"/>
      <point x="99" y="37"/>
      <point x="64" y="62"/>
      <point x="64" y="113" type="curve" smooth="yes"/>
      <point x="64" y="164"/>
      <point x="95" y="189"/>
      <point x="156" y="189" type="curve" smooth="yes"/>
      <point x="178" y="189"/>
      <point x="189" y="198"/>
      <point x="189" y="215" type="curve" smooth="yes"/>
      <point x="189" y="238"/>
      <point x="182" y="245"/>
      <point x="149" y="245" type="curve" smooth="yes"/>
      <point x="108" y="245"/>
      <point x="61" y="271"/>
      <point x="61" y="316" type="curve" smooth="yes"/>
      <point x="61" y="357"/>
      <point x="101" y="391"/>
      <point x="157" y="391" type="curve" smooth="yes"/>
      <point x="219.302" y="391"/>
      <point x="248.304" y="368.331"/>
      <point x="258" y="315" type="curve"/>
      <point x="263" y="299"/>
      <point x="275" y="279"/>
      <point x="291" y="279" type="curve" smooth="yes"/>
      <point x="308" y="279"/>
      <point x="319" y="283"/>
      <point x="325" y="291" type="curve"/>
      <point x="342.176" y="342.527"/>
      <point x="364.175" y="391"/>
      <point x="430" y="391" type="curve" smooth="yes"/>
      <point x="503" y="391"/>
      <point x="560" y="326"/>
      <point x="560" y="213" type="curve" smooth="yes"/>
      <point x="560" y="173.971"/>
      <point x="547.971" y="107.971"/>
      <point x="529" y="89" type="curve"/>
      <point x="530" y="97"/>
      <point x="531" y="104"/>
      <point x="531" y="109" type="curve" smooth="yes"/>
      <point x="531" y="176"/>
      <point x="488" y="224"/>
      <point x="425" y="224" type="curve" smooth="yes"/>
      <point x="338" y="224"/>
      <point x="292" y="172"/>
      <point x="292" y="103" type="curve" smooth="yes"/>
      <point x="292" y="34"/>
      <point x="341" y="-15"/>
    </contour>
  </outline>
</glyph>
<glyph name="uni0C25" format="1">
  <advance width="608"/>
  <unicode hex="0C25"/>
  <outline>
    <contour>
      <point x="313" y="198"/>
      <point x="328" y="214"/>
      <point x="328" y="245" type="curve" smooth="yes"/>
      <point x="328" y="270"/>
      <point x="309" y="291"/>
      <point x="282" y="291" type="curve" smooth="yes"/>
      <point x="255" y="291"/>
      <point x="235" y="270"/>
      <point x="235" y="245" type="curve" smooth="yes"/>
      <point x="235" y="218"/>
      <point x="255" y="198"/>
      <point x="282" y="198" type="curve" smooth="yes"/>
    </contour>
    <component base="uni0C26"/>
    <component base="drop" xOffset="179"/>
  </outline>
</glyph>
<glyph name="uni0C27" format="1">
  <advance width="608"/>
  <unicode hex="0C27"/>
  <outline>
    <contour>
      <point x="295" y="-82"/>
      <point x="310" y="-59"/>
      <point x="310" y="-36" type="curve" name="hr00" smooth="yes"/>
      <point x="310" y="-27.5267"/>
      <point x="277.123" y="52.7955"/>
      <point x="277" y="53" type="curve"/>
      <point x="274" y="45"/>
      <point x="265" y="27"/>
      <point x="250" y="0" type="curve" smooth="yes"/>
      <point x="240" y="-19"/>
      <point x="235" y="-31"/>
      <point x="235" y="-37" type="curve" smooth="yes"/>
      <point x="235" y="-61"/>
      <point x="247" y="-82"/>
      <point x="274" y="-82" type="curve" smooth="yes"/>
    </contour>
    <component base="uni0C26"/>
  </outline>
</glyph>
<glyph name="uni0C2C" format="1">
  <advance width="606"/>
  <unicode hex="0C2C"/>
  <outline>
    <contour>
      <point x="379" y="-15" type="curve" smooth="yes"/>
      <point x="487.146" y="-15"/>
      <point x="553" y="86.986"/>
      <point x="553" y="200" type="curve" name="hr00" smooth="yes"/>
      <point x="553" y="274"/>
      <point x="531" y="332"/>
      <point x="487" y="374" type="curve" smooth="yes"/>
      <point x="448" y="411"/>
      <point x="400" y="429"/>
      <point x="343" y="429" type="curve" smooth="yes"/>
      <point x="323" y="429"/>
      <point x="313" y="420"/>
      <point x="313" y="403" type="curve" smooth="yes"/>
      <point x="313" y="388"/>
      <point x="323" y="380"/>
      <point x="343" y="380" type="curve" smooth="yes"/>
      <point x="384" y="380"/>
      <point x="420" y="363"/>
      <point x="453" y="329" type="curve" smooth="yes"/>
      <point x="486" y="296"/>
      <point x="503" y="255"/>
      <point x="503" y="206" type="curve" smooth="yes"/>
      <point x="503" y="120.923"/>
      <point x="461.705" y="37"/>
      <point x="384" y="37" type="curve" smooth="yes"/>
      <point x="329" y="37"/>
      <point x="306" y="72"/>
      <point x="306" y="132" type="curve" smooth="yes"/>
      <point x="306" y="160"/>
      <point x="297" y="174"/>
      <point x="279" y="174" type="curve" smooth="yes"/>
      <point x="258" y="174"/>
      <point x="248" y="163"/>
      <point x="248" y="140" type="curve" smooth="yes"/>
      <point x="248" y="84"/>
      <point x="212" y="40"/>
      <point x="151" y="40" type="curve" smooth="yes"/>
      <point x="102" y="40"/>
      <point x="64" y="70"/>
      <point x="64" y="117" type="curve" smooth="yes"/>
      <point x="64" y="156"/>
      <point x="69" y="166"/>
      <point x="110" y="189" type="curve"/>
      <point x="205" y="218" type="line" smooth="yes"/>
      <point x="229" y="225"/>
      <point x="246" y="235"/>
      <point x="256" y="246" type="curve"/>
      <point x="274" y="261"/>
      <point x="283" y="282"/>
      <point x="283" y="309" type="curve" smooth="yes"/>
      <point x="283" y="388"/>
      <point x="229" y="434"/>
      <point x="156" y="434" type="curve" smooth="yes"/>
      <point x="67" y="434"/>
      <point x="15" y="386"/>
      <point x="15" y="305" type="curve" smooth="yes"/>
      <point x="15" y="288"/>
      <point x="24" y="279"/>
      <point x="41" y="279" type="curve" smooth="yes"/>
      <point x="54" y="279"/>
      <point x="62" y="284"/>
      <point x="67" y="294" type="curve"/>
      <point x="71" y="330"/>
      <point x="74" y="384"/>
      <point x="152" y="384" type="curve" smooth="yes"/>
      <point x="193" y="384"/>
      <point x="233" y="359"/>
      <point x="233" y="310" type="curve" smooth="yes"/>
      <point x="233" y="284"/>
      <point x="212" y="266"/>
      <point x="171" y="257" type="curve" smooth="yes"/>
      <point x="110" y="244"/>
      <point x="73" y="234"/>
      <point x="61" y="226" type="curve" smooth="yes"/>
      <point x="24" y="202"/>
      <point x="5" y="164"/>
      <point x="5" y="113" type="curve" smooth="yes"/>
      <point x="5" y="77"/>
      <point x="18" y="47"/>
      <point x="45" y="23" type="curve" smooth="yes"/>
      <point x="72" y="-1"/>
      <point x="102" y="-13"/>
      <point x="137" y="-13" type="curve" smooth="yes"/>
      <point x="208.029" y="-13"/>
      <point x="252.58" y="12.918"/>
      <point x="275" y="60" type="curve"/>
      <point x="286" y="23"/>
      <point x="326" y="-15"/>
    </contour>
  </outline>
</glyph>
<glyph name="uni0C31" format="1">
  <advance width="656"/>
  <unicode hex="0C31"/>
  <outline>
    <contour>
      <point x="283" y="334" type="curve" smooth="yes"/>
      <point x="283" y="400.793"/>
      <point x="242.129" y="443"/>
      <point x="177" y="443" type="curve" smooth="yes"/>
      <point x="66" y="443"/>
      <point x="5" y="353"/>
      <point x="5" y="221" type="curve" smooth="yes"/>
      <point x="5" y="74"/>
      <point x="72" y="-9"/>
      <point x="179" y="-9" type="curve" smooth="yes"/>
      <point x="234" y="-9"/>
      <point x="277" y="12"/>
      <point x="298" y="49" type="curve"/>
      <point x="311" y="14"/>
      <point x="363" y="-15"/>
      <point x="420" y="-15" type="curve" smooth="yes"/>
      <point x="470" y="-15"/>
      <point x="510" y="3"/>
      <point x="542" y="36" type="curve" smooth="yes"/>
      <point x="582" y="76"/>
      <point x="603" y="133"/>
      <point x="603" y="211" type="curve" name="hr00" smooth="yes"/>
      <point x="603" y="363"/>
      <point x="539" y="440"/>
      <point x="446" y="440" type="curve" smooth="yes"/>
      <point x="371" y="440"/>
      <point x="327" y="385"/>
      <point x="327" y="309" type="curve" smooth="yes"/>
      <point x="327" y="264.911"/>
      <point x="348.93" y="242.447"/>
      <point x="373" y="214" type="curve"/>
      <point x="182" y="214" type="line" smooth="yes"/>
      <point x="162" y="214"/>
      <point x="152" y="206"/>
      <point x="152" y="190" type="curve" smooth="yes"/>
      <point x="152" y="172"/>
      <point x="163" y="163"/>
      <point x="184" y="163" type="curve" smooth="yes"/>
      <point x="459" y="163" type="line" smooth="yes"/>
      <point x="476" y="163"/>
      <point x="489" y="173"/>
      <point x="489" y="198" type="curve" smooth="yes"/>
      <point x="489" y="215"/>
      <point x="478" y="225"/>
      <point x="457" y="228" type="curve" smooth="yes"/>
      <point x="417.359" y="233.663"/>
      <point x="380" y="271.455"/>
      <point x="380" y="316" type="curve" smooth="yes"/>
      <point x="380" y="355"/>
      <point x="410" y="386"/>
      <point x="443" y="386" type="curve" smooth="yes"/>
      <point x="499" y="386"/>
      <point x="552" y="329"/>
      <point x="552" y="226" type="curve" smooth="yes"/>
      <point x="552" y="106"/>
      <point x="504" y="40"/>
      <point x="428" y="40" type="curve" smooth="yes"/>
      <point x="373.656" y="40"/>
      <point x="329" y="71.972"/>
      <point x="329" y="128" type="curve" smooth="yes"/>
      <point x="329" y="151"/>
      <point x="323" y="159"/>
      <point x="295" y="159" type="curve" smooth="yes"/>
      <point x="278" y="159"/>
      <point x="269" y="147"/>
      <point x="269" y="122" type="curve" smooth="yes"/>
      <point x="269" y="78"/>
      <point x="235" y="40"/>
      <point x="182" y="40" type="curve" smooth="yes"/>
      <point x="98.241" y="40"/>
      <point x="56" y="133.123"/>
      <point x="56" y="223" type="curve" smooth="yes"/>
      <point x="56" y="271"/>
      <point x="73" y="321"/>
      <point x="80" y="333" type="curve"/>
      <point x="81" y="338"/>
      <point x="81" y="337"/>
      <point x="81" y="329" type="curve" smooth="yes"/>
      <point x="81" y="301"/>
      <point x="91" y="279"/>
      <point x="112" y="262" type="curve" smooth="yes"/>
      <point x="133" y="246"/>
      <point x="154" y="238"/>
      <point x="177" y="238" type="curve" smooth="yes"/>
      <point x="241" y="238"/>
      <point x="283" y="279"/>
    </contour>
    <contour>
      <point x="241" y="340" type="curve" smooth="yes"/>
      <point x="241" y="307"/>
      <point x="215" y="286"/>
      <point x="182" y="286" type="curve" smooth="yes"/>
      <point x="149" y="286"/>
      <point x="125" y="308"/>
      <point x="125" y="341" type="curve" smooth="yes"/>
      <point x="125" y="372"/>
      <point x="153" y="398"/>
      <point x="182" y="398" type="curve" smooth="yes"/>
      <point x="210" y="398"/>
      <point x="241" y="376"/>
    </contour>
  </outline>
</glyph>
<glyph name="uni0C4A" format="1">
  <advance width="579"/>
  <unicode hex="0C4A"/>
  <outline>
    <contour>
      <point x="496" y="345" type="curve" smooth="yes"/>
      <point x="496" y="307.708"/>
      <point x="470.365" y="277"/>
      <point x="432" y="277" type="curve" name="hr00" smooth="yes"/>
      <point x="417" y="277"/>
      <point x="403" y="283"/>
      <point x="391" y="294" type="curve"/>
      <point x="381" y="305"/>
      <point x="376" y="320"/>
      <point x="376" y="337" type="curve" smooth="yes"/>
      <point x="376" y="375.042"/>
      <point x="396.973" y="401"/>
      <point x="434" y="401" type="curve" smooth="yes"/>
      <point x="465.318" y="401"/>
      <point x="484.352" y="383.07"/>
      <point x="495" y="360" type="curve" smooth="yes"/>
      <point x="496" y="357"/>
      <point x="496" y="352"/>
    </contour>
    <contour>
      <point x="427" y="447" type="curve" smooth="yes"/>
      <point x="372.901" y="447"/>
      <point x="327" y="391.499"/>
      <point x="327" y="334" type="curve" smooth="yes"/>
      <point x="327" y="275.892"/>
      <point x="372.376" y="231"/>
      <point x="432" y="231" type="curve" smooth="yes"/>
      <point x="513.781" y="231"/>
      <point x="552" y="289.275"/>
      <point x="552" y="374" type="curve" smooth="yes"/>
      <point x="552" y="464.167"/>
      <point x="495.432" y="531"/>
      <point x="407" y="531" type="curve" smooth="yes"/>
      <point x="382" y="531"/>
      <point x="360" y="529"/>
      <point x="340" y="521" type="curve" smooth="yes"/>
      <point x="319" y="513"/>
      <point x="304" y="500"/>
      <point x="293" y="486" type="curve"/>
      <point x="276" y="529"/>
      <point x="248" y="563"/>
      <point x="206" y="583" type="curve" smooth="yes"/>
      <point x="168" y="601"/>
      <point x="119" y="609"/>
      <point x="62" y="609" type="curve" smooth="yes"/>
      <point x="-1" y="609"/>
      <point x="-55" y="599"/>
      <point x="-100" y="577" type="curve" smooth="yes"/>
      <point x="-145" y="555"/>
      <point x="-168" y="527"/>
      <point x="-168" y="495" type="curve" smooth="yes"/>
      <point x="-168" y="432.491"/>
      <point x="-67.5523" y="401"/>
      <point x="4" y="401" type="curve" smooth="yes"/>
      <point x="33" y="401" type="line" smooth="yes"/>
      <point x="44.5259" y="401"/>
      <point x="56" y="413.826"/>
      <point x="56" y="424" type="curve" smooth="yes"/>
      <point x="56" y="435.766"/>
      <point x="42.9216" y="447"/>
      <point x="31" y="447" type="curve" smooth="yes"/>
      <point x="7" y="447" type="line" smooth="yes"/>
      <point x="-31" y="447"/>
      <point x="-62" y="453"/>
      <point x="-86" y="462" type="curve" smooth="yes"/>
      <point x="-111" y="472"/>
      <point x="-124" y="482"/>
      <point x="-124" y="495" type="curve" smooth="yes"/>
      <point x="-124" y="516"/>
      <point x="-106" y="533"/>
      <point x="-70" y="547" type="curve" smooth="yes"/>
      <point x="-34" y="562"/>
      <point x="10" y="570"/>
      <point x="63" y="570" type="curve" smooth="yes"/>
      <point x="132" y="570"/>
      <point x="184" y="554"/>
      <point x="219" y="521" type="curve" smooth="yes"/>
      <point x="245" y="495"/>
      <point x="258" y="464"/>
      <point x="258" y="428" type="curve" smooth="yes"/>
      <point x="258" y="413.526"/>
      <point x="267.6" y="401"/>
      <point x="281" y="401" type="curve" smooth="yes"/>
      <point x="286" y="401"/>
      <point x="292" y="403"/>
      <point x="298" y="407" type="curve"/>
      <point x="304" y="413"/>
      <point x="309" y="419"/>
      <point x="312" y="426" type="curve" smooth="yes"/>
      <point x="327.458" y="463.542"/>
      <point x="360.912" y="483"/>
      <point x="411" y="483" type="curve" smooth="yes"/>
      <point x="432" y="483"/>
      <point x="452" y="476"/>
      <point x="470" y="462" type="curve"/>
      <point x="485" y="447"/>
      <point x="495" y="431"/>
      <point x="500" y="414" type="curve"/>
      <point x="484.981" y="433.31"/>
      <point x="461.359" y="447"/>
    </contour>
  </outline>
</glyph>
<glyph name="uni0C4C" format="1">
  <advance width="473"/>
  <unicode hex="0C4C"/>
  <outline>
    <contour>
      <point x="402" y="480" type="curve" smooth="yes"/>
      <point x="402" y="441.634"/>
      <point x="380.358" y="425"/>
      <point x="341" y="425" type="curve" name="hr00" smooth="yes"/>
      <point x="308.185" y="425"/>
      <point x="286" y="445.551"/>
      <point x="286" y="479" type="curve" smooth="yes"/>
      <point x="286" y="507.018"/>
      <point x="298.803" y="526.984"/>
      <point x="319" y="538" type="curve"/>
      <point x="344" y="538" type="line" smooth="yes"/>
      <point x="363" y="538"/>
      <point x="378" y="532"/>
      <point x="389" y="521" type="curve"/>
      <point x="398" y="509"/>
      <point x="402" y="495"/>
    </contour>
    <contour>
      <point x="263" y="538" type="line"/>
      <point x="246.158" y="523.263"/>
      <point x="241" y="508.843"/>
      <point x="241" y="477" type="curve" smooth="yes"/>
      <point x="241" y="420.363"/>
      <point x="285.448" y="377"/>
      <point x="342" y="377" type="curve" smooth="yes"/>
      <point x="398.729" y="377"/>
      <point x="445" y="427.296"/>
      <point x="445" y="483" type="curve" smooth="yes"/>
      <point x="445" y="543.521"/>
      <point x="398.974" y="583"/>
      <point x="337" y="583" type="curve" smooth="yes"/>
      <point x="-166" y="583" type="line" smooth="yes"/>
      <point x="-177.765" y="583"/>
      <point x="-189" y="572.846"/>
      <point x="-189" y="562" type="curve" smooth="yes"/>
      <point x="-189" y="546.981"/>
      <point x="-182.801" y="538"/>
      <point x="-169" y="538" type="curve" smooth="yes"/>
      <point x="64" y="538" type="line" smooth="yes"/>
      <point x="88.2701" y="538"/>
      <point x="108" y="519.351"/>
      <point x="108" y="494" type="curve" smooth="yes"/>
      <point x="108" y="482"/>
      <point x="104" y="471"/>
      <point x="95" y="461" type="curve"/>
      <point x="84" y="452"/>
      <point x="72" y="448"/>
      <point x="58" y="448" type="curve" smooth="yes"/>
      <point x="-79" y="448" type="line" smooth="yes"/>
      <point x="-91.3318" y="448"/>
      <point x="-100" y="438.848"/>
      <point x="-100" y="425" type="curve" smooth="yes"/>
      <point x="-100" y="410.872"/>
      <point x="-92.305" y="402"/>
      <point x="-79" y="402" type="curve" smooth="yes"/>
      <point x="58" y="402" type="line" smooth="yes"/>
      <point x="107.077" y="402"/>
      <point x="152" y="444.769"/>
      <point x="152" y="494" type="curve" smooth="yes"/>
      <point x="152" y="520.159"/>
      <point x="149.491" y="521.697"/>
      <point x="135" y="538" type="curve"/>
    </contour>
  </outline>
</glyph>
<glyph name="uni0C55" format="1">
  <advance width="175"/>
  <unicode hex="0C55"/>
  <outline>
    <contour>
      <point x="43" y="632"/>
      <point x="67" y="659"/>
      <point x="102" y="659" type="curve" smooth="yes"/>
      <point x="139" y="659"/>
      <point x="159" y="644"/>
      <point x="157" y="614" type="curve" smooth="yes"/>
      <point x="155" y="588" type="line" smooth="yes"/>
      <point x="154" y="575"/>
      <point x="168" y="565"/>
      <point x="183" y="565" type="curve" smooth="yes"/>
      <point x="202" y="565"/>
      <point x="211" y="578"/>
      <point x="211" y="603" type="curve" smooth="yes"/>
      <point x="211" y="659"/>
      <point x="172" y="711"/>
      <point x="103" y="711" type="curve" smooth="yes"/>
      <point x="47" y="711"/>
      <point x="-9" y="660"/>
      <point x="-9" y="603" type="curve" smooth="yes"/>
      <point x="-9" y="564"/>
      <point x="5" y="540"/>
      <point x="25" y="517" type="curve"/>
      <point x="80" y="516" type="line"/>
      <point x="64" y="530"/>
      <point x="43" y="571"/>
      <point x="43" y="599" type="curve"/>
    </contour>
  </outline>
</glyph>
<glyph name="uni0C69" format="1">
  <advance width="550"/>
  <unicode hex="0C69"/>
  <outline>
    <contour>
      <point x="84" y="136" type="curve"/>
      <point x="84" y="44.3892"/>
      <point x="189.598" y="-16"/>
      <point x="281" y="-16" type="curve" smooth="yes"/>
      <point x="417" y="-16"/>
      <point x="491" y="39"/>
      <point x="491" y="136" type="curve" smooth="yes"/>
      <point x="491" y="159"/>
      <point x="482" y="182"/>
      <point x="465" y="205" type="curve" smooth="yes"/>
      <point x="448" y="229"/>
      <point x="435" y="243"/>
      <point x="426" y="247" type="curve"/>
      <point x="433" y="250"/>
      <point x="446" y="261"/>
      <point x="464" y="282" type="curve" smooth="yes"/>
      <point x="482" y="303"/>
      <point x="491" y="325"/>
      <point x="491" y="349" type="curve" smooth="yes"/>
      <point x="491" y="385"/>
      <point x="472" y="417"/>
      <point x="430" y="443" type="curve" smooth="yes"/>
      <point x="392" y="467"/>
      <point x="345" y="478"/>
      <point x="290" y="478" type="curve" smooth="yes"/>
      <point x="194.017" y="478"/>
      <point x="92.9104" y="434.421"/>
      <point x="84" y="352" type="curve" smooth="yes"/>
      <point x="83" y="340"/>
      <point x="96" y="321"/>
      <point x="113" y="321" type="curve" smooth="yes"/>
      <point x="126.717" y="321"/>
      <point x="143" y="334.837"/>
      <point x="143" y="349" type="curve"/>
      <point x="150.317" y="405.099"/>
      <point x="226.281" y="429"/>
      <point x="290" y="429" type="curve" smooth="yes"/>
      <point x="331" y="429"/>
      <point x="366" y="421"/>
      <point x="394" y="404" type="curve" smooth="yes"/>
      <point x="422" y="387"/>
      <point x="436" y="369"/>
      <point x="436" y="349" type="curve" smooth="yes"/>
      <point x="436" y="296.079"/>
      <point x="380.41" y="275"/>
      <point x="322" y="275" type="curve" smooth="yes"/>
      <point x="222" y="275" type="line"/>
      <point x="209" y="271" type="line"/>
      <point x="202" y="266"/>
      <point x="198" y="260"/>
      <point x="198" y="252" type="curve" smooth="yes"/>
      <point x="198" y="236.922"/>
      <point x="205.256" y="225"/>
      <point x="222" y="225" type="curve" smooth="yes"/>
      <point x="322" y="225" type="line" smooth="yes"/>
      <point x="389" y="225"/>
      <point x="436" y="187"/>
      <point x="436" y="136" type="curve" smooth="yes"/>
      <point x="436" y="66.3876"/>
      <point x="363.2" y="36"/>
      <point x="290" y="36" type="curve" smooth="yes"/>
      <point x="220.57" y="36"/>
      <point x="142" y="69.7076"/>
      <point x="142" y="138" type="curve" smooth="yes"/>
      <point x="142" y="152.2"/>
      <point x="126.906" y="164"/>
      <point x="113" y="164" type="curve" smooth="yes"/>
      <point x="96" y="164"/>
      <point x="83" y="147"/>
    </contour>
  </outline>
</glyph>
<glyph name="uni0C6A" format="1">
  <advance width="550"/>
  <unicode hex="0C6A"/>
  <outline>
    <contour>
      <point x="396" y="111" type="curve" smooth="yes"/>
      <point x="396" y="57.3223"/>
      <point x="337.155" y="33"/>
      <point x="280" y="33" type="curve" smooth="yes"/>
      <point x="237.786" y="33"/>
      <point x="186" y="65.0906"/>
      <point x="186" y="107" type="curve" smooth="yes"/>
      <point x="186" y="124"/>
      <point x="196" y="141"/>
      <point x="215" y="160" type="curve" smooth="yes"/>
      <point x="236" y="180"/>
      <point x="258" y="191"/>
      <point x="289" y="200" type="curve"/>
      <point x="354" y="179"/>
      <point x="396" y="142"/>
    </contour>
    <contour>
      <point x="56" y="356" type="curve" smooth="yes"/>
      <point x="56" y="294.13"/>
      <point x="154.008" y="236.026"/>
      <point x="205" y="220" type="curve"/>
      <point x="190" y="211"/>
      <point x="173" y="195"/>
      <point x="156" y="173" type="curve" smooth="yes"/>
      <point x="139" y="151"/>
      <point x="131" y="129"/>
      <point x="131" y="107" type="curve" smooth="yes"/>
      <point x="131" y="72"/>
      <point x="147" y="42"/>
      <point x="178" y="18" type="curve" smooth="yes"/>
      <point x="209" y="-5"/>
      <point x="243" y="-16"/>
      <point x="280" y="-16" type="curve" smooth="yes"/>
      <point x="381" y="-16"/>
      <point x="450" y="39"/>
      <point x="450" y="111" type="curve" smooth="yes"/>
      <point x="450" y="131"/>
      <point x="441" y="152"/>
      <point x="422" y="174" type="curve" smooth="yes"/>
      <point x="403" y="196"/>
      <point x="387" y="211"/>
      <point x="372" y="220" type="curve"/>
      <point x="423.721" y="237.779"/>
      <point x="513" y="292.552"/>
      <point x="513" y="356" type="curve" smooth="yes"/>
      <point x="513" y="410.973"/>
      <point x="470.166" y="448.417"/>
      <point x="431" y="468" type="curve" smooth="yes"/>
      <point x="414" y="476"/>
      <point x="411" y="476"/>
      <point x="403" y="476" type="curve" smooth="yes"/>
      <point x="391" y="476"/>
      <point x="381" y="465"/>
      <point x="381" y="456" type="curve" smooth="yes"/>
      <point x="381" y="445"/>
      <point x="391" y="438"/>
      <point x="400" y="430" type="curve"/>
      <point x="420" y="417"/>
      <point x="434" y="405"/>
      <point x="443" y="395" type="curve"/>
      <point x="454" y="380"/>
      <point x="459" y="369"/>
      <point x="459" y="356" type="curve" smooth="yes"/>
      <point x="459" y="334"/>
      <point x="443" y="313"/>
      <point x="412" y="292" type="curve" smooth="yes"/>
      <point x="379" y="271"/>
      <point x="336" y="255"/>
      <point x="285" y="246" type="curve"/>
      <point x="234" y="259"/>
      <point x="192" y="276"/>
      <point x="159" y="297" type="curve" smooth="yes"/>
      <point x="127" y="318"/>
      <point x="111" y="338"/>
      <point x="111" y="356" type="curve" smooth="yes"/>
      <point x="111" y="368"/>
      <point x="117" y="381"/>
      <point x="128" y="395" type="curve" smooth="yes"/>
      <point x="137" y="407"/>
      <point x="151" y="419"/>
      <point x="171" y="432" type="curve"/>
      <point x="180" y="440"/>
      <point x="188" y="448"/>
      <point x="188" y="459" type="curve" smooth="yes"/>
      <point x="188" y="470"/>
      <point x="180" y="479"/>
      <point x="165" y="479" type="curve" smooth="yes"/>
      <point x="161" y="479"/>
      <point x="156" y="478"/>
      <point x="149" y="475" type="curve" smooth="yes"/>
      <point x="135" y="468" type="line" smooth="yes"/>
      <point x="95.0745" y="448.905"/>
      <point x="56" y="409.171"/>
    </contour>
  </outline>
</glyph>
<glyph name="uni0C79" format="1">
  <advance width="186"/>
  <unicode hex="0C79"/>
  <outline>
    <contour>
      <point x="78" y="536" type="line" name="hr00" smooth="yes"/>
      <point x="65" y="536"/>
      <point x="58" y="530"/>
      <point x="58" y="517" type="curve" smooth="yes"/>
      <point x="58" y="14" type="line" smooth="yes"/>
      <point x="58" y="1"/>
      <point x="65" y="-6"/>
      <point x="78" y="-6" type="curve" smooth="yes"/>
      <point x="88" y="-6" type="line" smooth="yes"/>
      <point x="101" y="-6"/>
      <point x="107" y="1"/>
      <point x="107" y="14" type="curve" smooth="yes"/>
      <point x="107" y="517" type="line" smooth="yes"/>
      <point x="107" y="530"/>
      <point x="101" y="536"/>
      <point x="88" y="536" type="curve" smooth="yes"/>
    </contour>
  </outline>
</glyph>
<glyph name="uni200D" format="1">
  <advance width="0"/>
  <unicode hex="200D"/>
  <outline>
    <contour>
      <point x="70" y="-393" type="line" name="hr00"/>
      <point x="70" y="801" type="line"/>
      <point x="247" y="801" type="line"/>
      <point x="247" y="864" type="line"/>
      <point x="0" y="864" type="line"/>
      <point x="0" y="-393" type="line"/>
    </contour>
  </outline>
</glyph>
<glyph name="emdash" format="1">
  <advance width="1329"/>
  <unicode hex="2014"/>
  <outline>
    <contour>
      <point x="3" y="178" type="line" name="hr00"/>
      <point x="1258" y="178" type="line"/>
      <point x="1258" y="254" type="line"/>
      <point x="3" y="254" type="line"/>
    </contour>
  </outline>
</glyph>
<glyph name="ellipsis" format="1">
  <advance width="958"/>
  <unicode hex="2026"/>
  <outline>
    <contour>
      <point x="739" y="-38" type="line" name="hr00"/>
      <point x="919" y="-38" type="line"/>
      <point x="919" y="28" type="line"/>
      <point x="739" y="28" type="line"/>
    </contour>
    <contour>
      <point x="386" y="-38" type="line"/>
      <point x="567" y="-38" type="line"/>
      <point x="567" y="28" type="line"/>
      <point x="386" y="28" type="line"/>
    </contour>
    <contour>
      <point x="19" y="-38" type="line"/>
      <point x="199" y="-38" type="line"/>
      <point x="199" y="28" type="line"/>
      <point x="19" y="28" type="line"/>
    </contour>
  </outline>
</glyph>
<glyph name="fahrenheit" format="1">
  <advance width="671"/>
  <unicode hex="2109"/>
  <outline>
    <contour>
      <point x="383" y="-1" type="line" name="hr00"/>
      <point x="383" y="249" type="line"/>
      <point x="597" y="249" type="line"/>
      <point x="597" y="298" type="line"/>
      <point x="383" y="298" type="line"/>
      <point x="383" y="498" type="line"/>
      <point x="606" y="498" type="line"/>
      <point x="606" y="546" type="line"/>
      <point x="329" y="546" type="line"/>
      <point x="329" y="-1" type="line"/>
    </contour>
    <contour>
      <point x="170" y="490" type="curve" smooth="yes"/>
      <point x="138" y="490"/>
      <point x="113" y="517"/>
      <point x="113" y="548" type="curve" smooth="yes"/>
      <point x="113" y="583"/>
      <point x="138" y="608"/>
      <point x="170" y="608" type="curve" smooth="yes"/>
      <point x="202" y="608"/>
      <point x="229" y="583"/>
      <point x="229" y="548" type="curve" smooth="yes"/>
      <point x="229" y="517"/>
      <point x="202" y="490"/>
    </contour>
    <contour>
      <point x="170" y="447" type="curve" smooth="yes"/>
      <point x="225.925" y="447"/>
      <point x="274" y="493.463"/>
      <point x="274" y="548" type="curve" smooth="yes"/>
      <point x="274" y="607"/>
      <point x="227" y="652"/>
      <point x="170" y="652" type="curve" smooth="yes"/>
      <point x="114" y="652"/>
      <point x="68" y="607"/>
      <point x="68" y="548" type="curve" smooth="yes"/>
      <point x="68" y="493.463"/>
      <point x="116.09" y="447"/>
    </contour>
  </outline>
</glyph>
<glyph name="arrowup" format="1">
  <advance width="416"/>
  <unicode hex="2191"/>
  <outline>
    <contour>
      <point x="29" y="422" type="curve"/>
      <point x="101.224" y="422"/>
      <point x="146.751" y="442.457"/>
      <point x="188" y="474" type="curve"/>
      <point x="188" y="-36" type="line" name="hr00"/>
      <point x="244" y="-36" type="line"/>
      <point x="244" y="472" type="line"/>
      <point x="274.001" y="441.999"/>
      <point x="342.058" y="422"/>
      <point x="404" y="422" type="curve"/>
      <point x="308.968" y="489.88"/>
      <point x="257.581" y="553.031"/>
      <point x="215" y="668" type="curve"/>
      <point x="176" y="560"/>
      <point x="124" y="491"/>
    </contour>
  </outline>
</glyph>
<glyph name="dottedcircle" format="1">
  <advance width="630"/>
  <unicode hex="25CC"/>
  <outline>
    <contour>
      <point x="432" y="24" type="curve" smooth="yes"/>
      <point x="413.104" y="24"/>
      <point x="396" y="6.88606"/>
      <point x="396" y="-12" type="curve" name="hr00" smooth="yes"/>
      <point x="396" y="-31.3846"/>
      <point x="412.588" y="-49"/>
      <point x="432" y="-49" type="curve" smooth="yes"/>
      <point x="451.42" y="-49"/>
      <point x="468" y="-31.3816"/>
      <point x="468" y="-12" type="curve" smooth="yes"/>
      <point x="468" y="6.89576"/>
      <point x="450.886" y="24"/>
    </contour>
    <contour>
      <point x="198" y="429" type="curve" smooth="yes"/>
      <point x="179.104" y="429"/>
      <point x="162" y="411.886"/>
      <point x="162" y="393" type="curve" smooth="yes"/>
      <point x="162" y="374.104"/>
      <point x="179.114" y="357"/>
      <point x="198" y="357" type="curve" smooth="yes"/>
      <point x="216.896" y="357"/>
      <point x="234" y="374.114"/>
      <point x="234" y="393" type="curve" smooth="yes"/>
      <point x="234" y="411.896"/>
      <point x="216.886" y="429"/>
    </contour>
    <contour>
      <point x="518" y="109" type="curve" smooth="yes"/>
      <point x="499.104" y="109"/>
      <point x="482" y="91.8861"/>
      <point x="482" y="73" type="curve" smooth="yes"/>
      <point x="482" y="54.1042"/>
      <point x="499.114" y="37"/>
      <point x="518" y="37" type="curve" smooth="yes"/>
      <point x="536.896" y="37"/>
      <point x="554" y="54.1139"/>
      <point x="554" y="73" type="curve" smooth="yes"/>
      <point x="554" y="91.8958"/>
      <point x="536.886" y="109"/>
    </contour>
    <contour>
      <point x="113" y="343" type="curve" smooth="yes"/>
      <point x="94.1042" y="343"/>
      <point x="77" y="325.886"/>
      <point x="77" y="307" type="curve" smooth="yes"/>
      <point x="77" y="288.104"/>
      <point x="94.1139" y="271"/>
      <point x="113" y="271" type="curve" smooth="yes"/>
      <point x="131.896" y="271"/>
      <point x="149" y="288.114"/>
      <point x="149" y="307" type="curve" smooth="yes"/>
      <point x="149" y="325.896"/>
      <point x="131.886" y="343"/>
    </contour>
    <contour>
      <point x="198" y="24" type="curve" smooth="yes"/>
      <point x="179.104" y="24"/>
      <point x="162" y="6.88606"/>
      <point x="162" y="-12" type="curve" smooth="yes"/>
      <point x="162" y="-31.3846"/>
      <point x="178.588" y="-49"/>
      <point x="198" y="-49" type="curve" smooth="yes"/>
      <point x="217.42" y="-49"/>
      <point x="234" y="-31.3816"/>
      <point x="234" y="-12" type="curve" smooth="yes"/>
      <point x="234" y="6.89576"/>
      <point x="216.886" y="24"/>
    </contour>
    <contour>
      <point x="432" y="429" type="curve" smooth="yes"/>
      <point x="413.104" y="429"/>
      <point x="396" y="411.886"/>
      <point x="396" y="393" type="curve" smooth="yes"/>
      <point x="396" y="374.104"/>
      <point x="413.114" y="357"/>
      <point x="432" y="357" type="curve" smooth="yes"/>
      <point x="450.896" y="357"/>
      <point x="468" y="374.114"/>
      <point x="468" y="393" type="curve" smooth="yes"/>
      <point x="468" y="411.896"/>
      <point x="450.886" y="429"/>
    </contour>
    <contour>
      <point x="518" y="343" type="curve" smooth="yes"/>
      <point x="499.104" y="343"/>
      <point x="482" y="325.886"/>
      <point x="482" y="307" type="curve" smooth="yes"/>
      <point x="482" y="288.104"/>
      <point x="499.114" y="271"/>
      <point x="518" y="271" type="curve" smooth="yes"/>
      <point x="536.896" y="271"/>
      <point x="554" y="288.114"/>
      <point x="554" y="307" type="curve" smooth="yes"/>
      <point x="554" y="325.896"/>
      <point x="536.886" y="343"/>
    </contour>
    <contour>
      <point x="113" y="109" type="curve" smooth="yes"/>
      <point x="94.1042" y="109"/>
      <point x="77" y="91.8861"/>
      <point x="77" y="73" type="curve" smooth="yes"/>
      <point x="77" y="54.1042"/>
      <point x="94.1139" y="37"/>
      <point x="113" y="37" type="curve" smooth="yes"/>
      <point x="131.896" y="37"/>
      <point x="149" y="54.1139"/>
      <point x="149" y="73" type="curve" smooth="yes"/>
      <point x="149" y="91.8958"/>
      <point x="131.886" y="109"/>
    </contour>
    <contour>
      <point x="549" y="226" type="curve" smooth="yes"/>
      <point x="530.104" y="226"/>
      <point x="513" y="208.886"/>
      <point x="513" y="190" type="curve" smooth="yes"/>
      <point x="513" y="171.104"/>
      <point x="530.114" y="154"/>
      <point x="549" y="154" type="curve" smooth="yes"/>
      <point x="567.896" y="154"/>
      <point x="585" y="171.114"/>
      <point x="585" y="190" type="curve" smooth="yes"/>
      <point x="585" y="208.896"/>
      <point x="567.886" y="226"/>
    </contour>
    <contour>
      <point x="81" y="226" type="curve" smooth="yes"/>
      <point x="62.1042" y="226"/>
      <point x="45" y="208.886"/>
      <point x="45" y="190" type="curve" smooth="yes"/>
      <point x="45" y="171.104"/>
      <point x="62.1139" y="154"/>
      <point x="81" y="154" type="curve" smooth="yes"/>
      <point x="99.8958" y="154"/>
      <point x="117" y="171.114"/>
      <point x="117" y="190" type="curve" smooth="yes"/>
      <point x="117" y="208.896"/>
      <point x="99.8861" y="226"/>
    </contour>
    <contour>
      <point x="315" y="-8" type="curve" smooth="yes"/>
      <point x="296.104" y="-8"/>
      <point x="279" y="-25.1139"/>
      <point x="279" y="-44" type="curve" smooth="yes"/>
      <point x="279" y="-62.8958"/>
      <point x="296.114" y="-80"/>
      <point x="315" y="-80" type="curve" smooth="yes"/>
      <point x="333.896" y="-80"/>
      <point x="351" y="-62.8861"/>
      <point x="351" y="-44" type="curve" smooth="yes"/>
      <point x="351" y="-25.1042"/>
      <point x="333.886" y="-8"/>
    </contour>
    <contour>
      <point x="315" y="460" type="curve" smooth="yes"/>
      <point x="296.104" y="460"/>
      <point x="279" y="442.886"/>
      <point x="279" y="424" type="curve" smooth="yes"/>
      <point x="279" y="405.104"/>
      <point x="296.114" y="388"/>
      <point x="315" y="388" type="curve" smooth="yes"/>
      <point x="333.896" y="388"/>
      <point x="351" y="405.114"/>
      <point x="351" y="424" type="curve" smooth="yes"/>
      <point x="351" y="442.896"/>
      <point x="333.886" y="460"/>
    </contour>
  </outline>
</glyph>
<glyph name="drop" format="1">
  <advance width="180"/>
  <outline>
    <contour>
      <point x="113" y="-87"/>
      <point x="127" y="-65"/>
      <point x="127" y="-41" type="curve" smooth="yes"/>
      <point x="127" y="-32"/>
      <point x="96" y="46"/>
      <point x="95" y="47" type="curve"/>
      <point x="68" y="-6" type="line" smooth="yes"/>
      <point x="59" y="-24"/>
      <point x="53" y="-36"/>
      <point x="53" y="-43" type="curve" smooth="yes"/>
      <point x="53" y="-67"/>
      <point x="67" y="-87"/>
      <point x="92" y="-87" type="curve" smooth="yes"/>
    </contour>
  </outline>
</glyph>
<glyph name="glyph1236" format="1">
  <advance width="199"/>
  <outline>
    <contour>
      <point x="39" y="-310" type="curve" smooth="yes"/>
      <point x="65.9412" y="-310"/>
      <point x="84" y="-327.507"/>
      <point x="84" y="-353" type="curve" name="hr00" smooth="yes"/>
      <point x="84" y="-374.488"/>
      <point x="66.4973" y="-393"/>
      <point x="43" y="-393" type="curve" smooth="yes"/>
      <point x="13.3271" y="-393"/>
      <point x="-5.30402" y="-377.683"/>
      <point x="-11" y="-353" type="curve"/>
      <point x="-4.35235" y="-326.409"/>
      <point x="9.1212" y="-310"/>
    </contour>
    <contour>
      <point x="80" y="-539" type="curve" smooth="yes"/>
      <point x="188.739" y="-539"/>
      <point x="239.91" y="-443.176"/>
      <point x="234" y="-323" type="curve"/>
      <point x="237" y="-265"/>
      <point x="226" y="-207"/>
      <point x="199" y="-149" type="curve" smooth="yes"/>
      <point x="171" y="-91"/>
      <point x="132" y="-37"/>
      <point x="82" y="12" type="curve"/>
      <point x="68.5119" y="12"/>
      <point x="57" y="0.255757"/>
      <point x="57" y="-13" type="curve" smooth="yes"/>
      <point x="57" y="-20"/>
      <point x="64" y="-30"/>
      <point x="79" y="-44" type="curve" smooth="yes"/>
      <point x="145.727" y="-110.727"/>
      <point x="195" y="-195.828"/>
      <point x="195" y="-319" type="curve" smooth="yes"/>
      <point x="195" y="-410.972"/>
      <point x="162.439" y="-495"/>
      <point x="78" y="-495" type="curve" smooth="yes"/>
      <point x="20.8586" y="-495"/>
      <point x="-26.5078" y="-452.623"/>
      <point x="-27" y="-395" type="curve"/>
      <point x="-22" y="-405"/>
      <point x="-13" y="-414"/>
      <point x="1" y="-423" type="curve"/>
      <point x="15" y="-430"/>
      <point x="30" y="-433"/>
      <point x="47" y="-433" type="curve" smooth="yes"/>
      <point x="93.7732" y="-433"/>
      <point x="127" y="-398.786"/>
      <point x="127" y="-354" type="curve" smooth="yes"/>
      <point x="127" y="-306.077"/>
      <point x="90.6965" y="-269"/>
      <point x="44" y="-269" type="curve" smooth="yes"/>
      <point x="-23.7541" y="-269"/>
      <point x="-67" y="-329.835"/>
      <point x="-67" y="-399" type="curve" smooth="yes"/>
      <point x="-67" y="-480.657"/>
      <point x="-2.73358" y="-539"/>
    </contour>
  </outline>
</glyph>
<glyph name="glyph1237" format="1">
  <advance width="0"/>
  <outline>
    <contour>
      <point x="-335" y="-416" type="curve" name="hr00" smooth="yes"/>
      <point x="-335" y="-449"/>
      <point x="-351" y="-466"/>
      <point x="-384" y="-466" type="curve" smooth="yes"/>
      <point x="-411" y="-466"/>
      <point x="-433" y="-445"/>
      <point x="-433" y="-421" type="curve" smooth="yes"/>
      <point x="-433" y="-385"/>
      <point x="-412" y="-368"/>
      <point x="-388" y="-368" type="curve" smooth="yes"/>
      <point x="-357" y="-368"/>
      <point x="-335" y="-388"/>
    </contour>
    <contour>
      <point x="-9" y="-488" type="curve" smooth="yes"/>
      <point x="-9" y="-473"/>
      <point x="-17" y="-466"/>
      <point x="-32" y="-466" type="curve" smooth="yes"/>
      <point x="-303" y="-466" type="line"/>
      <point x="-290" y="-443"/>
      <point x="-287" y="-437"/>
      <point x="-287" y="-410" type="curve" smooth="yes"/>
      <point x="-287" y="-366"/>
      <point x="-321" y="-325"/>
      <point x="-384" y="-325" type="curve" smooth="yes"/>
      <point x="-437" y="-325"/>
      <point x="-479" y="-362"/>
      <point x="-479" y="-415" type="curve" smooth="yes"/>
      <point x="-479" y="-471"/>
      <point x="-438" y="-510"/>
      <point x="-382" y="-510" type="curve" smooth="yes"/>
      <point x="-32" y="-510" type="line" smooth="yes"/>
      <point x="-17" y="-510"/>
      <point x="-9" y="-503"/>
    </contour>
  </outline>
</glyph>
<glyph name="glyph1238" format="1">
  <advance width="0"/>
  <outline>
    <contour>
      <point x="-438" y="-448" type="curve" smooth="yes"/>
      <point x="-396.75" y="-448"/>
      <point x="-366.999" y="-431.124"/>
      <point x="-352" y="-403" type="curve"/>
      <point x="-334.912" y="-431.48"/>
      <point x="-308.178" y="-448"/>
      <point x="-265" y="-448" type="curve" smooth="yes"/>
      <point x="-177.196" y="-448"/>
      <point x="-138" y="-374.711"/>
      <point x="-138" y="-280" type="curve" smooth="yes"/>
      <point x="-138" y="-190.134"/>
      <point x="-176.888" y="-120"/>
      <point x="-264" y="-120" type="curve" smooth="yes"/>
      <point x="-312.007" y="-120"/>
      <point x="-341" y="-149.274"/>
      <point x="-341" y="-199" type="curve" smooth="yes"/>
      <point x="-341" y="-241.304"/>
      <point x="-307.056" y="-270"/>
      <point x="-264" y="-270" type="curve" smooth="yes"/>
      <point x="-247" y="-270"/>
      <point x="-231" y="-264"/>
      <point x="-216" y="-251" type="curve" smooth="yes"/>
      <point x="-201" y="-239"/>
      <point x="-194" y="-223"/>
      <point x="-194" y="-202" type="curve" smooth="yes"/>
      <point x="-194" y="-198" type="line"/>
      <point x="-185.592" y="-212.013"/>
      <point x="-176" y="-253.968"/>
      <point x="-176" y="-279" type="curve" smooth="yes"/>
      <point x="-176" y="-342.701"/>
      <point x="-207.319" y="-410"/>
      <point x="-266" y="-410" type="curve" smooth="yes"/>
      <point x="-301.172" y="-410"/>
      <point x="-329" y="-389.305"/>
      <point x="-329" y="-356" type="curve" smooth="yes"/>
      <point x="-329" y="-348" type="line" smooth="yes"/>
      <point x="-329" y="-328.566"/>
      <point x="-333.803" y="-325"/>
      <point x="-356" y="-325" type="curve" smooth="yes"/>
      <point x="-368" y="-325"/>
      <point x="-374" y="-334"/>
      <point x="-374" y="-353" type="curve" smooth="yes"/>
      <point x="-374" y="-387.451"/>
      <point x="-400.454" y="-410"/>
      <point x="-436" y="-410" type="curve" smooth="yes"/>
      <point x="-496.808" y="-410"/>
      <point x="-528" y="-343.955"/>
      <point x="-528" y="-279" type="curve" smooth="yes"/>
      <point x="-528" y="-262"/>
      <point x="-525" y="-246"/>
      <point x="-520" y="-230" type="curve" smooth="yes"/>
      <point x="-512" y="-203" type="line" smooth="yes"/>
      <point x="-511" y="-197"/>
      <point x="-511" y="-197"/>
      <point x="-511" y="-202" type="curve" smooth="yes"/>
      <point x="-511" y="-240.24"/>
      <point x="-475.85" y="-270"/>
      <point x="-440" y="-270" type="curve" smooth="yes"/>
      <point x="-396.932" y="-270"/>
      <point x="-363" y="-241.31"/>
      <point x="-363" y="-199" type="curve" smooth="yes"/>
      <point x="-363" y="-150.403"/>
      <point x="-391.333" y="-120"/>
      <point x="-440" y="-120" type="curve" smooth="yes"/>
      <point x="-527.094" y="-120"/>
      <point x="-566" y="-190.163"/>
      <point x="-566" y="-280" type="curve" smooth="yes"/>
      <point x="-566" y="-374.238"/>
      <point x="-525.425" y="-448"/>
    </contour>
    <contour>
      <point x="-227" y="-194" type="curve" smooth="yes"/>
      <point x="-227" y="-216.474"/>
      <point x="-243.521" y="-233"/>
      <point x="-266" y="-233" type="curve" smooth="yes"/>
      <point x="-291.958" y="-233"/>
      <point x="-309" y="-219.365"/>
      <point x="-309" y="-194" type="curve" smooth="yes"/>
      <point x="-309" y="-170.475"/>
      <point x="-288.48" y="-153"/>
      <point x="-266" y="-153" type="curve" smooth="yes"/>
      <point x="-246.25" y="-153"/>
      <point x="-227" y="-172.774"/>
    </contour>
    <contour>
      <point x="-436" y="-153" type="curve" smooth="yes"/>
      <point x="-414.678" y="-153"/>
      <point x="-395" y="-170.538"/>
      <point x="-395" y="-194" type="curve" smooth="yes"/>
      <point x="-395" y="-218.369"/>
      <point x="-412.578" y="-233"/>
      <point x="-436" y="-233" type="curve" smooth="yes"/>
      <point x="-460.472" y="-233"/>
      <point x="-477" y="-217.511"/>
      <point x="-477" y="-194" type="curve" smooth="yes"/>
      <point x="-477" y="-172.746"/>
      <point x="-457.765" y="-153"/>
    </contour>
    <contour>
      <point x="-353" y="-402" type="line" smooth="yes"/>
      <point x="-353" y="-403"/>
      <point x="-353" y="-403"/>
      <point x="-352" y="-403" type="curve" smooth="yes"/>
    </contour>
  </outline>
</glyph>
<glyph name="glyph1239" format="1">
  <advance width="924"/>
  <outline>
    <contour>
      <point x="404" y="753"/>
      <point x="426" y="771"/>
      <point x="451" y="771" type="curve" smooth="yes"/>
      <point x="478.877" y="771"/>
      <point x="496" y="752.387"/>
      <point x="496" y="723" type="curve" smooth="yes"/>
      <point x="496" y="699.75"/>
      <point x="473.322" y="680"/>
      <point x="451" y="680" type="curve" smooth="yes"/>
      <point x="422.657" y="680"/>
      <point x="404" y="701.061"/>
      <point x="404" y="728" type="curve" smooth="yes"/>
    </contour>
    <contour>
      <point x="447" y="634" type="line" smooth="yes"/>
      <point x="499.933" y="634"/>
      <point x="544" y="675.417"/>
      <point x="544" y="729" type="curve" smooth="yes"/>
      <point x="544" y="780.766"/>
      <point x="502.608" y="820"/>
      <point x="451" y="820" type="curve" smooth="yes"/>
      <point x="392.526" y="820"/>
      <point x="352" y="786.401"/>
      <point x="352" y="733" type="curve" smooth="yes"/>
      <point x="352" y="712.992"/>
      <point x="359.516" y="692.968"/>
      <point x="366" y="680" type="curve"/>
      <point x="48" y="680" type="line" smooth="yes"/>
      <point x="31" y="680"/>
      <point x="22" y="672"/>
      <point x="22" y="657" type="curve" smooth="yes"/>
      <point x="22" y="642"/>
      <point x="30" y="634"/>
      <point x="45" y="634" type="curve" smooth="yes"/>
    </contour>
    <contour>
      <point x="477" y="537"/>
      <point x="498" y="515"/>
      <point x="498" y="487" type="curve" smooth="yes"/>
      <point x="498" y="460.174"/>
      <point x="471.51" y="434"/>
      <point x="444" y="434" type="curve" smooth="yes"/>
      <point x="390" y="434" type="line"/>
      <point x="365" y="436" type="line"/>
      <point x="275" y="436" type="line"/>
      <point x="266" y="434" type="line"/>
      <point x="231" y="434" type="line" smooth="yes"/>
      <point x="214" y="434"/>
      <point x="206" y="426"/>
      <point x="206" y="410" type="curve" smooth="yes"/>
      <point x="206" y="394"/>
      <point x="214" y="386"/>
      <point x="231" y="386" type="curve" smooth="yes"/>
      <point x="367" y="386" type="line" smooth="yes"/>
      <point x="404" y="386"/>
      <point x="439" y="373"/>
      <point x="472" y="348" type="curve" smooth="yes"/>
      <point x="519" y="311"/>
      <point x="543" y="254"/>
      <point x="543" y="176" type="curve" smooth="yes"/>
      <point x="543" y="102.845"/>
      <point x="511.712" y="37"/>
      <point x="443" y="37" type="curve" smooth="yes"/>
      <point x="388" y="37"/>
      <point x="360" y="65"/>
      <point x="360" y="122" type="curve" smooth="yes"/>
      <point x="360" y="155"/>
      <point x="355" y="171"/>
      <point x="344" y="171" type="curve" smooth="yes"/>
      <point x="314.882" y="171"/>
      <point x="311" y="160.203"/>
      <point x="311" y="129" type="curve" smooth="yes"/>
      <point x="311" y="71.5838"/>
      <point x="279.159" y="32"/>
      <point x="225" y="32" type="curve" smooth="yes"/>
      <point x="170.242" y="32"/>
      <point x="134" y="61.569"/>
      <point x="134" y="113" type="curve" smooth="yes"/>
      <point x="134" y="165.36"/>
      <point x="168.586" y="206"/>
      <point x="219" y="206" type="curve" smooth="yes"/>
      <point x="245" y="206"/>
      <point x="258" y="214"/>
      <point x="258" y="231" type="curve" smooth="yes"/>
      <point x="258" y="254"/>
      <point x="246" y="266"/>
      <point x="221" y="266" type="curve" smooth="yes"/>
      <point x="36" y="266" type="line" smooth="yes"/>
      <point x="19" y="266"/>
      <point x="11" y="256"/>
      <point x="11" y="237" type="curve" smooth="yes"/>
      <point x="11" y="224"/>
      <point x="19" y="217"/>
      <point x="35" y="217" type="curve" smooth="yes"/>
      <point x="129" y="217" type="line"/>
      <point x="106.138" y="198.295"/>
      <point x="83" y="156.619"/>
      <point x="83" y="115" type="curve" smooth="yes"/>
      <point x="83" y="72"/>
      <point x="98" y="39"/>
      <point x="129" y="15" type="curve" smooth="yes"/>
      <point x="154" y="-4"/>
      <point x="183" y="-13"/>
      <point x="216" y="-13" type="curve" smooth="yes"/>
      <point x="245" y="-13"/>
      <point x="267" y="-10"/>
      <point x="282" y="-5" type="curve"/>
      <point x="301" y="5"/>
      <point x="318" y="23"/>
      <point x="333" y="48" type="curve"/>
      <point x="347.857" y="11.9192"/>
      <point x="389.791" y="-13"/>
      <point x="442" y="-13" type="curve" smooth="yes"/>
      <point x="542.924" y="-13"/>
      <point x="593" y="80.0857"/>
      <point x="593" y="186" type="curve" smooth="yes"/>
      <point x="593" y="277"/>
      <point x="560" y="346"/>
      <point x="495" y="393" type="curve"/>
      <point x="522.4" y="403.96"/>
      <point x="545" y="436.848"/>
      <point x="545" y="474" type="curve" smooth="yes"/>
      <point x="545" y="490" type="line" smooth="yes"/>
      <point x="545" y="504.363"/>
      <point x="537.306" y="527.54"/>
      <point x="531" y="537" type="curve"/>
      <point x="666" y="537" type="line"/>
      <point x="646.515" y="517.515"/>
      <point x="644" y="501.489"/>
      <point x="644" y="461" type="curve" smooth="yes"/>
      <point x="644" y="399.35"/>
      <point x="694.351" y="357"/>
      <point x="759" y="357" type="curve" smooth="yes"/>
      <point x="827.66" y="357"/>
      <point x="871" y="402.845"/>
      <point x="871" y="474" type="curve" smooth="yes"/>
      <point x="871" y="542.899"/>
      <point x="822.024" y="585"/>
      <point x="752" y="585" type="curve" smooth="yes"/>
      <point x="141" y="585" type="line" smooth="yes"/>
      <point x="124" y="585"/>
      <point x="116" y="577"/>
      <point x="116" y="561" type="curve" smooth="yes"/>
      <point x="116" y="545"/>
      <point x="122" y="537"/>
      <point x="135" y="537" type="curve" smooth="yes"/>
      <point x="449" y="537" type="line" smooth="yes"/>
    </contour>
    <contour>
      <point x="693" y="511"/>
      <point x="722" y="541"/>
      <point x="760" y="541" type="curve" smooth="yes"/>
      <point x="796.801" y="541"/>
      <point x="826" y="510.008"/>
      <point x="826" y="471" type="curve" smooth="yes"/>
      <point x="826" y="433.382"/>
      <point x="792.154" y="403"/>
      <point x="756" y="403" type="curve" smooth="yes"/>
      <point x="720.355" y="403"/>
      <point x="693" y="434.049"/>
      <point x="693" y="471" type="curve" smooth="yes"/>
    </contour>
  </outline>
</glyph>
<glyph name="glyph1240" format="1">
  <advance width="903"/>
  <outline>
    <contour>
      <point x="451" y="702" type="curve" smooth="yes"/>
      <point x="478.877" y="702"/>
      <point x="496" y="683.387"/>
      <point x="496" y="654" type="curve" smooth="yes"/>
      <point x="496" y="630.75"/>
      <point x="473.322" y="611"/>
      <point x="451" y="611" type="curve" smooth="yes"/>
      <point x="422.657" y="611"/>
      <point x="404" y="632.061"/>
      <point x="404" y="659" type="curve" smooth="yes"/>
      <point x="404" y="684.37"/>
      <point x="425.635" y="702"/>
    </contour>
    <contour>
      <point x="447" y="566" type="line" smooth="yes"/>
      <point x="500.466" y="566"/>
      <point x="544" y="606.348"/>
      <point x="544" y="660" type="curve" smooth="yes"/>
      <point x="544" y="711.766"/>
      <point x="502.608" y="751"/>
      <point x="451" y="751" type="curve" smooth="yes"/>
      <point x="392.526" y="751"/>
      <point x="352" y="717.401"/>
      <point x="352" y="664" type="curve" smooth="yes"/>
      <point x="352" y="643.992"/>
      <point x="359.516" y="623.968"/>
      <point x="366" y="611" type="curve"/>
      <point x="48" y="611" type="line" smooth="yes"/>
      <point x="31" y="611"/>
      <point x="22" y="604"/>
      <point x="22" y="589" type="curve" smooth="yes"/>
      <point x="22" y="574"/>
      <point x="30" y="566"/>
      <point x="45" y="566" type="curve" smooth="yes"/>
    </contour>
    <contour>
      <point x="411" y="195" type="curve" smooth="yes"/>
      <point x="493.968" y="195"/>
      <point x="556" y="236.037"/>
      <point x="556" y="314" type="curve" smooth="yes"/>
      <point x="556" y="345"/>
      <point x="548" y="369"/>
      <point x="532" y="386" type="curve"/>
      <point x="632" y="386" type="line"/>
      <point x="615.59" y="361.385"/>
      <point x="612" y="353.628"/>
      <point x="612" y="316" type="curve" smooth="yes"/>
      <point x="612" y="260.333"/>
      <point x="667.912" y="210"/>
      <point x="726" y="210" type="curve" smooth="yes"/>
      <point x="788.534" y="210"/>
      <point x="839" y="258.843"/>
      <point x="839" y="322" type="curve" smooth="yes"/>
      <point x="839" y="387.614"/>
      <point x="789.642" y="436"/>
      <point x="724" y="436" type="curve" smooth="yes"/>
      <point x="375" y="436" type="line" smooth="yes"/>
      <point x="358" y="436"/>
      <point x="349" y="428"/>
      <point x="349" y="411" type="curve" smooth="yes"/>
      <point x="349" y="394"/>
      <point x="357" y="386"/>
      <point x="373" y="386" type="curve" smooth="yes"/>
      <point x="389" y="386" type="line" smooth="yes"/>
      <point x="430" y="386"/>
      <point x="460" y="379"/>
      <point x="481" y="364" type="curve" smooth="yes"/>
      <point x="498" y="353"/>
      <point x="506" y="339"/>
      <point x="506" y="321" type="curve" smooth="yes"/>
      <point x="506" y="263.835"/>
      <point x="473.1" y="243"/>
      <point x="412" y="243" type="curve" smooth="yes"/>
      <point x="379" y="243"/>
      <point x="353" y="250"/>
      <point x="336" y="264" type="curve" smooth="yes"/>
      <point x="319" y="278"/>
      <point x="302" y="305"/>
      <point x="287" y="345" type="curve" smooth="yes"/>
      <point x="266.265" y="403.436"/>
      <point x="232.649" y="432"/>
      <point x="156" y="432" type="curve" smooth="yes"/>
      <point x="67.7153" y="432"/>
      <point x="12" y="380.697"/>
      <point x="12" y="294" type="curve" smooth="yes"/>
      <point x="12" y="277"/>
      <point x="22" y="268"/>
      <point x="43" y="268" type="curve" smooth="yes"/>
      <point x="58" y="268"/>
      <point x="65" y="280"/>
      <point x="65" y="305" type="curve" smooth="yes"/>
      <point x="65" y="361.587"/>
      <point x="93.641" y="390"/>
      <point x="155" y="390" type="curve" smooth="yes"/>
      <point x="203.83" y="390"/>
      <point x="243" y="363.446"/>
      <point x="243" y="314" type="curve" smooth="yes"/>
      <point x="243" y="288"/>
      <point x="221" y="268"/>
      <point x="177" y="256" type="curve" smooth="yes"/>
      <point x="112" y="238"/>
      <point x="77" y="229"/>
      <point x="71" y="225" type="curve" smooth="yes"/>
      <point x="31" y="200"/>
      <point x="11" y="161"/>
      <point x="11" y="110" type="curve" smooth="yes"/>
      <point x="11" y="38.5625"/>
      <point x="72.9803" y="-13"/>
      <point x="148" y="-13" type="curve" smooth="yes"/>
      <point x="190" y="-13"/>
      <point x="222" y="-7"/>
      <point x="244" y="6" type="curve"/>
      <point x="259" y="17"/>
      <point x="274" y="32"/>
      <point x="289" y="51" type="curve"/>
      <point x="302.486" y="12.7896"/>
      <point x="357.173" y="-13"/>
      <point x="412" y="-13" type="curve" smooth="yes"/>
      <point x="501.541" y="-13"/>
      <point x="560" y="33.9838"/>
      <point x="560" y="124" type="curve" smooth="yes"/>
      <point x="560" y="165"/>
      <point x="550" y="185"/>
      <point x="531" y="185" type="curve" smooth="yes"/>
      <point x="514" y="185"/>
      <point x="505" y="177"/>
      <point x="506" y="161" type="curve" smooth="yes"/>
      <point x="509" y="124" type="line" smooth="yes"/>
      <point x="514" y="65"/>
      <point x="477" y="36"/>
      <point x="414" y="36" type="curve" smooth="yes"/>
      <point x="351.95" y="36"/>
      <point x="317" y="61.1126"/>
      <point x="317" y="124" type="curve" smooth="yes"/>
      <point x="317" y="149"/>
      <point x="308" y="161"/>
      <point x="289" y="161" type="curve" smooth="yes"/>
      <point x="271" y="161"/>
      <point x="262" y="150"/>
      <point x="262" y="129" type="curve" smooth="yes"/>
      <point x="262" y="68.2327"/>
      <point x="220.658" y="32"/>
      <point x="158" y="32" type="curve" smooth="yes"/>
      <point x="107.523" y="32"/>
      <point x="65" y="62.2273"/>
      <point x="65" y="113" type="curve" smooth="yes"/>
      <point x="65" y="164.274"/>
      <point x="79.5942" y="174.868"/>
      <point x="116" y="192" type="curve"/>
      <point x="220" y="221" type="line"/>
      <point x="239.326" y="229.784"/>
      <point x="263.198" y="245.717"/>
      <point x="274" y="263" type="curve"/>
      <point x="296.08" y="226.869"/>
      <point x="352.282" y="195"/>
    </contour>
    <contour>
      <point x="726" y="391" type="curve" smooth="yes"/>
      <point x="762.081" y="391"/>
      <point x="790" y="362.789"/>
      <point x="790" y="325" type="curve" smooth="yes"/>
      <point x="790" y="288.085"/>
      <point x="760.95" y="261"/>
      <point x="726" y="261" type="curve" smooth="yes"/>
      <point x="689.766" y="261"/>
      <point x="662" y="287.069"/>
      <point x="662" y="325" type="curve" smooth="yes"/>
      <point x="662" y="363.83"/>
      <point x="688.718" y="391"/>
    </contour>
  </outline>
</glyph>
<glyph name="glyph1242" format="1">
  <advance width="1160"/>
  <outline>
    <contour>
      <point x="451" y="702" type="curve" smooth="yes"/>
      <point x="478.877" y="702"/>
      <point x="496" y="683.387"/>
      <point x="496" y="654" type="curve" smooth="yes"/>
      <point x="496" y="630.75"/>
      <point x="473.322" y="611"/>
      <point x="451" y="611" type="curve" smooth="yes"/>
      <point x="422.657" y="611"/>
      <point x="404" y="632.061"/>
      <point x="404" y="659" type="curve" smooth="yes"/>
      <point x="404" y="684.37"/>
      <point x="425.635" y="702"/>
    </contour>
    <contour>
      <point x="447" y="566" type="line" smooth="yes"/>
      <point x="500.466" y="566"/>
      <point x="544" y="606.348"/>
      <point x="544" y="660" type="curve" smooth="yes"/>
      <point x="544" y="711.766"/>
      <point x="502.608" y="751"/>
      <point x="451" y="751" type="curve" smooth="yes"/>
      <point x="392.526" y="751"/>
      <point x="352" y="717.401"/>
      <point x="352" y="664" type="curve" smooth="yes"/>
      <point x="352" y="643.992"/>
      <point x="359.516" y="623.968"/>
      <point x="366" y="611" type="curve"/>
      <point x="48" y="611" type="line" smooth="yes"/>
      <point x="31" y="611"/>
      <point x="22" y="604"/>
      <point x="22" y="589" type="curve" smooth="yes"/>
      <point x="22" y="574"/>
      <point x="30" y="566"/>
      <point x="45" y="566" type="curve" smooth="yes"/>
    </contour>
    <contour>
      <point x="985" y="395" type="curve" smooth="yes"/>
      <point x="1023.38" y="395"/>
      <point x="1044" y="369.375"/>
      <point x="1044" y="331" type="curve" smooth="yes"/>
      <point x="1044" y="297.511"/>
      <point x="1017.29" y="262"/>
      <point x="985" y="262" type="curve" smooth="yes"/>
      <point x="952.892" y="262"/>
      <point x="919" y="298.267"/>
      <point x="919" y="329" type="curve" smooth="yes"/>
      <point x="919" y="369.89"/>
      <point x="942.981" y="395"/>
    </contour>
    <contour>
      <point x="821" y="316" type="curve" smooth="yes"/>
      <point x="821" y="340.849"/>
      <point x="807.676" y="377.324"/>
      <point x="795" y="390" type="curve"/>
      <point x="890" y="390" type="line"/>
      <point x="877" y="377"/>
      <point x="870" y="355"/>
      <point x="870" y="322" type="curve" smooth="yes"/>
      <point x="870" y="296"/>
      <point x="880" y="272"/>
      <point x="900" y="250" type="curve" smooth="yes"/>
      <point x="919" y="228"/>
      <point x="946" y="217"/>
      <point x="981" y="217" type="curve" smooth="yes"/>
      <point x="1016" y="217"/>
      <point x="1044" y="228"/>
      <point x="1065" y="250" type="curve" smooth="yes"/>
      <point x="1086" y="272"/>
      <point x="1096" y="296"/>
      <point x="1096" y="322" type="curve" smooth="yes"/>
      <point x="1096" y="391.991"/>
      <point x="1045.54" y="440"/>
      <point x="974" y="440" type="curve" smooth="yes"/>
      <point x="659" y="440" type="line" smooth="yes"/>
      <point x="634" y="440"/>
      <point x="622" y="432"/>
      <point x="622" y="415" type="curve" smooth="yes"/>
      <point x="622" y="398"/>
      <point x="631" y="390"/>
      <point x="648" y="390" type="curve" smooth="yes"/>
      <point x="716" y="390" type="line" smooth="yes"/>
      <point x="728" y="390"/>
      <point x="740" y="384"/>
      <point x="751" y="373" type="curve" smooth="yes"/>
      <point x="762" y="361"/>
      <point x="768" y="342"/>
      <point x="768" y="316" type="curve" smooth="yes"/>
      <point x="768" y="263.818"/>
      <point x="727.672" y="239"/>
      <point x="673" y="239" type="curve" smooth="yes"/>
      <point x="633" y="239"/>
      <point x="604" y="252"/>
      <point x="586" y="279" type="curve"/>
      <point x="577" y="290"/>
      <point x="569" y="312"/>
      <point x="555" y="343" type="curve" smooth="yes"/>
      <point x="527" y="405" type="line"/>
      <point x="501" y="430"/>
      <point x="463" y="443"/>
      <point x="412" y="443" type="curve" smooth="yes"/>
      <point x="380.266" y="443"/>
      <point x="354" y="437.491"/>
      <point x="354" y="414" type="curve" smooth="yes"/>
      <point x="354" y="397.763"/>
      <point x="372.003" y="391.364"/>
      <point x="390" y="393" type="curve" smooth="yes"/>
      <point x="427" y="395" type="line" smooth="yes"/>
      <point x="472.782" y="396.991"/>
      <point x="504" y="367.482"/>
      <point x="504" y="322" type="curve" smooth="yes"/>
      <point x="504" y="266.061"/>
      <point x="468.707" y="245"/>
      <point x="409" y="245" type="curve" smooth="yes"/>
      <point x="345.879" y="245"/>
      <point x="325.583" y="272.689"/>
      <point x="305" y="319" type="curve"/>
      <point x="291" y="353" type="line" smooth="yes"/>
      <point x="268" y="409"/>
      <point x="227" y="439"/>
      <point x="156" y="439" type="curve" smooth="yes"/>
      <point x="68.2326" y="439"/>
      <point x="12" y="385.278"/>
      <point x="12" y="300" type="curve" smooth="yes"/>
      <point x="12" y="281"/>
      <point x="22" y="271"/>
      <point x="41" y="271" type="curve" smooth="yes"/>
      <point x="57" y="271"/>
      <point x="65" y="283"/>
      <point x="65" y="307" type="curve" smooth="yes"/>
      <point x="65" y="362.478"/>
      <point x="98.2531" y="391"/>
      <point x="157" y="391" type="curve" smooth="yes"/>
      <point x="207.953" y="391"/>
      <point x="241" y="373.643"/>
      <point x="241" y="321" type="curve" smooth="yes"/>
      <point x="241" y="291"/>
      <point x="210" y="269"/>
      <point x="147" y="254" type="curve" smooth="yes"/>
      <point x="108" y="244"/>
      <point x="81" y="236"/>
      <point x="67" y="229" type="curve"/>
      <point x="30" y="204"/>
      <point x="11" y="166"/>
      <point x="11" y="115" type="curve" smooth="yes"/>
      <point x="11" y="78"/>
      <point x="25" y="47"/>
      <point x="54" y="23" type="curve" smooth="yes"/>
      <point x="82" y="-1"/>
      <point x="114" y="-13"/>
      <point x="150" y="-13" type="curve" smooth="yes"/>
      <point x="225.025" y="-13"/>
      <point x="260.693" y="4.04797"/>
      <point x="289" y="55" type="curve"/>
      <point x="296" y="38"/>
      <point x="311" y="22"/>
      <point x="334" y="7" type="curve" smooth="yes"/>
      <point x="356" y="-8"/>
      <point x="382" y="-15"/>
      <point x="411" y="-15" type="curve" smooth="yes"/>
      <point x="499.134" y="-15"/>
      <point x="560" y="36.8262"/>
      <point x="560" y="124" type="curve" smooth="yes"/>
      <point x="560" y="155.951"/>
      <point x="556.185" y="180"/>
      <point x="531" y="180" type="curve" smooth="yes"/>
      <point x="516" y="180"/>
      <point x="508" y="172"/>
      <point x="509" y="156" type="curve" smooth="yes"/>
      <point x="510" y="144" type="line" smooth="yes"/>
      <point x="511" y="137"/>
      <point x="511" y="130"/>
      <point x="511" y="122" type="curve" smooth="yes"/>
      <point x="511" y="63"/>
      <point x="479" y="33"/>
      <point x="414" y="33" type="curve" smooth="yes"/>
      <point x="353.716" y="33"/>
      <point x="320" y="69.2614"/>
      <point x="320" y="131" type="curve" smooth="yes"/>
      <point x="320" y="155"/>
      <point x="310" y="167"/>
      <point x="291" y="167" type="curve" smooth="yes"/>
      <point x="272" y="167"/>
      <point x="262" y="156"/>
      <point x="262" y="134" type="curve" smooth="yes"/>
      <point x="262" y="69"/>
      <point x="227" y="36"/>
      <point x="158" y="36" type="curve" smooth="yes"/>
      <point x="105.189" y="36"/>
      <point x="62" y="62.6992"/>
      <point x="62" y="115" type="curve" smooth="yes"/>
      <point x="62" y="161.903"/>
      <point x="76.2371" y="179.229"/>
      <point x="110" y="194" type="curve" smooth="yes"/>
      <point x="117" y="198"/>
      <point x="140" y="205"/>
      <point x="178" y="214" type="curve" smooth="yes"/>
      <point x="215.088" y="222.727"/>
      <point x="231.019" y="225.019"/>
      <point x="255" y="249" type="curve" smooth="yes"/>
      <point x="274" y="267" type="line"/>
      <point x="298" y="222"/>
      <point x="344" y="199"/>
      <point x="411" y="199" type="curve" smooth="yes"/>
      <point x="474" y="199"/>
      <point x="517" y="219"/>
      <point x="540" y="259" type="curve"/>
      <point x="564.427" y="221.421"/>
      <point x="606.037" y="192"/>
      <point x="666" y="192" type="curve" smooth="yes"/>
      <point x="760.269" y="192"/>
      <point x="821" y="228.975"/>
    </contour>
  </outline>
</glyph>
<glyph name="glyph1244" format="1">
  <advance width="913"/>
  <outline>
    <contour>
      <point x="451" y="771" type="curve" smooth="yes"/>
      <point x="478.877" y="771"/>
      <point x="496" y="752.387"/>
      <point x="496" y="723" type="curve" smooth="yes"/>
      <point x="496" y="699.75"/>
      <point x="473.322" y="680"/>
      <point x="451" y="680" type="curve" smooth="yes"/>
      <point x="422.657" y="680"/>
      <point x="404" y="701.061"/>
      <point x="404" y="728" type="curve" smooth="yes"/>
      <point x="404" y="753.37"/>
      <point x="425.635" y="771"/>
    </contour>
    <contour>
      <point x="447" y="634" type="line" smooth="yes"/>
      <point x="499.933" y="634"/>
      <point x="544" y="675.417"/>
      <point x="544" y="729" type="curve" smooth="yes"/>
      <point x="544" y="780.766"/>
      <point x="502.608" y="820"/>
      <point x="451" y="820" type="curve" smooth="yes"/>
      <point x="392.526" y="820"/>
      <point x="352" y="786.401"/>
      <point x="352" y="733" type="curve" smooth="yes"/>
      <point x="352" y="712.992"/>
      <point x="359.516" y="692.968"/>
      <point x="366" y="680" type="curve"/>
      <point x="48" y="680" type="line" smooth="yes"/>
      <point x="31" y="680"/>
      <point x="22" y="672"/>
      <point x="22" y="657" type="curve" smooth="yes"/>
      <point x="22" y="642"/>
      <point x="30" y="634"/>
      <point x="45" y="634" type="curve" smooth="yes"/>
    </contour>
    <contour>
      <point x="556" y="314" type="curve" smooth="yes"/>
      <point x="556" y="398.33"/>
      <point x="481.962" y="436"/>
      <point x="390" y="436" type="curve" smooth="yes"/>
      <point x="358.768" y="436"/>
      <point x="327" y="459.729"/>
      <point x="327" y="492" type="curve" smooth="yes"/>
      <point x="327" y="539"/>
      <point x="359" y="562"/>
      <point x="424" y="562" type="curve" smooth="yes"/>
      <point x="496.963" y="562"/>
      <point x="527.866" y="511.702"/>
      <point x="534" y="434" type="curve" smooth="yes"/>
      <point x="537" y="401" type="line"/>
      <point x="539" y="391"/>
      <point x="547" y="386"/>
      <point x="562" y="386" type="curve" smooth="yes"/>
      <point x="572" y="386"/>
      <point x="580" y="394"/>
      <point x="585" y="409" type="curve" smooth="yes"/>
      <point x="590" y="424"/>
      <point x="594" y="432"/>
      <point x="595" y="433" type="curve" smooth="yes"/>
      <point x="608.222" y="474.868"/>
      <point x="645.539" y="495"/>
      <point x="704" y="495" type="curve" smooth="yes"/>
      <point x="758" y="495"/>
      <point x="790" y="473"/>
      <point x="800" y="430" type="curve"/>
      <point x="777" y="444" type="line"/>
      <point x="764" y="449"/>
      <point x="746" y="451"/>
      <point x="724" y="451" type="curve" smooth="yes"/>
      <point x="663.074" y="451"/>
      <point x="612" y="392.152"/>
      <point x="612" y="331" type="curve" smooth="yes"/>
      <point x="612" y="271.538"/>
      <point x="659.365" y="220"/>
      <point x="718" y="220" type="curve" smooth="yes"/>
      <point x="809.262" y="220"/>
      <point x="860" y="278.978"/>
      <point x="860" y="375" type="curve" smooth="yes"/>
      <point x="860" y="463.785"/>
      <point x="814.723" y="530.579"/>
      <point x="742" y="547" type="curve"/>
      <point x="697" y="581"/>
      <point x="675" y="613"/>
      <point x="675" y="643" type="curve" smooth="yes"/>
      <point x="675" y="673.879"/>
      <point x="700.728" y="705"/>
      <point x="732" y="705" type="curve" smooth="yes"/>
      <point x="745" y="705"/>
      <point x="758" y="701"/>
      <point x="771" y="692" type="curve" smooth="yes"/>
      <point x="784" y="683"/>
      <point x="790" y="670"/>
      <point x="790" y="655" type="curve" smooth="yes"/>
      <point x="790" y="647"/>
      <point x="788" y="638"/>
      <point x="783" y="629" type="curve"/>
      <point x="783" y="617.824"/>
      <point x="800.54" y="607"/>
      <point x="813" y="607" type="curve" smooth="yes"/>
      <point x="833" y="607"/>
      <point x="843" y="622"/>
      <point x="843" y="653" type="curve" smooth="yes"/>
      <point x="843" y="715.153"/>
      <point x="796.518" y="755"/>
      <point x="735" y="755" type="curve" smooth="yes"/>
      <point x="672.598" y="755"/>
      <point x="624" y="707.732"/>
      <point x="624" y="647" type="curve" smooth="yes"/>
      <point x="624" y="606"/>
      <point x="638" y="573"/>
      <point x="667" y="546" type="curve"/>
      <point x="623" y="539"/>
      <point x="591" y="522"/>
      <point x="572" y="495" type="curve"/>
      <point x="554.473" y="578.74"/>
      <point x="508.964" y="614"/>
      <point x="411" y="614" type="curve" smooth="yes"/>
      <point x="329.276" y="614"/>
      <point x="273" y="571.427"/>
      <point x="273" y="490" type="curve" smooth="yes"/>
      <point x="273" y="429"/>
      <point x="312" y="394"/>
      <point x="389" y="386" type="curve"/>
      <point x="430" y="386"/>
      <point x="460" y="379"/>
      <point x="481" y="364" type="curve" smooth="yes"/>
      <point x="498" y="353"/>
      <point x="506" y="339"/>
      <point x="506" y="321" type="curve" smooth="yes"/>
      <point x="506" y="263.835"/>
      <point x="473.1" y="243"/>
      <point x="412" y="243" type="curve" smooth="yes"/>
      <point x="379" y="243"/>
      <point x="353" y="250"/>
      <point x="336" y="264" type="curve" smooth="yes"/>
      <point x="319" y="278"/>
      <point x="302" y="305"/>
      <point x="287" y="345" type="curve" smooth="yes"/>
      <point x="266.265" y="403.436"/>
      <point x="232.649" y="432"/>
      <point x="156" y="432" type="curve" smooth="yes"/>
      <point x="67.7153" y="432"/>
      <point x="12" y="380.697"/>
      <point x="12" y="294" type="curve" smooth="yes"/>
      <point x="12" y="277"/>
      <point x="22" y="268"/>
      <point x="43" y="268" type="curve" smooth="yes"/>
      <point x="58" y="268"/>
      <point x="65" y="280"/>
      <point x="65" y="305" type="curve" smooth="yes"/>
      <point x="65" y="361.587"/>
      <point x="93.641" y="390"/>
      <point x="155" y="390" type="curve" smooth="yes"/>
      <point x="203.83" y="390"/>
      <point x="243" y="363.446"/>
      <point x="243" y="314" type="curve" smooth="yes"/>
      <point x="243" y="288"/>
      <point x="221" y="268"/>
      <point x="177" y="256" type="curve" smooth="yes"/>
      <point x="112" y="238"/>
      <point x="77" y="229"/>
      <point x="71" y="225" type="curve" smooth="yes"/>
      <point x="31" y="200"/>
      <point x="11" y="161"/>
      <point x="11" y="110" type="curve" smooth="yes"/>
      <point x="11" y="38.5625"/>
      <point x="72.9803" y="-13"/>
      <point x="148" y="-13" type="curve" smooth="yes"/>
      <point x="190" y="-13"/>
      <point x="222" y="-7"/>
      <point x="244" y="6" type="curve"/>
      <point x="259" y="17"/>
      <point x="274" y="32"/>
      <point x="289" y="51" type="curve"/>
      <point x="302.486" y="12.7896"/>
      <point x="357.173" y="-13"/>
      <point x="412" y="-13" type="curve" smooth="yes"/>
      <point x="501.541" y="-13"/>
      <point x="560" y="33.9838"/>
      <point x="560" y="124" type="curve" smooth="yes"/>
      <point x="560" y="165"/>
      <point x="550" y="185"/>
      <point x="531" y="185" type="curve" smooth="yes"/>
      <point x="514" y="185"/>
      <point x="505" y="177"/>
      <point x="506" y="161" type="curve" smooth="yes"/>
      <point x="509" y="124" type="line" smooth="yes"/>
      <point x="514" y="65"/>
      <point x="477" y="36"/>
      <point x="414" y="36" type="curve" smooth="yes"/>
      <point x="351.95" y="36"/>
      <point x="317" y="61.1126"/>
      <point x="317" y="124" type="curve" smooth="yes"/>
      <point x="317" y="149"/>
      <point x="308" y="161"/>
      <point x="289" y="161" type="curve" smooth="yes"/>
      <point x="271" y="161"/>
      <point x="262" y="150"/>
      <point x="262" y="129" type="curve" smooth="yes"/>
      <point x="262" y="68.2327"/>
      <point x="220.658" y="32"/>
      <point x="158" y="32" type="curve" smooth="yes"/>
      <point x="107.523" y="32"/>
      <point x="65" y="62.2273"/>
      <point x="65" y="113" type="curve" smooth="yes"/>
      <point x="65" y="164.274"/>
      <point x="79.5942" y="174.868"/>
      <point x="116" y="192" type="curve"/>
      <point x="220" y="221" type="line"/>
      <point x="239.326" y="229.784"/>
      <point x="263.198" y="245.717"/>
      <point x="274" y="263" type="curve"/>
      <point x="296.08" y="226.869"/>
      <point x="352.282" y="195"/>
      <point x="411" y="195" type="curve" smooth="yes"/>
      <point x="493.968" y="195"/>
      <point x="556" y="236.037"/>
    </contour>
    <contour>
      <point x="731" y="405" type="curve" smooth="yes"/>
      <point x="770.059" y="405"/>
      <point x="800" y="373.484"/>
      <point x="800" y="334" type="curve" smooth="yes"/>
      <point x="800" y="298.74"/>
      <point x="766.057" y="268"/>
      <point x="731" y="268" type="curve" smooth="yes"/>
      <point x="696.761" y="268"/>
      <point x="665" y="299.271"/>
      <point x="665" y="334" type="curve" smooth="yes"/>
      <point x="665" y="370.505"/>
      <point x="694.721" y="405"/>
    </contour>
  </outline>
</glyph>
<glyph name="glyph546" format="1">
  <advance width="935"/>
  <outline>
    <contour>
      <point x="451" y="702" type="curve" smooth="yes"/>
      <point x="478.877" y="702"/>
      <point x="496" y="683.387"/>
      <point x="496" y="654" type="curve" smooth="yes"/>
      <point x="496" y="630.75"/>
      <point x="473.322" y="611"/>
      <point x="451" y="611" type="curve" smooth="yes"/>
      <point x="422.657" y="611"/>
      <point x="404" y="632.061"/>
      <point x="404" y="659" type="curve" smooth="yes"/>
      <point x="404" y="684.37"/>
      <point x="425.635" y="702"/>
    </contour>
    <contour>
      <point x="447" y="566" type="line" smooth="yes"/>
      <point x="500.466" y="566"/>
      <point x="544" y="606.348"/>
      <point x="544" y="660" type="curve" smooth="yes"/>
      <point x="544" y="711.766"/>
      <point x="502.608" y="751"/>
      <point x="451" y="751" type="curve" smooth="yes"/>
      <point x="392.526" y="751"/>
      <point x="352" y="717.401"/>
      <point x="352" y="664" type="curve" smooth="yes"/>
      <point x="352" y="643.992"/>
      <point x="359.516" y="623.968"/>
      <point x="366" y="611" type="curve"/>
      <point x="48" y="611" type="line" smooth="yes"/>
      <point x="31" y="611"/>
      <point x="22" y="604"/>
      <point x="22" y="589" type="curve" smooth="yes"/>
      <point x="22" y="574"/>
      <point x="30" y="566"/>
      <point x="45" y="566" type="curve" smooth="yes"/>
    </contour>
    <contour>
      <point x="442" y="-13" type="curve" smooth="yes"/>
      <point x="542.924" y="-13"/>
      <point x="593" y="80.0857"/>
      <point x="593" y="186" type="curve" smooth="yes"/>
      <point x="593" y="255"/>
      <point x="573" y="316"/>
      <point x="528" y="363" type="curve" smooth="yes"/>
      <point x="506" y="386" type="line"/>
      <point x="664" y="386" type="line"/>
      <point x="651" y="367"/>
      <point x="644" y="343"/>
      <point x="644" y="316" type="curve" smooth="yes"/>
      <point x="644" y="255.511"/>
      <point x="696.102" y="210"/>
      <point x="759" y="210" type="curve" smooth="yes"/>
      <point x="822.986" y="210"/>
      <point x="871" y="258.302"/>
      <point x="871" y="322" type="curve" smooth="yes"/>
      <point x="871" y="389.697"/>
      <point x="821.962" y="436"/>
      <point x="754" y="436" type="curve" smooth="yes"/>
      <point x="145" y="436" type="line" smooth="yes"/>
      <point x="128" y="436"/>
      <point x="120" y="428"/>
      <point x="120" y="411" type="curve" smooth="yes"/>
      <point x="120" y="394"/>
      <point x="128" y="386"/>
      <point x="143" y="386" type="curve" smooth="yes"/>
      <point x="367" y="386" type="line" smooth="yes"/>
      <point x="404" y="386"/>
      <point x="439" y="373"/>
      <point x="472" y="348" type="curve" smooth="yes"/>
      <point x="519" y="311"/>
      <point x="543" y="254"/>
      <point x="543" y="176" type="curve" smooth="yes"/>
      <point x="543" y="102.845"/>
      <point x="511.712" y="37"/>
      <point x="443" y="37" type="curve" smooth="yes"/>
      <point x="388" y="37"/>
      <point x="360" y="65"/>
      <point x="360" y="122" type="curve" smooth="yes"/>
      <point x="360" y="155"/>
      <point x="355" y="171"/>
      <point x="344" y="171" type="curve" smooth="yes"/>
      <point x="314.882" y="171"/>
      <point x="311" y="160.203"/>
      <point x="311" y="129" type="curve" smooth="yes"/>
      <point x="311" y="71.5838"/>
      <point x="279.159" y="32"/>
      <point x="225" y="32" type="curve" smooth="yes"/>
      <point x="170.242" y="32"/>
      <point x="134" y="61.569"/>
      <point x="134" y="113" type="curve" smooth="yes"/>
      <point x="134" y="165.36"/>
      <point x="168.586" y="206"/>
      <point x="219" y="206" type="curve" smooth="yes"/>
      <point x="245" y="206"/>
      <point x="258" y="214"/>
      <point x="258" y="231" type="curve" smooth="yes"/>
      <point x="258" y="254"/>
      <point x="246" y="266"/>
      <point x="221" y="266" type="curve" smooth="yes"/>
      <point x="36" y="266" type="line" smooth="yes"/>
      <point x="19" y="266"/>
      <point x="11" y="256"/>
      <point x="11" y="237" type="curve" smooth="yes"/>
      <point x="11" y="224"/>
      <point x="19" y="217"/>
      <point x="35" y="217" type="curve" smooth="yes"/>
      <point x="129" y="217" type="line"/>
      <point x="106.138" y="198.295"/>
      <point x="83" y="156.619"/>
      <point x="83" y="115" type="curve" smooth="yes"/>
      <point x="83" y="72"/>
      <point x="98" y="39"/>
      <point x="129" y="15" type="curve" smooth="yes"/>
      <point x="154" y="-4"/>
      <point x="183" y="-13"/>
      <point x="216" y="-13" type="curve" smooth="yes"/>
      <point x="245" y="-13"/>
      <point x="267" y="-10"/>
      <point x="282" y="-5" type="curve"/>
      <point x="301" y="5"/>
      <point x="318" y="23"/>
      <point x="333" y="48" type="curve"/>
      <point x="347.857" y="11.9192"/>
      <point x="389.791" y="-13"/>
    </contour>
    <contour>
      <point x="759" y="391" type="curve" smooth="yes"/>
      <point x="793.574" y="391"/>
      <point x="822" y="363.101"/>
      <point x="822" y="325" type="curve" smooth="yes"/>
      <point x="822" y="286.535"/>
      <point x="793.754" y="261"/>
      <point x="757" y="261" type="curve" smooth="yes"/>
      <point x="720.699" y="261"/>
      <point x="694" y="287.605"/>
      <point x="694" y="325" type="curve" smooth="yes"/>
      <point x="694" y="364.37"/>
      <point x="720.727" y="391"/>
    </contour>
  </outline>
</glyph>
<glyph name="glyph550" format="1">
  <advance width="937"/>
  <outline>
    <contour>
      <point x="451" y="771" type="curve" smooth="yes"/>
      <point x="478.877" y="771"/>
      <point x="496" y="752.387"/>
      <point x="496" y="723" type="curve" smooth="yes"/>
      <point x="496" y="699.75"/>
      <point x="473.322" y="680"/>
      <point x="451" y="680" type="curve" smooth="yes"/>
      <point x="422.657" y="680"/>
      <point x="404" y="701.061"/>
      <point x="404" y="728" type="curve" smooth="yes"/>
      <point x="404" y="753.37"/>
      <point x="425.635" y="771"/>
    </contour>
    <contour>
      <point x="447" y="634" type="line" smooth="yes"/>
      <point x="499.933" y="634"/>
      <point x="544" y="675.417"/>
      <point x="544" y="729" type="curve" smooth="yes"/>
      <point x="544" y="780.766"/>
      <point x="502.608" y="820"/>
      <point x="451" y="820" type="curve" smooth="yes"/>
      <point x="392.526" y="820"/>
      <point x="352" y="786.401"/>
      <point x="352" y="733" type="curve" smooth="yes"/>
      <point x="352" y="712.992"/>
      <point x="359.516" y="692.968"/>
      <point x="366" y="680" type="curve"/>
      <point x="48" y="680" type="line" smooth="yes"/>
      <point x="31" y="680"/>
      <point x="22" y="672"/>
      <point x="22" y="657" type="curve" smooth="yes"/>
      <point x="22" y="642"/>
      <point x="30" y="634"/>
      <point x="45" y="634" type="curve" smooth="yes"/>
    </contour>
    <contour>
      <point x="149" y="490" type="curve" smooth="yes"/>
      <point x="149" y="414.672"/>
      <point x="200.397" y="396.086"/>
      <point x="271" y="386" type="curve"/>
      <point x="367" y="386" type="line" smooth="yes"/>
      <point x="404" y="386"/>
      <point x="439" y="373"/>
      <point x="472" y="348" type="curve" smooth="yes"/>
      <point x="519" y="311"/>
      <point x="543" y="254"/>
      <point x="543" y="176" type="curve" smooth="yes"/>
      <point x="543" y="102.845"/>
      <point x="511.712" y="37"/>
      <point x="443" y="37" type="curve" smooth="yes"/>
      <point x="388" y="37"/>
      <point x="360" y="65"/>
      <point x="360" y="122" type="curve" smooth="yes"/>
      <point x="360" y="155"/>
      <point x="355" y="171"/>
      <point x="344" y="171" type="curve" smooth="yes"/>
      <point x="314.882" y="171"/>
      <point x="311" y="160.203"/>
      <point x="311" y="129" type="curve" smooth="yes"/>
      <point x="311" y="71.5838"/>
      <point x="279.159" y="32"/>
      <point x="225" y="32" type="curve" smooth="yes"/>
      <point x="170.242" y="32"/>
      <point x="134" y="61.569"/>
      <point x="134" y="113" type="curve" smooth="yes"/>
      <point x="134" y="165.36"/>
      <point x="168.586" y="206"/>
      <point x="219" y="206" type="curve" smooth="yes"/>
      <point x="245" y="206"/>
      <point x="258" y="214"/>
      <point x="258" y="231" type="curve" smooth="yes"/>
      <point x="258" y="254"/>
      <point x="246" y="266"/>
      <point x="221" y="266" type="curve" smooth="yes"/>
      <point x="36" y="266" type="line" smooth="yes"/>
      <point x="19" y="266"/>
      <point x="11" y="256"/>
      <point x="11" y="237" type="curve" smooth="yes"/>
      <point x="11" y="224"/>
      <point x="19" y="217"/>
      <point x="35" y="217" type="curve" smooth="yes"/>
      <point x="129" y="217" type="line"/>
      <point x="106.138" y="198.295"/>
      <point x="83" y="156.619"/>
      <point x="83" y="115" type="curve" smooth="yes"/>
      <point x="83" y="72"/>
      <point x="98" y="39"/>
      <point x="129" y="15" type="curve" smooth="yes"/>
      <point x="154" y="-4"/>
      <point x="183" y="-13"/>
      <point x="216" y="-13" type="curve" smooth="yes"/>
      <point x="245" y="-13"/>
      <point x="267" y="-10"/>
      <point x="282" y="-5" type="curve"/>
      <point x="301" y="5"/>
      <point x="318" y="23"/>
      <point x="333" y="48" type="curve"/>
      <point x="347.857" y="11.9192"/>
      <point x="389.791" y="-13"/>
      <point x="442" y="-13" type="curve" smooth="yes"/>
      <point x="542.924" y="-13"/>
      <point x="593" y="80.0857"/>
      <point x="593" y="186" type="curve" smooth="yes"/>
      <point x="593" y="255"/>
      <point x="572" y="314"/>
      <point x="529" y="363" type="curve" smooth="yes"/>
      <point x="486" y="412"/>
      <point x="432" y="436"/>
      <point x="365" y="436" type="curve" smooth="yes"/>
      <point x="285" y="436" type="line" smooth="yes"/>
      <point x="233.335" y="436"/>
      <point x="196" y="445.27"/>
      <point x="196" y="490" type="curve" smooth="yes"/>
      <point x="196" y="513"/>
      <point x="206" y="532"/>
      <point x="226" y="546" type="curve" smooth="yes"/>
      <point x="251" y="565"/>
      <point x="294" y="574"/>
      <point x="354" y="574" type="curve" smooth="yes"/>
      <point x="438" y="574"/>
      <point x="498" y="555"/>
      <point x="534" y="517" type="curve" smooth="yes"/>
      <point x="559" y="491"/>
      <point x="571" y="456"/>
      <point x="571" y="411" type="curve" smooth="yes"/>
      <point x="571" y="383"/>
      <point x="581" y="369"/>
      <point x="600" y="369" type="curve" smooth="yes"/>
      <point x="607" y="369"/>
      <point x="617" y="387"/>
      <point x="631" y="424" type="curve" smooth="yes"/>
      <point x="645" y="460"/>
      <point x="682" y="478"/>
      <point x="741" y="478" type="curve" smooth="yes"/>
      <point x="784.014" y="478"/>
      <point x="819.689" y="450.762"/>
      <point x="826" y="415" type="curve"/>
      <point x="813.571" y="427.429"/>
      <point x="787.549" y="432"/>
      <point x="760" y="432" type="curve" smooth="yes"/>
      <point x="697.003" y="432"/>
      <point x="644" y="385.378"/>
      <point x="644" y="321" type="curve" smooth="yes"/>
      <point x="644" y="251.247"/>
      <point x="688.556" y="207"/>
      <point x="760" y="207" type="curve" smooth="yes"/>
      <point x="840.438" y="207"/>
      <point x="885" y="267.106"/>
      <point x="885" y="348" type="curve" smooth="yes"/>
      <point x="885" y="420.417"/>
      <point x="871.225" y="457.146"/>
      <point x="833" y="489" type="curve"/>
      <point x="815.019" y="506.981"/>
      <point x="777.616" y="523.148"/>
      <point x="752" y="533" type="curve"/>
      <point x="718.718" y="549.641"/>
      <point x="701" y="576.541"/>
      <point x="701" y="624" type="curve" smooth="yes"/>
      <point x="701" y="655.865"/>
      <point x="720.12" y="677"/>
      <point x="754" y="677" type="curve" smooth="yes"/>
      <point x="786.664" y="677"/>
      <point x="808" y="664.704"/>
      <point x="808" y="632" type="curve"/>
      <point x="805" y="605" type="line"/>
      <point x="805" y="592"/>
      <point x="814" y="585"/>
      <point x="833" y="585" type="curve" smooth="yes"/>
      <point x="857.142" y="585"/>
      <point x="862" y="600.012"/>
      <point x="862" y="628" type="curve" smooth="yes"/>
      <point x="862" y="683.005"/>
      <point x="817.701" y="726"/>
      <point x="763" y="726" type="curve" smooth="yes"/>
      <point x="693.662" y="726"/>
      <point x="648" y="686.314"/>
      <point x="648" y="617" type="curve" smooth="yes"/>
      <point x="648" y="576.609"/>
      <point x="673.959" y="543.034"/>
      <point x="698" y="523" type="curve"/>
      <point x="657.154" y="523"/>
      <point x="627.51" y="503.241"/>
      <point x="609" y="478" type="curve"/>
      <point x="571.63" y="574.376"/>
      <point x="482.656" y="617"/>
      <point x="351" y="617" type="curve" smooth="yes"/>
      <point x="274" y="617"/>
      <point x="220" y="603"/>
      <point x="187" y="576" type="curve" smooth="yes"/>
      <point x="162" y="555"/>
      <point x="149" y="526"/>
    </contour>
    <contour>
      <point x="763" y="390" type="curve" smooth="yes"/>
      <point x="801.204" y="390"/>
      <point x="826" y="354.781"/>
      <point x="826" y="316" type="curve" smooth="yes"/>
      <point x="826" y="283.914"/>
      <point x="797.126" y="254"/>
      <point x="766" y="254" type="curve" smooth="yes"/>
      <point x="725.068" y="254"/>
      <point x="701" y="281.195"/>
      <point x="701" y="322" type="curve" smooth="yes"/>
      <point x="701" y="354.858"/>
      <point x="730.737" y="390"/>
    </contour>
  </outline>
</glyph>
<glyph name="glyph616" format="1">
  <advance width="328"/>
  <outline>
    <contour>
      <point x="244" y="-251" type="curve" smooth="yes"/>
      <point x="244" y="-207.188"/>
      <point x="232.143" y="-180.143"/>
      <point x="209" y="-157" type="curve"/>
      <point x="291" y="-157" type="line" smooth="yes"/>
      <point x="312" y="-157"/>
      <point x="322" y="-150"/>
      <point x="322" y="-136" type="curve" name="hr00" smooth="yes"/>
      <point x="322" y="-121"/>
      <point x="313" y="-113"/>
      <point x="294" y="-113" type="curve" smooth="yes"/>
      <point x="158" y="-113" type="line" smooth="yes"/>
      <point x="130" y="-113"/>
      <point x="126" y="-120"/>
      <point x="126" y="-139" type="curve" smooth="yes"/>
      <point x="126" y="-148"/>
      <point x="129" y="-155"/>
      <point x="134" y="-159" type="curve"/>
      <point x="136" y="-162"/>
      <point x="146" y="-167"/>
      <point x="163" y="-175" type="curve"/>
      <point x="184" y="-182"/>
      <point x="198" y="-207"/>
      <point x="198" y="-251" type="curve" smooth="yes"/>
      <point x="198" y="-300.715"/>
      <point x="160.088" y="-339"/>
      <point x="110" y="-339" type="curve" smooth="yes"/>
      <point x="51" y="-339"/>
      <point x="15" y="-306"/>
      <point x="15" y="-249" type="curve" smooth="yes"/>
      <point x="15" y="-206"/>
      <point x="45" y="-147"/>
      <point x="105" y="-74" type="curve" smooth="yes"/>
      <point x="166" y="-1"/>
      <point x="196" y="58"/>
      <point x="196" y="101" type="curve" smooth="yes"/>
      <point x="196" y="161"/>
      <point x="162" y="203"/>
      <point x="106" y="203" type="curve" smooth="yes"/>
      <point x="67" y="203"/>
      <point x="27" y="179"/>
      <point x="27" y="160" type="curve" smooth="yes"/>
      <point x="27" y="147"/>
      <point x="37" y="140"/>
      <point x="56" y="140" type="curve"/>
      <point x="72" y="151"/>
      <point x="92" y="164"/>
      <point x="104" y="164" type="curve" smooth="yes"/>
      <point x="135" y="164"/>
      <point x="155" y="138"/>
      <point x="155" y="106" type="curve" smooth="yes"/>
      <point x="155" y="77"/>
      <point x="140" y="41"/>
      <point x="107" y="0" type="curve" smooth="yes"/>
      <point x="28" y="-98" type="line" smooth="yes"/>
      <point x="-11" y="-146"/>
      <point x="-34" y="-203"/>
      <point x="-34" y="-244" type="curve" smooth="yes"/>
      <point x="-34" y="-321"/>
      <point x="22" y="-378"/>
      <point x="106" y="-378" type="curve" smooth="yes"/>
      <point x="187" y="-378"/>
      <point x="244" y="-326"/>
    </contour>
  </outline>
</glyph>
<glyph name="glyph622" format="1">
  <advance width="402"/>
  <outline>
    <contour>
      <point x="170" y="-478"/>
      <point x="186" y="-468"/>
      <point x="186" y="-448" type="curve" name="hr00" smooth="yes"/>
      <point x="186" y="-441"/>
      <point x="184" y="-434"/>
      <point x="179" y="-426" type="curve" smooth="yes"/>
      <point x="178" y="-425"/>
      <point x="170" y="-414"/>
      <point x="157" y="-393" type="curve"/>
      <point x="138" y="-416"/>
      <point x="123" y="-437"/>
      <point x="123" y="-448" type="curve" smooth="yes"/>
      <point x="123" y="-465"/>
      <point x="138" y="-478"/>
      <point x="153" y="-478" type="curve" smooth="yes"/>
    </contour>
    <component base="glyph621"/>
  </outline>
</glyph>
<glyph name="glyph629" format="1">
  <advance width="355"/>
  <outline>
    <contour>
      <point x="173" y="-453"/>
      <point x="189" y="-443"/>
      <point x="189" y="-423" type="curve" smooth="yes"/>
      <point x="189" y="-416"/>
      <point x="187" y="-409"/>
      <point x="182" y="-400" type="curve"/>
      <point x="159" y="-368" type="line"/>
      <point x="140" y="-391"/>
      <point x="127" y="-412"/>
      <point x="127" y="-423" type="curve" smooth="yes"/>
      <point x="127" y="-440"/>
      <point x="141" y="-453"/>
      <point x="157" y="-453" type="curve" smooth="yes"/>
    </contour>
    <component base="glyph628"/>
  </outline>
</glyph>
<glyph name="glyph631" format="1">
  <advance width="0"/>
  <outline>
    <contour>
      <point x="-62" y="-370" type="curve" name="hr00" smooth="yes"/>
      <point x="-62" y="-395"/>
      <point x="-84" y="-413"/>
      <point x="-107" y="-413" type="curve" smooth="yes"/>
      <point x="-136" y="-413"/>
      <point x="-154" y="-391"/>
      <point x="-154" y="-366" type="curve" smooth="yes"/>
      <point x="-154" y="-339"/>
      <point x="-134" y="-322"/>
      <point x="-107" y="-322" type="curve" smooth="yes"/>
      <point x="-83" y="-322"/>
      <point x="-62" y="-338"/>
    </contour>
    <contour>
      <point x="-13" y="-366" type="curve" smooth="yes"/>
      <point x="-13" y="-311"/>
      <point x="-54" y="-275"/>
      <point x="-107" y="-275" type="curve" smooth="yes"/>
      <point x="-175" y="-275"/>
      <point x="-205" y="-313"/>
      <point x="-205" y="-360" type="curve" smooth="yes"/>
      <point x="-205" y="-383"/>
      <point x="-198" y="-402"/>
      <point x="-191" y="-413" type="curve"/>
      <point x="-511" y="-413" type="line" smooth="yes"/>
      <point x="-528" y="-413"/>
      <point x="-536" y="-421"/>
      <point x="-536" y="-436" type="curve" smooth="yes"/>
      <point x="-536" y="-451"/>
      <point x="-528" y="-459"/>
      <point x="-512" y="-459" type="curve" smooth="yes"/>
      <point x="-112" y="-459" type="line" smooth="yes"/>
      <point x="-56" y="-459"/>
      <point x="-13" y="-418"/>
    </contour>
  </outline>
</glyph>
<glyph name="glyph632" format="1">
  <advance width="352"/>
  <outline>
    <contour>
      <point x="169" y="-453"/>
      <point x="186" y="-443"/>
      <point x="186" y="-423" type="curve" name="hr00" smooth="yes"/>
      <point x="186" y="-416"/>
      <point x="183" y="-409"/>
      <point x="177" y="-400" type="curve" smooth="yes"/>
      <point x="176" y="-399"/>
      <point x="169" y="-389"/>
      <point x="156" y="-368" type="curve"/>
      <point x="137" y="-391"/>
      <point x="123" y="-412"/>
      <point x="123" y="-423" type="curve" smooth="yes"/>
      <point x="123" y="-440"/>
      <point x="138" y="-453"/>
      <point x="153" y="-453" type="curve" smooth="yes"/>
    </contour>
    <contour>
      <point x="173" y="-251"/>
      <point x="188" y="-235"/>
      <point x="188" y="-218" type="curve" smooth="yes"/>
      <point x="188" y="-198"/>
      <point x="173" y="-185"/>
      <point x="156" y="-185" type="curve" smooth="yes"/>
      <point x="137" y="-185"/>
      <point x="125" y="-201"/>
      <point x="125" y="-218" type="curve" smooth="yes"/>
      <point x="125" y="-235"/>
      <point x="137" y="-251"/>
      <point x="156" y="-251" type="curve" smooth="yes"/>
    </contour>
    <component base="glyph633"/>
  </outline>
</glyph>
<glyph name="glyph637" format="1">
  <advance width="390"/>
  <outline>
    <contour>
      <point x="154" y="-376"/>
      <point x="169" y="-365"/>
      <point x="169" y="-345" type="curve" smooth="yes"/>
      <point x="169" y="-338"/>
      <point x="167" y="-329"/>
      <point x="163" y="-320" type="curve"/>
      <point x="138" y="-286" type="line"/>
      <point x="118" y="-309"/>
      <point x="104" y="-330"/>
      <point x="104" y="-345" type="curve" smooth="yes"/>
      <point x="104" y="-361"/>
      <point x="119" y="-376"/>
      <point x="135" y="-376" type="curve" smooth="yes"/>
    </contour>
    <component base="glyph636"/>
  </outline>
</glyph>
<glyph name="glyph647" format="1">
  <advance width="255"/>
  <outline>
    <contour>
      <point x="175" y="-245" type="curve" name="hr00" smooth="yes"/>
      <point x="175" y="-276"/>
      <point x="149" y="-299"/>
      <point x="92" y="-299" type="curve" smooth="yes"/>
      <point x="59" y="-299"/>
      <point x="27" y="-275"/>
      <point x="27" y="-252" type="curve" smooth="yes"/>
      <point x="27" y="-229"/>
      <point x="42" y="-213"/>
      <point x="73" y="-203" type="curve" smooth="yes"/>
      <point x="82" y="-200"/>
      <point x="105" y="-193"/>
      <point x="144" y="-182" type="curve"/>
      <point x="164" y="-197"/>
      <point x="175" y="-216"/>
    </contour>
    <contour>
      <point x="90" y="-157" type="curve"/>
      <point x="37.1472" y="-164.55"/>
      <point x="-20" y="-194.035"/>
      <point x="-20" y="-248" type="curve" smooth="yes"/>
      <point x="-20" y="-309"/>
      <point x="19" y="-345"/>
      <point x="90" y="-345" type="curve" smooth="yes"/>
      <point x="175" y="-345"/>
      <point x="222" y="-301"/>
      <point x="222" y="-245" type="curve" smooth="yes"/>
      <point x="222" y="-210"/>
      <point x="208" y="-182"/>
      <point x="180" y="-159" type="curve"/>
      <point x="220" y="-130"/>
      <point x="237" y="-89"/>
      <point x="237" y="-9" type="curve" smooth="yes"/>
      <point x="237" y="44"/>
      <point x="225" y="94"/>
      <point x="200" y="140" type="curve" smooth="yes"/>
      <point x="179" y="179"/>
      <point x="161" y="198"/>
      <point x="146" y="198" type="curve" smooth="yes"/>
      <point x="133" y="198"/>
      <point x="126" y="189"/>
      <point x="126" y="171" type="curve"/>
      <point x="142" y="144"/>
      <point x="158" y="119"/>
      <point x="175" y="94" type="curve"/>
      <point x="190" y="63"/>
      <point x="197" y="30"/>
      <point x="197" y="-3" type="curve" smooth="yes"/>
      <point x="197" y="-70"/>
      <point x="183" y="-105"/>
      <point x="146" y="-136" type="curve"/>
      <point x="100.534" y="-118.95"/>
      <point x="92.3516" y="-113"/>
      <point x="42" y="-113" type="curve" smooth="yes"/>
      <point x="-37.7657" y="-113"/>
      <point x="-103" y="-140.076"/>
      <point x="-103" y="-213" type="curve" smooth="yes"/>
      <point x="-103" y="-230"/>
      <point x="-95" y="-238"/>
      <point x="-79" y="-238" type="curve" smooth="yes"/>
      <point x="-65" y="-238"/>
      <point x="-58" y="-230"/>
      <point x="-58" y="-213" type="curve" smooth="yes"/>
      <point x="-58" y="-169"/>
      <point x="-18" y="-151"/>
      <point x="37" y="-151" type="curve" smooth="yes"/>
      <point x="60" y="-151"/>
      <point x="86" y="-156"/>
    </contour>
  </outline>
</glyph>
<glyph name="glyph648" format="1">
  <advance width="303"/>
  <outline>
    <contour>
      <point x="41" y="-205" type="curve" name="hr00" smooth="yes"/>
      <point x="41" y="-237"/>
      <point x="18" y="-261"/>
      <point x="-10" y="-261" type="curve" smooth="yes"/>
      <point x="-42" y="-261"/>
      <point x="-66" y="-237"/>
      <point x="-66" y="-205" type="curve" smooth="yes"/>
      <point x="-66" y="-177"/>
      <point x="-42" y="-149"/>
      <point x="-10" y="-149" type="curve" smooth="yes"/>
      <point x="17" y="-149"/>
      <point x="41" y="-177"/>
    </contour>
    <contour>
      <point x="225" y="-147" type="curve" smooth="yes"/>
      <point x="225" y="-199.526"/>
      <point x="199.391" y="-261"/>
      <point x="151" y="-261" type="curve" smooth="yes"/>
      <point x="127" y="-261"/>
      <point x="101" y="-244"/>
      <point x="94" y="-213" type="curve"/>
      <point x="81" y="-193"/>
      <point x="75" y="-173"/>
      <point x="59" y="-152" type="curve" smooth="yes"/>
      <point x="43.6364" y="-130.052"/>
      <point x="27.1044" y="-114"/>
      <point x="-10" y="-114" type="curve" smooth="yes"/>
      <point x="-66" y="-114"/>
      <point x="-103" y="-159"/>
      <point x="-103" y="-203" type="curve" smooth="yes"/>
      <point x="-103" y="-260"/>
      <point x="-63" y="-299"/>
      <point x="-6" y="-299" type="curve" smooth="yes"/>
      <point x="11" y="-299"/>
      <point x="27" y="-293"/>
      <point x="42" y="-281" type="curve" smooth="yes"/>
      <point x="57" y="-269"/>
      <point x="66" y="-259"/>
      <point x="68" y="-251" type="curve"/>
      <point x="73" y="-271"/>
      <point x="111" y="-299"/>
      <point x="148" y="-299" type="curve" smooth="yes"/>
      <point x="176" y="-299"/>
      <point x="196" y="-290"/>
      <point x="211" y="-279" type="curve"/>
      <point x="211" y="-299"/>
      <point x="219" y="-319"/>
      <point x="236" y="-339" type="curve" smooth="yes"/>
      <point x="251" y="-358"/>
      <point x="265" y="-368"/>
      <point x="277" y="-368" type="curve" smooth="yes"/>
      <point x="290" y="-368"/>
      <point x="297" y="-360"/>
      <point x="297" y="-345" type="curve" smooth="yes"/>
      <point x="297" y="-342"/>
      <point x="289" y="-335"/>
      <point x="273" y="-324" type="curve" smooth="yes"/>
      <point x="257" y="-313"/>
      <point x="249" y="-297"/>
      <point x="249" y="-276" type="curve"/>
      <point x="263" y="-180.806"/>
      <point x="263" y="-152" type="curve" smooth="yes"/>
      <point x="263" y="-71.5168"/>
      <point x="209.395" y="6"/>
      <point x="133" y="6" type="curve" smooth="yes"/>
      <point x="120" y="6"/>
      <point x="114" y="-1"/>
      <point x="114" y="-15" type="curve" smooth="yes"/>
      <point x="114" y="-26"/>
      <point x="120" y="-31"/>
      <point x="133" y="-31" type="curve" smooth="yes"/>
      <point x="185" y="-31"/>
      <point x="225" y="-80"/>
    </contour>
  </outline>
</glyph>
<glyph name="glyph659" format="1">
  <advance width="138"/>
  <outline>
    <contour>
      <point x="128" y="329" type="curve" smooth="yes"/>
      <point x="128" y="336.397"/>
      <point x="120.615" y="340"/>
      <point x="113" y="340" type="curve" smooth="yes"/>
      <point x="94" y="340"/>
      <point x="73" y="294"/>
      <point x="51" y="201" type="curve" smooth="yes"/>
      <point x="29" y="108"/>
      <point x="18" y="20"/>
      <point x="18" y="-63" type="curve" smooth="yes"/>
      <point x="18" y="-172"/>
      <point x="39" y="-265"/>
      <point x="82" y="-342" type="curve" smooth="yes"/>
      <point x="125" y="-419"/>
      <point x="176" y="-458"/>
      <point x="237" y="-458" type="curve" smooth="yes"/>
      <point x="253.672" y="-458"/>
      <point x="269" y="-446.987"/>
      <point x="269" y="-430" type="curve" smooth="yes"/>
      <point x="269" y="-414.731"/>
      <point x="261.209" y="-398"/>
      <point x="247" y="-398" type="curve" smooth="yes"/>
      <point x="197" y="-398"/>
      <point x="154" y="-360"/>
      <point x="119" y="-285" type="curve" smooth="yes"/>
      <point x="84" y="-210"/>
      <point x="66" y="-119"/>
      <point x="66" y="-12" type="curve" smooth="yes"/>
      <point x="66" y="129"/>
      <point x="83" y="231"/>
      <point x="118" y="294" type="curve" smooth="yes"/>
      <point x="125" y="306"/>
      <point x="128" y="318"/>
    </contour>
  </outline>
</glyph>
<glyph name="uni0C150C40.abvs" format="1">
  <advance width="514"/>
  <outline>
    <contour>
      <point x="152" y="763" type="curve" smooth="yes"/>
      <point x="152" y="732.427"/>
      <point x="174.6" y="688.1"/>
      <point x="193" y="672" type="curve"/>
      <point x="129" y="661"/>
      <point x="98" y="625"/>
      <point x="98" y="566" type="curve" smooth="yes"/>
      <point x="98" y="539"/>
      <point x="110" y="517"/>
      <point x="135" y="499" type="curve" smooth="yes"/>
      <point x="155" y="484"/>
      <point x="176" y="477"/>
      <point x="197" y="477" type="curve" smooth="yes"/>
      <point x="260" y="477"/>
      <point x="304" y="517"/>
      <point x="304" y="576" type="curve" smooth="yes"/>
      <point x="304" y="593"/>
      <point x="303" y="603"/>
      <point x="300" y="607" type="curve"/>
      <point x="311" y="602"/>
      <point x="327" y="564"/>
      <point x="327" y="531" type="curve" smooth="yes"/>
      <point x="327" y="487"/>
      <point x="303" y="447"/>
      <point x="250" y="436" type="curve"/>
      <point x="231" y="436" type="line"/>
      <point x="198" y="434" type="line"/>
      <point x="171" y="441"/>
      <point x="139" y="464"/>
      <point x="128" y="464" type="curve" smooth="yes"/>
      <point x="116" y="464"/>
      <point x="105" y="452"/>
      <point x="105" y="440" type="curve" smooth="yes"/>
      <point x="105" y="433"/>
      <point x="108" y="426"/>
      <point x="114" y="421" type="curve"/>
      <point x="57" y="401"/>
      <point x="29" y="366"/>
      <point x="29" y="316" type="curve" smooth="yes"/>
      <point x="29" y="267"/>
      <point x="75" y="231"/>
      <point x="128" y="224" type="curve" smooth="yes"/>
      <point x="182" y="217"/>
      <point x="231" y="215"/>
      <point x="275" y="210" type="curve" smooth="yes"/>
      <point x="320" y="205"/>
      <point x="351" y="197"/>
      <point x="370" y="185" type="curve" smooth="yes"/>
      <point x="389" y="174"/>
      <point x="398" y="155"/>
      <point x="398" y="129" type="curve" smooth="yes"/>
      <point x="398" y="72"/>
      <point x="339" y="37"/>
      <point x="234" y="37" type="curve" smooth="yes"/>
      <point x="163" y="37"/>
      <point x="114" y="49"/>
      <point x="90" y="75" type="curve" smooth="yes"/>
      <point x="78" y="87"/>
      <point x="73" y="107"/>
      <point x="73" y="134" type="curve" smooth="yes"/>
      <point x="73" y="159"/>
      <point x="64" y="171"/>
      <point x="47" y="171" type="curve" smooth="yes"/>
      <point x="23" y="171"/>
      <point x="11" y="160"/>
      <point x="11" y="137" type="curve" smooth="yes"/>
      <point x="11" y="88"/>
      <point x="37" y="47"/>
      <point x="89" y="16" type="curve"/>
      <point x="132" y="-3"/>
      <point x="162" y="-13"/>
      <point x="225" y="-13" type="curve" smooth="yes"/>
      <point x="373" y="-13"/>
      <point x="450" y="40"/>
      <point x="450" y="132" type="curve" smooth="yes"/>
      <point x="450" y="179"/>
      <point x="419" y="225"/>
      <point x="379" y="240" type="curve" smooth="yes"/>
      <point x="359" y="247"/>
      <point x="331" y="253"/>
      <point x="295" y="256" type="curve" smooth="yes"/>
      <point x="185" y="266" type="line" smooth="yes"/>
      <point x="148" y="269"/>
      <point x="122" y="276"/>
      <point x="107" y="286" type="curve" smooth="yes"/>
      <point x="93" y="296"/>
      <point x="86" y="308"/>
      <point x="86" y="322" type="curve" smooth="yes"/>
      <point x="86" y="341"/>
      <point x="95" y="356"/>
      <point x="112" y="366" type="curve" smooth="yes"/>
      <point x="136" y="379"/>
      <point x="175" y="386"/>
      <point x="229" y="386" type="curve" smooth="yes"/>
      <point x="297.549" y="386"/>
      <point x="311.603" y="383.398"/>
      <point x="348" y="360" type="curve" smooth="yes"/>
      <point x="368" y="348"/>
      <point x="371" y="334"/>
      <point x="371" y="321" type="curve" smooth="yes"/>
      <point x="371" y="306"/>
      <point x="380" y="298"/>
      <point x="397" y="298" type="curve" smooth="yes"/>
      <point x="416" y="298"/>
      <point x="426" y="307"/>
      <point x="426" y="325" type="curve" smooth="yes"/>
      <point x="426" y="375"/>
      <point x="394" y="408"/>
      <point x="331" y="424" type="curve" name="hr00"/>
      <point x="358" y="446"/>
      <point x="372" y="481"/>
      <point x="372" y="528" type="curve" smooth="yes"/>
      <point x="372" y="613"/>
      <point x="326" y="665"/>
      <point x="257" y="674" type="curve"/>
      <point x="236" y="697"/>
      <point x="224" y="712"/>
      <point x="221" y="717" type="curve" smooth="yes"/>
      <point x="210" y="733"/>
      <point x="205" y="749"/>
      <point x="205" y="766" type="curve" smooth="yes"/>
      <point x="205" y="805"/>
      <point x="228" y="829"/>
      <point x="265" y="829" type="curve" smooth="yes"/>
      <point x="280" y="829"/>
      <point x="292" y="824"/>
      <point x="303" y="814" type="curve"/>
      <point x="310" y="805"/>
      <point x="314" y="797"/>
      <point x="314" y="789" type="curve" smooth="yes"/>
      <point x="311" y="762" type="line"/>
      <point x="311" y="743"/>
      <point x="319" y="734"/>
      <point x="336" y="734" type="curve" smooth="yes"/>
      <point x="359" y="734"/>
      <point x="370" y="747"/>
      <point x="370" y="774" type="curve" smooth="yes"/>
      <point x="370" y="829"/>
      <point x="327" y="878"/>
      <point x="264" y="878" type="curve" smooth="yes"/>
      <point x="195" y="878"/>
      <point x="152" y="827"/>
    </contour>
    <contour>
      <point x="260" y="576" type="curve" smooth="yes"/>
      <point x="260" y="543"/>
      <point x="234" y="520"/>
      <point x="205" y="520" type="curve" smooth="yes"/>
      <point x="176" y="520"/>
      <point x="145" y="542"/>
      <point x="145" y="570" type="curve" smooth="yes"/>
      <point x="145" y="607"/>
      <point x="168" y="631"/>
      <point x="205" y="631" type="curve" smooth="yes"/>
      <point x="236" y="631"/>
      <point x="260" y="608"/>
    </contour>
  </outline>
</glyph>
<glyph name="uni0C150C48.abvs" format="1">
  <advance width="516"/>
  <outline>
    <contour>
      <point x="151" y="-184"/>
      <point x="133" y="-205"/>
      <point x="104" y="-205" type="curve" name="hr00" smooth="yes"/>
      <point x="81" y="-205"/>
      <point x="59" y="-186"/>
      <point x="59" y="-163" type="curve" smooth="yes"/>
      <point x="59" y="-131"/>
      <point x="80" y="-115"/>
      <point x="104" y="-115" type="curve" smooth="yes"/>
      <point x="131" y="-115"/>
      <point x="151" y="-132"/>
      <point x="151" y="-159" type="curve" smooth="yes"/>
    </contour>
    <contour>
      <point x="203" y="-105"/>
      <point x="172" y="-67"/>
      <point x="104" y="-67" type="curve" smooth="yes"/>
      <point x="52" y="-67"/>
      <point x="11" y="-104"/>
      <point x="11" y="-157" type="curve" smooth="yes"/>
      <point x="11" y="-210"/>
      <point x="53" y="-251"/>
      <point x="109" y="-251" type="curve" smooth="yes"/>
      <point x="427" y="-251" type="line" smooth="yes"/>
      <point x="443" y="-251"/>
      <point x="451" y="-243"/>
      <point x="451" y="-228" type="curve" smooth="yes"/>
      <point x="451" y="-213"/>
      <point x="443" y="-205"/>
      <point x="426" y="-205" type="curve" smooth="yes"/>
      <point x="188" y="-205" type="line"/>
      <point x="195" y="-194"/>
      <point x="203" y="-174"/>
      <point x="203" y="-153" type="curve" smooth="yes"/>
    </contour>
    <component base="uni0C150C46.abvs"/>
  </outline>
</glyph>
<glyph name="uni0C150C4D.blwf0C43.bl" format="1">
  <advance width="300"/>
  <outline>
    <contour>
      <point x="186" y="-326"/>
      <point x="199" y="-310"/>
      <point x="229" y="-310" type="curve" smooth="yes"/>
      <point x="255.941" y="-310"/>
      <point x="274" y="-327.507"/>
      <point x="274" y="-353" type="curve" name="hr00" smooth="yes"/>
      <point x="274" y="-374.488"/>
      <point x="256.497" y="-393"/>
      <point x="233" y="-393" type="curve" smooth="yes"/>
      <point x="203.327" y="-393"/>
      <point x="184.696" y="-377.683"/>
      <point x="179" y="-353" type="curve"/>
    </contour>
    <contour>
      <point x="123" y="-481"/>
      <point x="187" y="-539"/>
      <point x="270" y="-539" type="curve" smooth="yes"/>
      <point x="378.739" y="-539"/>
      <point x="429.91" y="-443.176"/>
      <point x="424" y="-323" type="curve"/>
      <point x="427" y="-265"/>
      <point x="416" y="-207"/>
      <point x="389" y="-149" type="curve" smooth="yes"/>
      <point x="361" y="-91"/>
      <point x="322" y="-37"/>
      <point x="272" y="12" type="curve"/>
      <point x="258.512" y="12"/>
      <point x="247" y="0.255757"/>
      <point x="247" y="-13" type="curve" smooth="yes"/>
      <point x="247" y="-20"/>
      <point x="254" y="-30"/>
      <point x="269" y="-44" type="curve" smooth="yes"/>
      <point x="335.727" y="-110.727"/>
      <point x="385" y="-195.828"/>
      <point x="385" y="-319" type="curve" smooth="yes"/>
      <point x="385" y="-410.972"/>
      <point x="352.439" y="-495"/>
      <point x="268" y="-495" type="curve" smooth="yes"/>
      <point x="210.859" y="-495"/>
      <point x="163.492" y="-452.623"/>
      <point x="163" y="-395" type="curve"/>
      <point x="168" y="-405"/>
      <point x="177" y="-414"/>
      <point x="191" y="-423" type="curve"/>
      <point x="205" y="-430"/>
      <point x="220" y="-433"/>
      <point x="237" y="-433" type="curve" smooth="yes"/>
      <point x="283.773" y="-433"/>
      <point x="317" y="-398.786"/>
      <point x="317" y="-354" type="curve" smooth="yes"/>
      <point x="317" y="-306.077"/>
      <point x="280.696" y="-269"/>
      <point x="234" y="-269" type="curve" smooth="yes"/>
      <point x="166.246" y="-269"/>
      <point x="123" y="-329.835"/>
      <point x="123" y="-399" type="curve" smooth="yes"/>
    </contour>
    <component base="uni0C150C4D.blwf"/>
  </outline>
</glyph>
<glyph name="uni0C160C46.abvs" format="1">
  <advance width="624"/>
  <outline>
    <contour>
      <point x="298" y="-46" type="curve" name="hr00" smooth="yes"/>
      <point x="298" y="-35.8622"/>
      <point x="266.772" y="41.4564"/>
      <point x="266" y="43" type="curve"/>
      <point x="239" y="-10" type="line" smooth="yes"/>
      <point x="230" y="-28"/>
      <point x="224" y="-40"/>
      <point x="224" y="-47" type="curve" smooth="yes"/>
      <point x="224" y="-72"/>
      <point x="238" y="-92"/>
      <point x="263" y="-92" type="curve" smooth="yes"/>
      <point x="284" y="-92"/>
      <point x="298" y="-69"/>
    </contour>
    <contour>
      <point x="385" y="-15" type="curve" smooth="yes"/>
      <point x="504.904" y="-15"/>
      <point x="559" y="82.2896"/>
      <point x="559" y="211" type="curve" smooth="yes"/>
      <point x="559" y="298"/>
      <point x="530" y="375"/>
      <point x="479" y="408" type="curve"/>
      <point x="502" y="421"/>
      <point x="520" y="447"/>
      <point x="520" y="487" type="curve" smooth="yes"/>
      <point x="520" y="546"/>
      <point x="472" y="583"/>
      <point x="411" y="583" type="curve" smooth="yes"/>
      <point x="52" y="583" type="line" smooth="yes"/>
      <point x="33" y="583"/>
      <point x="24" y="574"/>
      <point x="24" y="555" type="curve" smooth="yes"/>
      <point x="24" y="540"/>
      <point x="33" y="533"/>
      <point x="50" y="533" type="curve" smooth="yes"/>
      <point x="412" y="533" type="line" smooth="yes"/>
      <point x="449" y="533"/>
      <point x="471" y="512"/>
      <point x="471" y="483" type="curve" smooth="yes"/>
      <point x="471" y="458"/>
      <point x="448" y="436"/>
      <point x="424" y="436" type="curve" smooth="yes"/>
      <point x="348" y="436" type="line" smooth="yes"/>
      <point x="333" y="436"/>
      <point x="326" y="428"/>
      <point x="326" y="411" type="curve" smooth="yes"/>
      <point x="326" y="394"/>
      <point x="336" y="386"/>
      <point x="355" y="386" type="curve" smooth="yes"/>
      <point x="385" y="386" type="line" smooth="yes"/>
      <point x="477.314" y="386"/>
      <point x="509" y="302.811"/>
      <point x="509" y="201" type="curve" smooth="yes"/>
      <point x="509" y="106"/>
      <point x="465" y="36"/>
      <point x="394" y="36" type="curve" smooth="yes"/>
      <point x="351" y="36"/>
      <point x="316" y="59"/>
      <point x="303" y="98" type="curve"/>
      <point x="310.409" y="121.709"/>
      <point x="326" y="183.087"/>
      <point x="326" y="211" type="curve" smooth="yes"/>
      <point x="326" y="364"/>
      <point x="283" y="437"/>
      <point x="168" y="437" type="curve" smooth="yes"/>
      <point x="83.2801" y="437"/>
      <point x="28" y="388.622"/>
      <point x="28" y="302" type="curve" smooth="yes"/>
      <point x="28" y="277"/>
      <point x="37" y="271"/>
      <point x="57" y="271" type="curve" smooth="yes"/>
      <point x="72" y="271"/>
      <point x="80" y="281"/>
      <point x="80" y="302" type="curve" smooth="yes"/>
      <point x="80" y="359"/>
      <point x="108" y="391"/>
      <point x="172" y="391" type="curve" smooth="yes"/>
      <point x="248.052" y="391"/>
      <point x="274" y="322.318"/>
      <point x="274" y="240" type="curve" smooth="yes"/>
      <point x="274" y="209"/>
      <point x="273" y="186"/>
      <point x="270" y="177" type="curve"/>
      <point x="251" y="204"/>
      <point x="234" y="223"/>
      <point x="218" y="234" type="curve" smooth="yes"/>
      <point x="202" y="245"/>
      <point x="179" y="251"/>
      <point x="148" y="251" type="curve" smooth="yes"/>
      <point x="61" y="251"/>
      <point x="11" y="194"/>
      <point x="11" y="115" type="curve" smooth="yes"/>
      <point x="11" y="80"/>
      <point x="24" y="49"/>
      <point x="49" y="25" type="curve" smooth="yes"/>
      <point x="75" y="0"/>
      <point x="107" y="-11"/>
      <point x="145" y="-11" type="curve" smooth="yes"/>
      <point x="198" y="-11"/>
      <point x="239" y="8"/>
      <point x="266" y="45" type="curve"/>
      <point x="289" y="5"/>
      <point x="329" y="-15"/>
    </contour>
    <contour>
      <point x="148" y="202" type="curve" smooth="yes"/>
      <point x="200.879" y="202"/>
      <point x="243" y="162.545"/>
      <point x="243" y="110" type="curve" smooth="yes"/>
      <point x="243" y="71.4504"/>
      <point x="186.873" y="36"/>
      <point x="148" y="36" type="curve" smooth="yes"/>
      <point x="101" y="36"/>
      <point x="62" y="69"/>
      <point x="62" y="122" type="curve" smooth="yes"/>
      <point x="62" y="167"/>
      <point x="91" y="202"/>
    </contour>
  </outline>
</glyph>
<glyph name="uni0C160C4D.abvs" format="1">
  <advance width="677"/>
  <outline>
    <contour>
      <point x="300" y="-47" type="curve" name="hr00" smooth="yes"/>
      <point x="300" y="-38.5238"/>
      <point x="267.417" y="40.3044"/>
      <point x="267" y="41" type="curve"/>
      <point x="264" y="34"/>
      <point x="255" y="16"/>
      <point x="240" y="-11" type="curve" smooth="yes"/>
      <point x="230" y="-29"/>
      <point x="225" y="-41"/>
      <point x="225" y="-48" type="curve" smooth="yes"/>
      <point x="225" y="-73"/>
      <point x="237" y="-93"/>
      <point x="264" y="-93" type="curve" smooth="yes"/>
      <point x="285" y="-93"/>
      <point x="300" y="-70"/>
    </contour>
    <contour>
      <point x="275" y="618" type="curve" smooth="yes"/>
      <point x="275" y="593.661"/>
      <point x="291.828" y="549.439"/>
      <point x="309" y="543" type="curve"/>
      <point x="289" y="527"/>
      <point x="273" y="511"/>
      <point x="273" y="480" type="curve" smooth="yes"/>
      <point x="273" y="423"/>
      <point x="313" y="395"/>
      <point x="385" y="386" type="curve"/>
      <point x="477.314" y="386"/>
      <point x="509" y="302.811"/>
      <point x="509" y="201" type="curve" smooth="yes"/>
      <point x="509" y="106"/>
      <point x="465" y="36"/>
      <point x="394" y="36" type="curve" smooth="yes"/>
      <point x="351" y="36"/>
      <point x="316" y="59"/>
      <point x="303" y="98" type="curve"/>
      <point x="310.409" y="121.709"/>
      <point x="326" y="183.087"/>
      <point x="326" y="211" type="curve" smooth="yes"/>
      <point x="326" y="364"/>
      <point x="283" y="437"/>
      <point x="168" y="437" type="curve" smooth="yes"/>
      <point x="83.2801" y="437"/>
      <point x="28" y="388.622"/>
      <point x="28" y="302" type="curve" smooth="yes"/>
      <point x="28" y="277"/>
      <point x="37" y="271"/>
      <point x="57" y="271" type="curve" smooth="yes"/>
      <point x="72" y="271"/>
      <point x="80" y="281"/>
      <point x="80" y="302" type="curve" smooth="yes"/>
      <point x="80" y="359"/>
      <point x="108" y="391"/>
      <point x="172" y="391" type="curve" smooth="yes"/>
      <point x="248.052" y="391"/>
      <point x="274" y="322.318"/>
      <point x="274" y="240" type="curve" smooth="yes"/>
      <point x="274" y="209"/>
      <point x="273" y="186"/>
      <point x="270" y="177" type="curve"/>
      <point x="251" y="204"/>
      <point x="234" y="223"/>
      <point x="218" y="234" type="curve" smooth="yes"/>
      <point x="202" y="245"/>
      <point x="179" y="251"/>
      <point x="148" y="251" type="curve" smooth="yes"/>
      <point x="61" y="251"/>
      <point x="11" y="194"/>
      <point x="11" y="115" type="curve" smooth="yes"/>
      <point x="11" y="80"/>
      <point x="24" y="49"/>
      <point x="49" y="25" type="curve" smooth="yes"/>
      <point x="75" y="0"/>
      <point x="107" y="-11"/>
      <point x="145" y="-11" type="curve" smooth="yes"/>
      <point x="198" y="-11"/>
      <point x="239" y="8"/>
      <point x="266" y="45" type="curve"/>
      <point x="289" y="5"/>
      <point x="329" y="-15"/>
      <point x="385" y="-15" type="curve" smooth="yes"/>
      <point x="504.904" y="-15"/>
      <point x="559" y="82.2896"/>
      <point x="559" y="211" type="curve" smooth="yes"/>
      <point x="559" y="340.423"/>
      <point x="506.569" y="428.097"/>
      <point x="390" y="436" type="curve" smooth="yes"/>
      <point x="355.888" y="438.132"/>
      <point x="327" y="451.067"/>
      <point x="327" y="484" type="curve" smooth="yes"/>
      <point x="327" y="513"/>
      <point x="352" y="518"/>
      <point x="395" y="518" type="curve" smooth="yes"/>
      <point x="490" y="518" type="line" smooth="yes"/>
      <point x="507" y="518"/>
      <point x="516" y="527"/>
      <point x="516" y="544" type="curve" smooth="yes"/>
      <point x="516" y="561"/>
      <point x="507" y="569"/>
      <point x="488" y="569" type="curve" smooth="yes"/>
      <point x="375" y="569" type="line" smooth="yes"/>
      <point x="346" y="569"/>
      <point x="331" y="584"/>
      <point x="331" y="615" type="curve" smooth="yes"/>
      <point x="331" y="640"/>
      <point x="339" y="653"/>
      <point x="372" y="653" type="curve" smooth="yes"/>
      <point x="585" y="653" type="line" smooth="yes"/>
      <point x="603" y="653"/>
      <point x="612" y="661"/>
      <point x="612" y="676" type="curve" smooth="yes"/>
      <point x="612" y="693"/>
      <point x="603" y="701"/>
      <point x="585" y="701" type="curve" smooth="yes"/>
      <point x="365" y="701" type="line" smooth="yes"/>
      <point x="306" y="701"/>
      <point x="275" y="669"/>
    </contour>
    <contour>
      <point x="148" y="202" type="curve" smooth="yes"/>
      <point x="200.879" y="202"/>
      <point x="243" y="162.545"/>
      <point x="243" y="110" type="curve" smooth="yes"/>
      <point x="243" y="71.4504"/>
      <point x="186.873" y="36"/>
      <point x="148" y="36" type="curve" smooth="yes"/>
      <point x="101" y="36"/>
      <point x="62" y="69"/>
      <point x="62" y="122" type="curve" smooth="yes"/>
      <point x="62" y="167"/>
      <point x="91" y="202"/>
    </contour>
  </outline>
</glyph>
<glyph name="uni0C17_uni0C48.abvs_uni0C30_un" format="1">
  <advance width="574"/>
  <outline>
    <contour>
      <point x="174" y="-192"/>
      <point x="156" y="-213"/>
      <point x="127" y="-213" type="curve" smooth="yes"/>
      <point x="104" y="-213"/>
      <point x="82" y="-195"/>
      <point x="82" y="-171" type="curve" smooth="yes"/>
      <point x="82" y="-139"/>
      <point x="103" y="-123"/>
      <point x="127" y="-123" type="curve" smooth="yes"/>
      <point x="154" y="-123"/>
      <point x="174" y="-140"/>
      <point x="174" y="-167" type="curve" smooth="yes"/>
    </contour>
    <contour>
      <point x="226" y="-113"/>
      <point x="195" y="-75"/>
      <point x="127" y="-75" type="curve" smooth="yes"/>
      <point x="75" y="-75"/>
      <point x="34" y="-111"/>
      <point x="34" y="-166" type="curve" smooth="yes"/>
      <point x="34" y="-218"/>
      <point x="76" y="-259"/>
      <point x="132" y="-259" type="curve" smooth="yes"/>
      <point x="485" y="-259" type="line" smooth="yes"/>
      <point x="501" y="-259"/>
      <point x="509" y="-251"/>
      <point x="509" y="-236" type="curve" smooth="yes"/>
      <point x="509" y="-221"/>
      <point x="500" y="-213"/>
      <point x="483" y="-213" type="curve" smooth="yes"/>
      <point x="211" y="-213" type="line"/>
      <point x="218" y="-202"/>
      <point x="226" y="-182"/>
      <point x="226" y="-161" type="curve" smooth="yes"/>
    </contour>
    <component base="uni0C170C46.abvs" xOffset="23"/>
    <component base="glyph613" xOffset="530" yOffset="-185"/>
  </outline>
</glyph>
<glyph name="uni0C180C300C4D.blwf.bl" format="1">
  <advance width="919"/>
  <outline>
    <contour>
      <point x="461" y="630"/>
      <point x="472" y="638"/>
      <point x="472" y="655" type="curve" smooth="yes"/>
      <point x="472" y="670"/>
      <point x="460" y="678"/>
      <point x="437" y="678" type="curve" smooth="yes"/>
      <point x="101" y="678" type="line" smooth="yes"/>
      <point x="44" y="678"/>
      <point x="12" y="642"/>
      <point x="12" y="591" type="curve" smooth="yes"/>
      <point x="12" y="562"/>
      <point x="23" y="540"/>
      <point x="45" y="526" type="curve"/>
      <point x="26" y="515"/>
      <point x="14" y="489"/>
      <point x="14" y="469" type="curve" smooth="yes"/>
      <point x="14" y="406"/>
      <point x="50" y="374"/>
      <point x="121" y="374" type="curve" smooth="yes"/>
      <point x="183" y="374" type="line" smooth="yes"/>
      <point x="207" y="374"/>
      <point x="218" y="385"/>
      <point x="218" y="400" type="curve" smooth="yes"/>
      <point x="218" y="415"/>
      <point x="210" y="425"/>
      <point x="191" y="425" type="curve" smooth="yes"/>
      <point x="111" y="425" type="line" smooth="yes"/>
      <point x="84" y="425"/>
      <point x="66" y="434"/>
      <point x="66" y="461" type="curve" smooth="yes"/>
      <point x="66" y="487"/>
      <point x="81" y="500"/>
      <point x="110" y="500" type="curve" smooth="yes"/>
      <point x="324" y="500" type="line" smooth="yes"/>
      <point x="337" y="500"/>
      <point x="344" y="508"/>
      <point x="344" y="523" type="curve" smooth="yes"/>
      <point x="344" y="542"/>
      <point x="334" y="552"/>
      <point x="314" y="552" type="curve" smooth="yes"/>
      <point x="113" y="552" type="line" smooth="yes"/>
      <point x="80" y="552"/>
      <point x="64" y="564"/>
      <point x="64" y="587" type="curve" smooth="yes"/>
      <point x="64" y="612"/>
      <point x="78" y="630"/>
      <point x="110" y="630" type="curve" smooth="yes"/>
      <point x="440" y="630" type="line" smooth="yes"/>
    </contour>
    <component base="glyph613" xOffset="538" yOffset="90"/>
    <component base="uni0C18.piece" xOffset="10"/>
  </outline>
</glyph>
<glyph name="uni0C180C3E.abvs" format="1">
  <advance width="1173"/>
  <outline>
    <contour>
      <point x="11" y="39"/>
      <point x="68" y="-13"/>
      <point x="148" y="-13" type="curve" smooth="yes"/>
      <point x="195.427" y="-13"/>
      <point x="249.595" y="22.1323"/>
      <point x="264" y="53" type="curve"/>
      <point x="289" y="8"/>
      <point x="327" y="-15"/>
      <point x="378" y="-15" type="curve" smooth="yes"/>
      <point x="441" y="-15"/>
      <point x="496" y="24"/>
      <point x="525" y="76" type="curve"/>
      <point x="550" y="13"/>
      <point x="603" y="-20"/>
      <point x="658" y="-20" type="curve" smooth="yes"/>
      <point x="773" y="-20"/>
      <point x="847" y="56"/>
      <point x="847" y="201" type="curve" smooth="yes"/>
      <point x="847" y="271.354"/>
      <point x="813.849" y="353.03"/>
      <point x="777" y="386" type="curve"/>
      <point x="905" y="386" type="line"/>
      <point x="892" y="371"/>
      <point x="885" y="347"/>
      <point x="885" y="316" type="curve" smooth="yes"/>
      <point x="885" y="287"/>
      <point x="896" y="262"/>
      <point x="918" y="243" type="curve" smooth="yes"/>
      <point x="941" y="224"/>
      <point x="966" y="215"/>
      <point x="993" y="215" type="curve" smooth="yes"/>
      <point x="1060" y="215"/>
      <point x="1109" y="255"/>
      <point x="1109" y="322" type="curve" smooth="yes"/>
      <point x="1109" y="387"/>
      <point x="1063" y="436"/>
      <point x="1004" y="436" type="curve" smooth="yes"/>
      <point x="620" y="436" type="line"/>
      <point x="610" y="434" type="line"/>
      <point x="601" y="431"/>
      <point x="596" y="423"/>
      <point x="596" y="410" type="curve" smooth="yes"/>
      <point x="596" y="394"/>
      <point x="606" y="386"/>
      <point x="625" y="386" type="curve" smooth="yes"/>
      <point x="647" y="386" type="line" smooth="yes"/>
      <point x="741.744" y="386"/>
      <point x="800" y="305.264"/>
      <point x="800" y="207" type="curve" smooth="yes"/>
      <point x="800" y="116.711"/>
      <point x="755.451" y="33"/>
      <point x="670" y="33" type="curve" smooth="yes"/>
      <point x="603" y="33"/>
      <point x="555" y="89"/>
      <point x="555" y="166" type="curve" smooth="yes"/>
      <point x="555" y="197" type="line" smooth="yes"/>
      <point x="555" y="275"/>
      <point x="533" y="335"/>
      <point x="491" y="379" type="curve" smooth="yes"/>
      <point x="454" y="416"/>
      <point x="412" y="436"/>
      <point x="363" y="436" type="curve" smooth="yes"/>
      <point x="347" y="436"/>
      <point x="339" y="427"/>
      <point x="339" y="409" type="curve" smooth="yes"/>
      <point x="339" y="394"/>
      <point x="347" y="386"/>
      <point x="362" y="386" type="curve" smooth="yes"/>
      <point x="446.04" y="386"/>
      <point x="502" y="297.273"/>
      <point x="502" y="209" type="curve" smooth="yes"/>
      <point x="502" y="158"/>
      <point x="490" y="117"/>
      <point x="465" y="85" type="curve" smooth="yes"/>
      <point x="441" y="53"/>
      <point x="413" y="37"/>
      <point x="382" y="37" type="curve" smooth="yes"/>
      <point x="350" y="37"/>
      <point x="320" y="52"/>
      <point x="303" y="83" type="curve" smooth="yes"/>
      <point x="297" y="94"/>
      <point x="290" y="112"/>
      <point x="282" y="136" type="curve" smooth="yes"/>
      <point x="260.396" y="200.811"/>
      <point x="234.776" y="251"/>
      <point x="148" y="251" type="curve" smooth="yes"/>
      <point x="72.2264" y="251"/>
      <point x="11" y="197.978"/>
      <point x="11" y="124" type="curve" smooth="yes"/>
    </contour>
    <contour>
      <point x="188" y="206"/>
      <point x="225" y="166"/>
      <point x="225" y="122" type="curve" smooth="yes"/>
      <point x="225" y="74"/>
      <point x="188" y="37"/>
      <point x="143" y="37" type="curve" smooth="yes"/>
      <point x="98" y="37"/>
      <point x="60" y="78"/>
      <point x="60" y="122" type="curve" smooth="yes"/>
      <point x="60" y="169"/>
      <point x="98" y="206"/>
      <point x="143" y="206" type="curve" smooth="yes"/>
    </contour>
    <contour>
      <point x="1033" y="391"/>
      <point x="1060" y="361"/>
      <point x="1060" y="326" type="curve" smooth="yes"/>
      <point x="1060" y="293"/>
      <point x="1034" y="262"/>
      <point x="998" y="262" type="curve" smooth="yes"/>
      <point x="961" y="262"/>
      <point x="932" y="293"/>
      <point x="932" y="326" type="curve" smooth="yes"/>
      <point x="932" y="362"/>
      <point x="961" y="391"/>
      <point x="998" y="391" type="curve" smooth="yes"/>
    </contour>
    <component base="superscript01"/>
    <component base="drop" xOffset="169"/>
  </outline>
</glyph>
